<?xml version="1.0" encoding="UTF-8"?>
<svg width="584px" height="592px" viewBox="0 0 584 592" version="1.1" xmlns="http://www.w3.org/2000/svg" xmlns:xlink="http://www.w3.org/1999/xlink">
    <!-- Generator: Sketch 52.5 (67469) - http://www.bohemiancoding.com/sketch -->
    <title>Combined Shape</title>
    <desc>Created with Sketch.</desc>
    <g id="Page-1" stroke="none" stroke-width="1" fill="none" fill-rule="evenodd">
        <g id="DevMob-Logo" fill="#070707">
            <path d="M481.1,295.9 C477.7,326.1 476.5,358 469.2,389.1 C465.7,403.9 464.7,404.5 450.1,400.9 C427,395.3 405,386.4 383.5,376.4 C363.2,367 342.4,358.4 324.6,344.5 C322.1,342.6 319.6,342.9 317,342.9 C311.3,342.9 305.5,343.9 299.9,343.1 C274.5,339.5 253.2,348.3 231.5,360.9 C201.5,378.4 169.3,391.8 135.3,400.4 C118.5,404.7 117.9,404.2 114.1,387 C100.4,324.8 101.2,262.7 114.7,200.7 C117.4,188.3 118.4,187.5 130.7,190.1 C163.7,197.1 193.8,211.5 223.9,226.1 C236.2,232.1 248.7,237.9 259.3,246.8 C261.7,248.8 264.2,248.7 266.8,248.6 C273.2,248.5 279.9,246.8 285.8,248.2 C317,255.7 339.4,235.8 364.4,223.9 C393.4,210.1 422.4,196.8 454,189.5 C464.4,187.1 467.1,191.5 468.9,199.8 C474.2,223.7 476.4,248.1 478.9,272.4 C479.7,279.8 480.3,287.1 481.1,295.9 Z M569.1,272.7 C558.6,276.3 558.4,268.6 557,259.7 C544.5,180.4 504.4,118.2 438.6,72.7 C392.1,40.5 340.2,24.7 283.5,26.9 C209.9,29.7 148.4,59.7 98.2,112.8 C57.3,156.1 32.6,207.6 26,267.2 C25.5,271.6 24.3,272.9 20,272.7 C-3.2,271.5 -1.5,278.4 3.3,251.9 C24,137.7 89.3,58.5 197.8,18.8 C292.7,-15.9 382.7,0.5 463.7,60 C527.9,107.2 566.9,171.2 580.5,250.1 C581.1,253.4 581.4,256.7 581.7,260.1 C583.1,272.7 583.1,272.7 569.1,272.7 Z M292.2,591.9 C150.9,591.6 24,482.1 3.4,343.8 C3.2,342.1 2.7,340.5 2.5,338.9 C-0.6,320.5 -0.6,320.8 18.1,320.8 C24.2,320.8 25.3,322.8 26.2,328.6 C43.5,437.4 103.3,513.9 206.4,551.6 C364.8,609.6 524.9,498.7 555.1,346.8 C555.9,342.9 556.3,338.8 557.2,334.9 C558.2,330.4 555.9,323.1 559.9,321.9 C566.3,319.9 573.8,321 580.8,321.2 C584.6,321.3 583.1,324.5 582.9,326.6 C575.8,393.9 548.2,451.9 501.6,500.5 C452.9,551.2 393.5,581.7 323.3,590 C312.6,591.2 301.8,591.3 292.2,591.9 Z" id="Combined-Shape"></path>
        </g>
    </g>
</svg>