<svg xmlns="http://www.w3.org/2000/svg" viewBox="0 0 26864 592" width="26864" height="592"><path d="M0 252h584v89H0v-89m0-40v-29.667-29.666V123h584v89H0m0 258v-89h584v89H0" fill="#000000"/><path d="M584.123 251.945c21.61-.013 43.217-.014 64.837-.012 21.642.008 43.28.023 64.919.039 21.62.007 43.239.013 64.857.022 21.609.003 43.218.002 64.827.002 21.614 0 43.227-.002 64.84 0 21.64.008 43.27-.013 64.904-.026 21.637-.015 43.275-.029 64.915-.037 21.618-.003 43.227.002 64.835.011 21.612.026 43.221.052 64.83.078.001 14.825.001 29.651.002 44.477v44.453c-21.61.032-43.217.066-64.832.1-21.61.016-43.217.016-64.839.012-21.631-.006-43.261-.015-64.891-.026-21.628-.01-43.257-.019-64.882-.034-21.609-.002-43.219-.002-64.828-.002-21.612 0-43.225.001-64.837 0-21.634-.004-43.263.006-64.893.019-21.638.019-43.279.034-64.922.043-21.625.004-43.232.004-64.842-.015-.015-29.701-.014-59.403 0-89.104m-.017-40.052c-.044-9.831-.071-19.654-.078-29.468-.001-9.874-.002-19.751-.006-29.629-.025-9.88-.024-19.751-.018-29.657 32.431-.123 64.911-.208 97.437-.251 32.512-.037 65.018-.02 97.515.044 32.479.051 64.93.12 97.354.205 32.41.003 64.82.007 97.23.01 32.411.014 64.821.014 97.215.014h97.229c-.011 29.639-.012 59.265-.013 88.89-64.833-.085-129.695-.152-194.585-.201-64.869-.034-129.744-.051-194.624-.049-64.898.003-129.783.035-194.656.092m-.102 257.971c-.001-29.636-.001-59.273-.001-88.909 38.888-.02 77.779-.02 116.691-.02 38.898 0 77.791.002 116.683.009 38.91.117 77.866.199 116.868.239 39.062.063 78.126-.056 117.05-.22 38.892-.004 77.784-.008 116.676-.013.001 5.923-.001 11.842.003 17.767.007 5.925.015 11.853.023 17.78.004 5.927.002 11.858.002 17.787-.008 5.999-.037 11.989-.088 17.968-.052 5.981-.116 11.941-.191 17.877-64.831.001-129.662.001-194.491.002H778.772c-64.972 0-129.927-.118-194.768-.267M1168.517 251.769c21.544-.056 43.081-.06 64.668-.048 21.681.032 43.349.097 65.017.162 21.587.027 43.176.053 64.756.094 21.543.009 43.086.008 64.63.008 21.561-.001 43.124-.008 64.682-.002 21.673.034 43.306-.056 64.951-.11 21.663-.062 43.326-.122 65-.155 21.579-.01 43.124.009 64.664.047 21.556.108 43.098.217 64.642.327l.009 44.405v44.3c-21.547.136-43.085.28-64.65.42-21.548.066-43.084.069-64.682.053-21.637-.025-43.268-.065-64.897-.111-21.624-.042-43.249-.081-64.862-.143-21.543-.009-43.087-.007-64.631-.007-21.558 0-43.116.004-64.673 0-21.647-.016-43.275.024-64.905.081-21.667.078-43.345.139-65.03.178-21.608.019-43.143.017-64.692-.061-.062-29.813-.058-59.626.003-89.438m-.075-40.216c-.184-9.649-.295-19.261-.325-28.837-.002-9.825-.008-19.663-.027-29.509-.104-9.849-.097-19.663-.075-29.626 32.391-.515 64.984-.872 97.771-1.05 32.726-.157 65.43-.083 98.093.185 32.587.213 65.061.501 97.421.857 32.301.014 64.6.029 96.9.045 32.305.056 64.603.056 96.838.056h96.895c-.047 29.55-.048 59.048-.055 88.541-64.653-.357-129.43-.638-194.323-.843-64.806-.145-129.636-.216-194.488-.206-64.928.013-129.802.148-194.625.387m-.427 257.878c-.001-29.54-.003-59.08-.004-88.621 38.744-.083 77.502-.081 116.344-.081 38.786 0 77.549.009 116.311.035 38.836.49 77.863.835 117.085 1.005 39.472.261 78.951-.239 117.845-.923l116.283-.054c.005 5.887-.006 11.76.012 17.662.029 5.897.063 11.809.095 17.716.017 5.907.01 11.828.009 17.744-.032 6.21-.156 12.378-.366 18.504-.22 6.135-.487 12.179-.803 18.123-64.645.005-129.29.005-193.93.008h-193.79c-65.233-.001-130.401-.494-195.091-1.118M1753.22 251.454c21.429-.132 42.839-.14 64.369-.113 21.751.075 43.471.228 65.19.383 21.531.064 43.063.126 64.575.221 21.425.021 42.852.02 64.279.019 21.467-.001 42.938-.019 64.4-.004 21.732.079 43.37-.132 65.035-.259 21.708-.147 43.416-.288 65.152-.366 21.51-.026 42.938.021 64.357.11 21.456.254 42.879.514 64.305.772.008 14.754.015 29.507.023 44.277v44.026c-21.436.321-42.848.661-64.325.992-21.437.157-42.847.164-64.402.125-21.645-.059-43.278-.154-64.907-.26-21.615-.1-43.236-.192-64.825-.34-21.426-.02-42.852-.017-64.279-.017-21.46 0-42.922.011-64.381.002-21.669-.038-43.295.056-64.926.19-21.719.186-43.461.329-65.222.42-21.578.046-42.984.04-64.424-.143-.146-30.012-.137-60.024.006-90.035m-.175-40.51c-.435-9.322-.698-18.558-.768-27.708-.006-9.736-.018-19.506-.064-29.292-.247-9.797-.229-19.507-.178-29.572 32.32-1.216 65.114-2.058 98.367-2.481 33.109-.369 66.166-.194 99.127.439 32.783.502 65.297 1.183 97.541 2.022 32.105.036 64.208.071 96.31.107 32.114.134 64.214.134 96.164.134h96.297c-.111 29.389-.113 58.658-.128 87.915-64.332-.844-128.957-1.506-193.855-1.99-64.694-.343-129.444-.511-194.246-.488-64.982.03-129.834.349-194.567.914m-1.009 257.713c-.002-29.369-.007-58.737-.009-88.105 38.486-.196 77.005-.193 115.723-.193 38.584 0 77.114.022 115.643.083 38.703 1.158 77.859 1.972 117.475 2.373 40.204.617 80.427-.563 119.267-2.179 38.528-.041 77.051-.085 115.58-.127.01 5.823-.014 11.615.029 17.473.068 5.849.147 11.731.222 17.603.04 5.871.024 11.775.022 17.668-.075 6.586-.369 13.074-.865 19.461-.518 6.41-1.15 12.604-1.897 18.563-64.312.013-128.626.014-192.926.02h-192.596c-65.701-.003-131.25-1.168-195.668-2.64M2338.283 250.979c21.253-.247 42.472-.263 63.916-.211 21.856.139 43.654.426 65.452.716 21.444.12 42.892.235 64.302.412 21.247.04 42.496.038 63.747.036 21.326-.002 42.659-.036 63.975-.008 21.82.15 43.465-.246 65.162-.483 21.776-.275 43.553-.54 65.381-.685 21.406-.048 42.659.04 63.894.205 21.304.476 42.547.961 63.796 1.445.016 14.685.028 29.369.044 44.082v43.614c-21.267.601-42.49 1.236-63.834 1.855-21.269.295-42.488.307-63.978.235-21.659-.111-43.296-.288-64.923-.487-21.603-.187-43.216-.359-64.769-.635-21.249-.038-42.498-.032-63.749-.032-21.313 0-42.627.02-63.938.004-21.704-.072-43.328.103-64.959.354-21.796.348-43.636.615-65.512.786-21.533.086-42.744.076-64.019-.266-.273-30.315-.257-60.627.012-90.937m-.328-40.953c-.814-8.831-1.306-17.498-1.437-26.003-.01-9.605-.034-19.271-.12-28.967-.462-9.716-.428-19.271-.332-29.49 32.21-2.273 65.309-3.85 99.267-4.64 33.688-.691 67.278-.364 100.689.82 33.076.94 65.651 2.213 97.72 3.784 31.811.065 63.616.131 95.42.199 31.827.251 63.625.251 95.145.251h95.396c-.209 29.147-.213 58.07-.24 86.969-63.847-1.578-128.242-2.816-193.149-3.722-64.523-.641-129.153-.955-193.879-.911-65.062.055-129.884.653-194.48 1.71m-1.887 257.462c-.004-29.11-.014-58.218-.018-87.326 38.096-.366 76.255-.36 114.785-.36 38.28 0 76.461.04 114.637.155 38.503 2.166 77.851 3.688 118.062 4.439 41.311 1.154 82.656-1.053 121.416-4.077 38.174-.077 76.34-.159 114.517-.237.019 5.726-.026 11.396.053 17.187.128 5.776.277 11.613.416 17.432.076 5.817.046 11.696.042 17.553-.141 7.155-.691 14.125-1.618 20.907-.969 6.825-2.152 13.247-3.549 19.227-63.81.024-127.623.026-191.411.038h-190.792c-66.41-.006-132.533-2.185-196.54-4.938M2923.762 250.317c21.009-.406 41.962-.433 63.286-.347 22.002.229 43.91.702 65.817 1.18 21.324.197 42.654.388 63.922.679 20.999.066 42.001.063 63.006.059 21.13-.003 42.27-.059 63.384-.013 21.943.246 43.598-.406 65.339-.797 21.871-.452 43.742-.889 65.699-1.128 21.261-.079 42.27.066 63.249.338 21.094.784 42.086 1.584 63.089 2.381.026 14.59.046 29.176.072 43.811v43.041c-21.032.99-41.991 2.037-63.151 3.057-21.035.485-41.988.505-63.387.387-21.678-.184-43.32-.476-64.945-.804-21.586-.308-43.188-.59-64.692-1.046-21.003-.063-42.005-.053-63.01-.053-21.107 0-42.218.033-63.322.007-21.753-.118-43.372.17-65.004.584-21.904.574-43.88 1.013-65.916 1.295-21.471.141-42.411.125-63.455-.439-.45-30.734-.424-61.464.019-92.192m-.541-41.571c-1.342-8.144-2.152-16.019-2.368-23.629-.017-9.42-.056-18.942-.197-28.513-.761-9.604-.705-18.942-.548-29.376 32.059-3.746 65.582-6.344 100.521-7.646 34.493-1.138 68.825-.6 102.862 1.352 33.486 1.548 66.146 3.647 97.972 6.235 31.4.108 62.79.216 94.18.328 31.426.413 62.807.413 93.728.413h94.14c-.344 28.812-.351 57.253-.397 85.655-63.17-2.602-127.246-4.642-192.165-6.134-64.285-1.056-128.748-1.575-193.369-1.502-65.174.091-129.952 1.075-194.359 2.817m-3.109 257.115c-.007-28.75-.023-57.496-.03-86.242 37.555-.603 75.211-.594 113.481-.594 37.856 0 75.548.066 113.234.256 38.224 3.569 77.842 6.078 118.88 7.315 42.852 1.902 85.759-1.735 124.406-6.718 37.683-.128 75.352-.262 113.038-.39.033 5.591-.043 11.09.089 16.79.209 5.673.455 11.448.685 17.193.125 5.742.075 11.585.069 17.393-.233 7.946-1.138 15.587-2.667 22.92-1.597 7.402-3.546 14.141-5.848 20.152-63.112.039-126.226.043-189.302.062h-188.281c-67.395-.009-134.318-3.601-197.754-8.137M3509.727 249.439c20.685-.62 41.284-.66 62.448-.53 22.197.35 44.25 1.069 66.302 1.798 21.164.299 42.338.589 63.417 1.033 20.669.1 41.344.095 62.023.09 20.869-.005 41.754-.09 62.598-.02 22.107.375 43.775-.619 65.573-1.213 21.998-.689 43.996-1.353 66.123-1.718 21.069-.12 41.754.1 62.393.515 20.814 1.193 41.474 2.411 62.148 3.625.04 14.462.07 28.919.11 43.451v42.278c-20.719 1.508-41.329 3.101-62.243 4.654-20.724.739-41.324.769-62.603.589-21.703-.28-43.351-.724-64.974-1.223-21.563-.47-43.151-.899-64.59-1.593-20.674-.095-41.349-.08-62.028-.08-20.834 0-41.674.05-62.503.01-21.818-.18-43.431.259-65.064.889-22.048.873-44.205 1.542-66.452 1.972-21.389.215-41.969.19-62.708-.669-.684-31.291-.644-62.577.03-93.858m-.824-42.392c-2.042-7.233-3.275-14.057-3.605-20.476-.025-9.176-.085-18.506-.299-27.911-1.159-9.455-1.074-18.506-.834-29.224 31.858-5.702 65.943-9.657 102.185-11.639 35.563-1.732 70.881-.914 105.75 2.057 34.03 2.357 66.802 5.553 98.305 9.492 30.854.165 61.694.33 92.533.5 30.895.629 61.719.629 91.845.629h92.473c-.524 28.365-.534 56.166-.604 83.907-62.273-3.96-125.924-7.066-190.859-9.337-63.97-1.608-128.211-2.397-192.691-2.287-65.324.14-130.043 1.638-194.199 4.289m-4.733 256.652c-.01-28.271-.035-56.536-.045-84.801 36.834-.919 73.824-.904 111.747-.904 37.294 0 74.338.1 111.372.39 37.854 5.432 77.829 9.252 119.966 11.134 44.898 2.896 89.882-2.641 128.379-10.226 37.029-.194 74.039-.399 111.073-.594.05 5.413-.065 10.685.135 16.262.319 5.538.694 11.23 1.043 16.877.19 5.642.115 11.439.105 17.18-.354 8.998-1.733 17.531-4.059 25.595-2.432 8.168-5.398 15.328-8.903 21.38-62.183.06-124.371.065-186.5.095h-184.946c-68.705-.015-136.69-5.483-199.367-12.388M4096.257 248.307c20.267-.893 40.412-.95 61.37-.763 22.448.504 44.687 1.54 66.927 2.591 20.958.432 41.93.85 62.766 1.491 20.245.144 40.497.136 60.757.129 20.533-.007 41.088-.129 61.585-.029 22.319.54 44.004-.892 65.876-1.749 22.161-.993 44.321-1.951 66.668-2.476 20.821-.173 41.088.144 61.29.741 20.454 1.721 40.685 3.477 60.938 5.227.057 14.298.101 28.589.158 42.988v41.296c-20.317 2.174-40.476 4.471-61.074 6.71-20.324 1.065-40.469 1.108-61.593.849-21.735-.403-43.391-1.044-65.012-1.764-21.534-.676-43.103-1.295-64.457-2.296-20.253-.137-40.505-.115-60.765-.115-20.483 0-40.973.072-61.449.014-21.901-.259-43.507.375-65.141 1.282-22.232 1.259-44.623 2.224-67.143 2.843-21.282.31-41.398.274-61.744-.964-.986-32.009-.929-64.011.043-96.005m-1.188-43.448c-2.944-6.06-4.722-11.53-5.197-16.416-.036-8.86-.123-17.944-.432-27.135-1.67-9.264-1.548-17.944-1.202-29.029 31.599-8.221 66.408-13.922 104.328-16.78 36.94-2.498 73.528-1.318 109.468 2.966 34.731 3.398 67.647 8.005 98.735 13.685 30.152.237 60.282.475 90.413.72 30.209.907 60.318.907 89.419.907h90.326c-.756 27.79-.77 54.767-.871 81.657-61.117-5.709-124.221-10.187-189.176-13.462-63.565-2.318-127.519-3.456-191.818-3.297-65.516.201-130.161 2.361-193.993 6.184m-6.824 256.056c-.015-27.653-.051-55.3-.065-82.946 35.907-1.324 72.038-1.303 109.515-1.303 36.569 0 72.779.144 108.974.562 37.376 7.832 77.812 13.339 121.364 16.053 47.534 4.176 95.19-3.808 133.495-14.743 36.188-.281 72.347-.576 108.543-.857.072 5.183-.094 10.163.194 15.583.461 5.362 1.001 10.948 1.505 16.468.273 5.514.165 11.25.151 16.908-.511 10.351-2.498 20.032-5.853 29.037-3.506 9.156-7.782 16.858-12.836 22.962-60.988.086-121.983.093-182.891.137h-180.653c-70.39-.022-139.743-7.905-201.443-17.861M4683.441 246.883c19.741-1.237 39.313-1.316 60.012-1.057 22.764.698 45.238 2.134 67.713 3.591 20.699.598 41.418 1.177 61.947 2.064 19.712.2 39.434.19 59.165.18 20.111-.01 40.251-.18 60.312-.04 22.584.748 44.291-1.237 66.256-2.424 22.365-1.376 44.73-2.703 67.354-3.431 20.51-.239 40.251.2 59.903 1.027 20.001 2.384 39.692 4.818 59.414 7.242.08 14.092.14 28.174.219 42.405v40.062c-19.811 3.012-39.403 6.194-59.603 9.296-19.821 1.476-39.393 1.536-60.322 1.177-21.776-.559-43.443-1.447-65.06-2.444-21.497-.938-43.043-1.795-64.291-3.182-19.722-.189-39.443-.159-59.175-.159-20.041 0-40.091.099-60.122.019-22.006-.359-43.603.519-65.239 1.776-22.465 1.745-45.149 3.082-68.012 3.94-21.148.429-40.68.379-60.531-1.337-1.367-32.911-1.287-65.813.06-98.705m-1.646-44.777c-4.08-4.584-6.543-8.35-7.202-11.308-.05-8.463-.169-17.236-.598-26.159-2.314-9.022-2.145-17.236-1.666-28.782 31.273-11.391 66.995-19.29 107.025-23.25 38.674-3.461 76.859-1.826 114.147 4.109 35.612 4.708 68.71 11.092 99.275 18.961 29.268.329 58.506.659 87.745.998 29.348 1.257 58.556 1.257 86.368 1.257h87.625c-1.047 27.066-1.067 53.006-1.207 78.826-59.664-7.91-122.08-14.114-187.06-18.652-63.054-3.212-126.648-4.788-190.72-4.568-65.758.279-130.308 3.271-193.732 8.568m-9.456 255.306c-.02-26.877-.07-53.744-.09-80.611 34.741-1.835 69.791-1.806 106.706-1.806 35.659 0 70.819.2 105.958.778 36.776 10.853 77.791 18.483 123.124 22.243 50.849 5.785 101.868-5.276 139.93-20.427 35.13-.389 70.22-.798 105.36-1.187.1 4.893-.13 9.506.269 14.728.639 5.142 1.387 10.593 2.085 15.955.379 5.351.229 11.012.209 16.563-.708 12.054-3.461 23.181-8.109 33.37-4.857 10.398-10.782 18.782-17.784 24.951-59.484.12-118.978.13-178.352.19h-175.25c-72.51-.03-143.584-10.952-204.056-24.747M5271.364 245.129c19.094-1.661 37.96-1.769 58.34-1.42 23.153.937 45.917 2.866 68.681 4.822 20.38.803 40.787 1.58 60.939 2.772 19.054.268 38.121.255 57.202.242 19.59-.014 39.219-.242 58.742-.054 22.912 1.005 44.645-1.661 66.726-3.255 22.616-1.848 45.233-3.63 68.198-4.608 20.126-.321 39.22.268 58.193 1.38 19.443 3.201 38.47 6.47 57.537 9.725.107 13.837.188 27.661.295 41.687v38.539c-19.188 4.045-38.081 8.318-57.791 12.484-19.202 1.982-38.068 2.063-58.756 1.58-21.827-.75-43.506-1.942-65.118-3.281-21.452-1.259-42.97-2.411-64.087-4.273-19.067-.255-38.134-.215-57.215-.215-19.496 0-39.005.134-58.488.027-22.134-.482-43.72.697-65.359 2.385-22.751 2.344-45.796 4.138-69.083 5.29-20.982.576-39.795.509-59.037-1.794-1.835-34.025-1.728-68.036.081-102.033m-2.21-46.417c-5.479-2.764-8.787-4.43-9.671-5.011-.067-7.975-.228-16.365-.804-24.956-3.108-8.725-2.88-16.365-2.237-28.479 30.871-15.297 67.717-25.906 110.349-31.223 40.81-4.648 80.964-2.451 119.912 5.518 36.698 6.323 70.02 14.895 99.941 25.464 28.179.442 56.317.884 84.456 1.339 28.286 1.688 56.385 1.688 82.608 1.688h84.296c-1.406 26.175-1.433 50.836-1.621 75.337-57.871-10.622-119.44-18.953-184.451-25.048-62.425-4.313-125.574-6.429-189.366-6.135-66.056.376-130.491 4.394-193.412 11.506m-12.699 254.384c-.026-25.921-.093-51.828-.12-77.735 33.303-2.465 67.021-2.425 103.244-2.425 34.536 0 68.402.268 102.24 1.045 36.036 14.574 77.764 24.821 125.293 29.87 54.935 7.769 110.098-7.085 147.862-27.432 33.825-.522 67.597-1.072 101.436-1.594.134 4.536-.174 8.697.362 13.674.857 4.871 1.862 10.157 2.799 15.322.509 5.152.308 10.72.282 16.14-.951 14.153-4.648 27.06-10.89 38.709-6.523 11.929-14.48 21.153-23.883 27.404-57.63.16-115.274.174-172.757.254h-168.592c-75.124-.04-148.319-14.707-207.276-33.232M5860.092 243.014c18.314-2.172 36.33-2.312 56.325-1.857 23.621 1.226 46.735 3.749 69.848 6.306 19.995 1.051 40.026 2.067 59.723 3.626 18.262.35 36.54.333 54.837.315 18.961-.017 37.976-.315 56.85-.07 23.306 1.314 45.071-2.172 67.291-4.256 22.92-2.418 45.841-4.747 69.217-6.026 19.663-.42 37.977.35 56.133 1.804 18.769 4.187 36.995 8.461 55.274 12.717.14 13.532.245 27.045.385 40.822V333.1c-18.436 5.29-36.487 10.878-55.607 16.326-18.454 2.592-36.47 2.697-56.868 2.067-21.887-.981-43.582-2.54-65.188-4.292-21.397-1.647-42.882-3.153-63.84-5.588-18.279-.333-36.558-.28-54.854-.28-18.839 0-37.696.175-56.518.035-22.29-.631-43.862.911-65.504 3.118-23.096 3.065-46.577 5.413-70.373 6.919-20.784.753-38.73.666-57.236-2.347-2.4-35.366-2.26-70.714.105-106.044m-2.89-48.391c-7.165-.572-11.492.293-12.648 2.576-.087-7.386-.297-15.315-1.051-23.506-4.064-8.367-3.766-15.315-2.925-28.114 30.387-20.004 68.587-33.877 114.354-40.832 43.385-6.078 85.911-3.205 126.861 7.217 38.007 8.268 71.6 19.479 100.743 33.3 26.866.578 53.68 1.156 80.494 1.752 27.006 2.207 53.768 2.207 78.076 2.207h80.284c-1.839 25.1-1.874 48.222-2.12 71.133-55.712-13.891-116.258-24.787-181.307-32.757-61.667-5.64-124.281-8.408-187.736-8.023-66.414.491-130.71 5.746-193.025 15.047m-16.606 253.271c-.035-24.768-.123-49.518-.158-74.269 31.57-3.223 63.684-3.17 99.073-3.17 33.182 0 65.488.35 97.759 1.366 35.144 19.058 77.732 32.459 127.906 39.063 59.86 10.159 120.018-9.267 157.421-35.875 32.254-.683 64.437-1.401 96.708-2.084.176 4.105-.227 7.721.473 12.405 1.122 4.543 2.435 9.63 3.661 14.559.666 4.911.403 10.366.368 15.628-1.243 16.683-6.078 31.736-14.241 45.144-8.531 13.775-18.936 24.011-31.232 30.359-55.397.21-110.811.228-166.015.333h-160.568c-78.273-.053-154.025-19.233-211.155-43.459M6449.633 240.536c17.399-2.771 34.418-2.95 53.963-2.369 24.171 1.564 47.693 4.782 71.216 8.045 19.544 1.341 39.134 2.637 58.299 4.626 17.332.447 34.687.425 52.064.402 18.226-.022 36.519-.402 54.633-.089 23.769 1.676 45.571-2.771 67.953-5.431 23.277-3.084 46.554-6.056 70.412-7.687 19.12-.537 36.519.447 53.717 2.302 17.981 5.341 35.268 10.793 52.623 16.224.179 13.172.313 26.322.491 39.807v34.555c-17.555 6.749-34.619 13.878-53.047 20.828-17.578 3.308-34.597 3.442-54.656 2.637-21.958-1.251-43.671-3.24-65.271-5.475-21.333-2.101-42.777-4.023-63.551-7.129-17.354-.424-34.709-.357-52.086-.357-18.07 0-36.162.223-54.209.044-22.473-.804-44.028 1.162-65.674 3.978-23.5 3.911-47.492 6.906-71.886 8.827-20.55.961-37.48.85-55.126-2.994-3.061-36.937-2.882-73.852.135-110.744m-3.688-50.705c-9.14 1.998-14.66 5.828-16.135 11.468-.111-6.696-.38-14.084-1.34-21.808-5.185-7.947-4.805-14.084-3.733-27.685 29.82-25.521 69.607-43.22 119.048-52.092 46.402-7.755 91.708-4.09 135.004 9.207 39.541 10.548 73.45 24.85 101.684 42.483 25.328.737 50.589 1.475 75.849 2.234 25.507 2.816 50.701 2.816 72.766 2.816h75.582c-2.346 23.842-2.391 45.158-2.704 66.206-53.181-17.722-112.53-31.622-177.623-41.79-60.779-7.196-122.765-10.727-185.824-10.235-66.836.626-130.967 7.33-192.574 19.196m-21.185 251.966c-.045-23.416-.157-46.811-.201-70.205 29.54-4.112 59.772-4.045 94.184-4.045 31.596 0 62.074.447 92.508 1.743 34.099 24.314 77.696 41.41 130.969 49.835 65.631 12.961 131.642-11.822 168.623-45.768 30.412-.871 60.734-1.788 91.168-2.659.223 3.602-.291 6.578.603 10.917 1.43 4.16 3.107 9.013 4.671 13.665.849 4.63.514 9.953.469 15.029-1.586 19.648-7.754 37.217-18.168 52.685-10.884 15.937-24.158 27.361-39.846 33.823-52.779.268-105.58.291-158.114.425h-151.163c-81.965-.067-160.712-24.538-215.703-55.445M7039.893 237.736c16.366-3.448 32.259-3.67 51.295-2.948 24.791 1.947 48.776 5.951 72.761 10.01 19.035 1.669 38.126 3.281 56.689 5.756 16.283.556 32.594.528 48.932.501 17.395-.028 34.873-.501 52.129-.112 24.291 2.086 46.135-3.447 68.702-6.756 23.679-3.837 47.358-7.536 71.759-9.565 18.508-.668 34.874.556 50.99 2.864 17.089 6.645 33.316 13.43 49.627 20.186.222 12.767.389 25.505.611 38.661v32.127c-16.561 8.397-32.51 17.267-50.155 25.914-16.588 4.116-32.482 4.282-52.157 3.281-22.038-1.557-43.771-4.031-65.365-6.812-21.26-2.614-42.659-5.005-63.223-8.87-16.311-.528-32.621-.445-48.96-.445-17.2 0-34.428.278-51.601.056-22.678-1.001-44.216 1.446-65.865 4.949-23.957 4.866-48.526 8.592-73.595 10.983-20.287 1.196-36.069 1.057-52.741-3.726-3.809-38.712-3.587-77.397.167-116.054m-4.588-53.319c-11.373 4.901-18.24 12.081-20.076 21.514-.139-5.916-.472-12.694-1.668-19.889-6.451-7.473-5.978-12.693-4.643-27.201 29.178-31.754 70.758-53.775 124.35-64.814 49.811-9.649 98.259-5.089 144.204 11.456 41.275 13.124 75.542 30.919 102.746 52.858 23.59.917 47.097 1.835 70.604 2.78 23.812 3.504 47.235 3.504 66.766 3.504h70.269c-2.92 22.418-2.975 41.695-3.364 60.638-50.322-22.049-108.319-39.344-173.461-51.996-59.776-8.953-121.053-13.346-183.665-12.735-67.311.779-131.258 9.12-192.062 23.885m-26.36 250.493c-.055-21.891-.194-43.753-.25-65.616 27.246-5.116 55.354-5.033 88.661-5.033 29.804 0 58.218.556 86.576 2.169 32.918 30.252 77.653 51.523 134.428 62.006 72.152 16.127 144.776-14.709 181.281-56.945 28.33-1.085 56.549-2.225 84.907-3.309.278 3.032-.361 5.286.751 9.236 1.779 3.727 3.865 8.317 5.811 12.656 1.057 4.311.64 9.484.584 14.352-1.974 22.996-9.648 43.407-22.606 61.204-13.541 18.381-30.057 31.145-49.577 37.736-49.821.334-99.67.362-149.186.529h-140.539c-86.135-.084-168.266-30.531-220.841-68.985M7630.655 234.712c15.25-4.179 29.927-4.449 48.413-3.573 25.461 2.359 49.945 7.212 74.43 12.133 18.485 2.022 37.038 3.976 54.951 6.976 15.149.674 30.331.64 45.548.606 16.497-.034 33.095-.606 49.424-.135 24.855 2.528 46.744-4.179 69.51-8.189 24.113-4.651 48.227-9.133 73.216-11.593 17.845-.809 33.096.674 48.043 3.471 16.126 8.055 31.208 16.278 46.391 24.467.269 12.328.471 24.623.741 37.423v29.503c-15.486 10.178-30.231 20.928-47.031 31.409-15.52 4.988-30.197 5.19-49.458 3.977-22.125-1.888-43.88-4.887-65.466-8.257-21.181-3.168-42.531-6.066-62.87-10.75-15.183-.641-30.366-.54-45.582-.54-16.262 0-32.556.337-48.784.068-22.9-1.214-44.419 1.752-66.072 5.998-24.451 5.898-49.643 10.414-75.441 13.312-20.002 1.449-34.545 1.281-50.166-4.516-4.617-40.63-4.347-81.227.203-121.79m-5.561-56.143c-13.784 8.036-22.108 18.836-24.332 32.365-.168-5.073-.573-11.192-2.022-17.815-7.818-6.961-7.246-11.192-5.628-26.679 28.487-38.486 72.004-65.177 130.079-78.556 53.493-11.694 105.334-6.167 154.142 13.885 43.146 15.906 77.8 37.475 103.893 64.065 21.713 1.112 43.325 2.224 64.936 3.37 21.982 4.246 43.493 4.246 60.285 4.246h64.532c-3.539 20.882-3.606 37.956-4.078 54.625-47.234-26.724-103.769-47.686-168.964-63.02-58.692-10.852-119.204-16.176-181.333-15.435-67.824.944-131.571 11.054-191.51 28.949m-31.948 248.901c-.068-20.242-.236-40.45-.303-60.658 24.767-6.201 50.58-6.1 82.694-6.1 27.869 0 54.052.674 80.168 2.629 31.643 36.666 77.608 62.447 138.166 75.152 79.194 19.547 158.962-17.827 194.952-69.019 26.082-1.314 52.029-2.696 78.145-4.01.337 2.417-.438 3.891.91 7.42 2.157 3.26 4.685 7.564 7.044 11.566 1.28 3.967.775 8.979.707 13.621-2.392 26.614-11.694 50.094-27.398 70.406-16.413 21.02-36.431 35.233-60.089 41.964-46.627.404-93.287.438-139.543.64h-129.063c-90.64-.101-176.427-37.003-226.39-83.611M8221.61 231.601c14.103-4.931 27.529-5.249 45.449-4.215 26.151 2.783 51.148 8.509 76.146 14.315 17.92 2.386 35.919 4.692 53.163 8.231 13.983.796 28.006.756 42.068.716 15.574-.04 31.267-.716 46.642-.159 25.435 2.982 47.371-4.931 70.341-9.663 24.56-5.487 49.121-10.776 74.715-13.679 17.164-.954 31.266.795 45.011 4.096 15.136 9.504 29.039 19.206 43.062 28.869.318 11.877.557 23.715.875 36.149v26.805c-14.381 12.009-27.886 24.694-43.818 37.061-14.42 5.885-27.847 6.124-46.681 4.692-22.214-2.227-43.991-5.766-65.569-9.742-21.101-3.738-42.401-7.158-62.508-12.685-14.022-.756-28.045-.636-42.108-.636-15.295 0-30.63.397-45.886.079-23.128-1.431-44.627 2.068-66.285 7.078-24.958 6.959-50.791 12.288-77.339 15.707-19.709 1.71-32.977 1.511-47.516-5.328-5.448-42.604-5.13-85.167.238-127.691m-6.561-59.048c-16.264 11.262-26.086 25.784-28.71 43.527-.199-4.207-.676-9.646-2.386-15.682-9.225-6.434-8.549-9.647-6.641-26.141 27.775-45.412 73.284-76.905 135.972-92.692 57.279-13.798 112.611-7.277 164.363 16.383 45.072 18.769 80.123 44.219 105.074 75.593 19.782 1.312 39.444 2.625 59.107 3.977 20.099 5.01 39.642 5.01 53.618 5.01h58.629c-4.175 19.301-4.255 34.109-4.811 48.44-44.057-31.534-99.089-56.267-164.34-74.36-57.576-12.805-117.3-19.087-178.933-18.213-68.353 1.114-131.894 13.043-190.942 34.158m-37.697 247.264c-.08-18.546-.278-37.052-.358-55.558 22.219-7.317 45.671-7.197 76.558-7.197 25.877 0 49.766.795 73.576 3.101 30.331 43.264 77.562 73.684 142.011 88.676 86.439 23.063 173.554-21.036 209.014-81.439 23.77-1.55 47.381-3.181 71.19-4.732.398 1.785-.517 2.456 1.074 5.553 2.545 2.779 5.527 6.79 8.311 10.443 1.511 3.614.914 8.461.835 12.87-2.824 30.335-13.799 56.973-32.329 79.872-19.366 23.735-42.986 39.437-70.901 46.312-43.341.477-86.721.517-129.625.755h-117.257c-95.274-.119-184.821-43.661-232.099-98.656M8812.447 228.543c12.974-5.67 25.17-6.036 42.534-4.847 26.829 3.201 52.332 9.785 77.834 16.461 17.364 2.744 34.819 5.396 51.405 9.465 12.837.915 25.72.869 38.648.823 14.666-.045 29.469-.823 43.906-.183 26.006 3.43 47.988-5.669 71.159-11.111 24.999-6.31 49.999-12.391 76.188-15.729 16.494-1.098 29.468.914 42.031 4.709 14.163 10.929 26.908 22.086 39.791 33.197.366 11.434.64 22.823 1.006 34.898v24.152c-13.294 13.809-25.582 28.395-40.66 42.616-13.34 6.767-25.536 7.041-43.952 5.395-22.302-2.56-44.101-6.63-65.671-11.202-21.022-4.298-42.272-8.231-62.15-14.587-12.883-.868-25.766-.731-38.694-.731-14.346 0-28.737.457-43.037.091-23.354-1.646-44.833 2.378-66.495 8.139-25.457 8.002-51.92 14.129-79.206 18.062-19.421 1.966-31.435 1.737-44.912-6.127-6.264-44.543-5.898-89.04.275-133.491m-7.545-61.902c-18.701 14.431-29.996 32.613-33.013 54.498-.229-3.356-.778-8.128-2.744-13.587-10.608-5.916-9.831-8.128-7.636-25.612 27.074-52.218 74.542-88.433 141.763-106.586 61.002-15.866 119.764-8.367 174.411 18.839 46.964 21.582 82.406 50.847 106.234 86.924 17.884 1.509 35.63 3.018 53.376 4.572 18.25 5.762 35.859 5.762 47.066 5.762h52.828c-4.801 17.747-4.893 30.328-5.533 42.36-40.934-36.26-94.488-64.701-159.793-85.506-56.481-14.724-115.431-21.948-176.575-20.942-68.872 1.28-132.212 14.998-190.384 39.278m-43.347 245.654c-.092-16.879-.32-33.712-.412-50.545 19.714-8.414 40.845-8.277 70.526-8.277 23.92 0 45.554.915 67.097 3.567 29.041 49.749 77.516 84.729 145.79 101.967 93.559 26.521 187.896-24.188 222.836-93.645 21.497-1.783 42.811-3.658 64.354-5.441.457 1.162-.595 1.045 1.234 3.716 2.927 2.306 6.356 6.029 9.557 9.341 1.737 3.266 1.051 7.95.96 12.13-3.246 33.994-15.867 63.735-37.175 89.177-22.268 26.403-49.428 43.57-81.528 50.585-40.11.549-80.267.595-119.875.869h-105.655c-99.828-.137-193.072-50.206-237.709-113.444M9402.928 225.644c11.904-6.37 22.935-6.781 39.772-5.446 27.471 3.597 53.452 10.995 79.434 18.496 16.836 3.082 33.775 6.062 49.739 10.634 11.75 1.028 23.551.977 35.404.925 13.806-.051 27.765-.925 41.314-.205 26.546 3.853 48.571-6.371 71.933-12.485 25.416-7.089 50.832-13.922 77.584-17.673 15.86-1.233 27.765 1.028 39.207 5.292 13.24 12.279 24.887 24.814 36.689 37.299.411 11.014.719 21.977 1.13 33.711v21.638c-12.264 15.515-23.397 31.904-37.665 47.882-12.316 7.603-23.347 7.912-41.365 6.062-22.385-2.877-44.205-7.449-65.768-12.587-20.946-4.829-42.15-9.248-61.812-16.389-11.801-.976-23.603-.822-35.456-.822-13.446 0-26.943.514-40.337.103-23.567-1.85-45.027 2.671-66.693 9.145-25.93 8.991-52.99 15.875-80.975 20.293-19.148 2.209-29.974 1.953-42.443-6.884-7.039-46.381-6.628-92.711.308-138.989m-8.477-64.609c-21.013 17.438-33.702 39.088-37.093 64.899-.257-2.548-.874-6.688-3.083-11.599-11.919-5.425-11.046-6.689-8.58-25.112 26.411-58.671 75.735-99.36 147.254-119.757 64.531-17.827 126.545-9.401 183.936 21.167 48.759 24.25 84.571 57.13 107.334 97.666 16.084 1.695 32.014 3.39 47.944 5.137 16.495 6.474 32.271 6.474 40.854 6.474h47.328c-5.394 16.274-5.497 26.744-6.216 36.596-37.974-40.741-90.128-72.697-155.485-96.072-55.441-16.544-113.657-24.661-174.338-23.531-69.365 1.439-132.513 16.852-189.855 44.132m-48.704 244.129c-.103-15.299-.36-30.546-.463-45.793 17.339-9.453 36.27-9.299 64.808-9.299 22.065 0 41.561 1.027 60.955 4.007 27.819 55.897 77.472 95.199 149.372 114.568 100.31 29.798 201.494-27.178 235.94-105.218 19.342-2.003 38.479-4.11 57.872-6.113.514.573-.668-.293 1.387 1.976 3.288 1.858 7.142 5.308 10.738 8.295 1.952 2.937 1.182 7.466 1.079 11.43-3.648 37.461-17.828 70.144-41.769 97.998-25.02 28.932-55.537 47.487-91.603 54.636-37.049.616-74.149.668-110.633.976h-94.655c-104.146-.154-200.893-56.411-243.028-127.463M9992.921 222.964c10.916-7.019 20.869-7.472 37.218-6 28.065 3.962 54.489 12.113 80.913 20.376 16.349 3.396 32.811 6.679 48.198 11.717 10.745 1.132 21.547 1.075 32.406 1.019 13.009-.057 26.189-1.019 38.915-.227 27.047 4.245 49.113-7.018 72.65-13.754 25.801-7.811 51.602-15.339 78.875-19.471 15.274-1.358 26.189 1.132 36.595 5.83 12.387 13.528 23.019 27.339 33.821 41.093.453 10.626.793 21.195 1.246 32.613v19.313c-11.312 17.093-21.378 35.149-34.897 52.752-11.368 8.377-21.321 8.717-38.972 6.679-22.462-3.17-44.301-8.207-65.857-13.867-20.877-5.321-42.037-10.188-61.5-18.056-10.802-1.075-21.604-.906-32.462-.906-12.614 0-25.284.566-37.84.114-23.764-2.038-45.207 2.943-66.877 10.075-26.367 9.905-53.979 17.489-82.611 22.357-18.896 2.434-28.622 2.151-40.16-7.585-7.755-48.08-7.302-96.105.339-144.072m-9.339-67.112c-23.15 20.216-37.13 45.074-40.866 74.517-.283-1.802-.962-5.357-3.396-9.762-13.131-4.971-12.169-5.357-9.452-24.648 25.797-64.639 76.838-109.467 152.33-131.937 67.795-19.641 132.817-10.358 192.744 23.319 50.418 26.716 86.573 62.941 108.352 107.599 14.42 1.868 28.67 3.735 42.921 5.66 14.873 7.132 28.953 7.132 35.11 7.132h42.241c-5.943 14.912-6.056 23.429-6.848 31.267-35.237-44.885-86.095-80.091-151.499-105.844-54.481-18.226-112.018-27.169-172.272-25.923-69.819 1.585-132.79 18.565-189.365 48.62m-53.658 242.718c-.113-13.838-.396-27.618-.509-41.399 15.142-10.415 32.039-10.245 59.52-10.245 20.349 0 37.869 1.132 55.275 4.415 26.688 61.582 77.432 104.882 152.685 126.22 106.552 32.829 214.067-29.942 248.057-115.919 17.35-2.207 34.473-4.528 51.879-6.735.566.028-.736-1.529 1.528.367 3.623 1.443 7.868 4.641 11.83 7.329 2.151 2.631 1.302 7.018 1.188 10.781-4.018 40.668-19.64 76.071-46.016 106.154-27.565 31.272-61.186 51.11-100.92 58.383-34.217.679-68.491.736-102.086 1.076h-84.484c-108.138-.17-208.126-62.148-247.947-140.427M10582.379 220.523c10.015-7.609 18.986-8.1 34.891-6.505 28.607 4.296 55.434 13.131 82.261 22.09 15.905 3.681 31.932 7.24 46.794 12.701 9.831 1.227 19.723 1.166 29.676 1.105 12.285-.062 24.753-1.105 36.731-.246 27.502 4.602 49.605-7.608 73.302-14.91 26.152-8.468 52.304-16.628 80.052-21.108 14.739-1.472 24.754 1.228 34.216 6.32 11.61 14.665 21.317 29.637 31.209 44.547.491 10.273.859 20.484 1.35 31.615v17.195c-10.444 18.53-19.538 38.104-32.375 57.187-10.505 9.081-19.477 9.449-36.793 7.24-22.532-3.436-44.389-8.897-65.939-15.033-20.814-5.768-41.934-11.044-61.214-19.573-9.892-1.166-19.784-.982-29.737-.982-11.855 0-23.772.613-35.566.123-23.943-2.209-45.37 3.19-67.043 10.922-26.766 10.737-54.881 18.96-84.101 24.237-18.666 2.638-27.392 2.331-38.082-8.223-8.406-49.629-7.915-99.196.368-148.702m-10.124-69.392c-25.096 22.748-40.252 50.527-44.302 83.276-.306-1.121-1.043-4.145-3.681-8.089-14.236-4.557-13.192-4.144-10.247-24.226 25.238-70.072 77.842-118.669 156.954-143.029 70.767-21.291 138.527-11.228 200.765 25.281 51.93 28.961 88.396 68.231 109.278 116.644 12.905 2.025 25.626 4.05 38.347 6.136 13.395 7.731 25.932 7.731 29.878 7.731h37.61c-6.442 13.672-6.565 20.411-7.424 26.413-32.743-48.658-82.422-86.823-147.87-114.742-53.605-19.757-110.524-29.452-170.389-28.102-70.234 1.718-133.043 20.126-188.919 52.707m-58.169 241.433c-.122-12.506-.429-24.951-.552-37.396 13.142-11.29 28.186-11.106 54.704-11.106 18.787 0 34.506 1.227 50.102 4.786 25.66 66.759 77.397 113.699 155.702 136.831 112.238 35.589 225.518-32.459 259.093-125.664 15.535-2.393 30.824-4.909 46.421-7.302.613-.468-.798-2.655 1.656-1.098 3.927 1.065 8.529 4.033 12.824 6.448 2.332 2.354 1.412 6.61 1.289 10.191-4.356 43.588-21.292 81.469-49.885 113.583-29.882 33.402-66.33 54.409-109.404 61.794-31.639.737-63.339.798-94.303 1.166h-75.22c-111.775-.184-214.713-67.373-252.427-152.233M11171.309 218.318c9.201-8.142 17.286-8.667 32.79-6.96 29.095 4.596 56.286 14.051 83.477 23.637 15.504 3.939 31.139 7.747 45.527 13.591 9.004 1.313 18.074 1.247 27.209 1.182 11.63-.066 23.458-1.182 34.76-.263 27.913 4.924 50.048-8.141 73.891-15.955 26.469-9.06 52.937-17.793 81.113-22.586 14.257-1.576 23.458 1.313 32.068 6.763 10.908 15.692 19.781 31.712 28.85 47.667.526 9.953.919 19.84 1.445 30.712v15.283c-9.661 19.828-17.877 40.773-30.098 61.192-9.726 9.717-17.811 10.111-34.825 7.748-22.595-3.677-44.468-9.521-66.013-16.086-20.756-6.172-41.841-11.819-60.956-20.945-9.07-1.247-18.14-1.051-27.275-1.051-11.171 0-22.407.657-33.512.132-24.105-2.364-45.518 3.414-67.194 11.687-27.126 11.49-55.695 20.288-85.447 25.934-18.459 2.824-26.281 2.495-36.204-8.798-8.995-51.027-8.47-101.988.394-152.884m-10.834-71.45c-26.853 25.033-43.071 55.451-47.404 91.186-.328-.507-1.116-3.049-3.94-6.577-15.232-4.184-14.116-3.05-10.964-23.845 24.733-74.98 78.75-126.981 161.13-153.047 73.451-22.783 143.685-12.015 208.009 27.051 53.295 30.99 90.043 73.011 110.115 124.814 11.536 2.167 22.876 4.334 34.215 6.566 12.061 8.273 23.204 8.273 25.154 8.273h33.427c-6.894 12.552-7.025 17.685-7.944 22.029-30.492-52.066-79.105-92.904-144.593-122.778-52.815-21.142-109.176-31.516-168.688-30.071-70.608 1.838-133.272 21.535-188.517 56.399m-62.243 240.273c-.131-11.305-.459-22.544-.591-33.783 11.336-12.081 24.707-11.884 50.355-11.884 17.376 0 31.469 1.314 45.431 5.122 24.729 71.435 77.363 121.662 158.427 146.415 117.371 38.081 235.859-34.732 269.059-134.466 13.896-2.56 27.529-5.252 41.491-7.813.656-.917-.854-3.672 1.773-2.422 4.202.724 9.126 3.484 13.722 5.653 2.495 2.103 1.51 6.242 1.379 9.659-4.662 46.225-22.783 86.343-53.38 120.29-31.975 35.326-70.975 57.389-117.066 64.877-29.31.788-58.686.853-87.274 1.247h-66.854c-115.058-.197-220.662-72.091-256.472-162.895M11759.743 216.334c8.47-8.62 15.757-9.177 30.9-7.369 29.535 4.867 57.053 14.878 84.572 25.028 15.143 4.172 30.426 8.204 44.387 14.392 8.261 1.39 16.591 1.321 24.99 1.251 11.042-.069 22.292-1.251 32.985-.278 28.284 5.214 50.449-8.621 74.422-16.894 26.754-9.594 53.507-18.841 82.069-23.916 13.822-1.669 22.291 1.39 30.135 7.161 10.276 16.616 18.398 33.58 26.728 50.474.556 9.665.973 19.261 1.529 29.9v13.562c-8.955 20.996-16.382 43.174-28.049 64.796-9.025 10.289-16.312 10.706-33.055 8.204-22.652-3.894-44.539-10.081-66.078-17.034-20.705-6.535-41.758-12.514-60.725-22.178-8.33-1.321-16.66-1.112-25.06-1.112-10.555 0-21.179.695-31.664.139-24.251-2.503-45.652 3.615-67.33 12.375-27.449 12.167-56.428 21.483-86.658 27.462-18.272 2.989-25.281 2.642-34.515-9.316-9.524-52.285-8.968-104.501.417-156.647m-11.471-73.301c-28.435 27.09-45.607 59.88-50.196 98.303-.348.045-1.182-2.065-4.171-5.218-16.13-3.848-14.948-2.065-11.611-23.502 24.28-79.396 79.566-134.459 164.887-162.059 75.866-24.125 148.325-12.723 214.527 28.643 54.522 32.815 91.524 77.31 110.867 132.164 10.305 2.295 20.402 4.589 30.498 6.953 10.862 8.76 20.75 8.76 20.904 8.76h29.664c-7.3 11.544-7.439 15.232-8.412 18.086-28.467-55.132-76.121-98.376-141.644-130.009-52.104-22.387-107.963-33.371-167.158-31.842-70.945 1.947-133.478 22.804-188.155 59.721m-65.908 239.228c-.139-10.223-.487-20.377-.626-30.53 9.71-12.793 21.576-12.584 46.442-12.584 16.107 0 28.737 1.39 41.228 5.423 23.893 75.641 77.334 128.827 160.878 155.037 121.991 40.324 245.164-36.778 278.025-142.384 12.422-2.711 24.565-5.562 37.057-8.273.695-1.321-.904-4.588 1.877-3.614 4.449.418 9.664 2.991 14.53 4.939 2.642 1.877 1.599 5.91 1.46 9.179-4.936 48.597-24.124 90.729-56.522 126.326-33.858 37.057-75.155 60.069-123.961 67.648-27.215.834-54.499.904-80.949 1.321h-59.328c-118.012-.208-226.013-76.337-260.111-172.488M12347.727 214.553c7.812-9.052 14.383-9.636 29.202-7.738 29.929 5.11 57.742 15.621 85.555 26.279 14.819 4.38 29.785 8.613 43.363 15.11 7.593 1.46 15.258 1.387 22.997 1.314 10.512-.073 21.244-1.314 31.391-.292 28.616 5.475 50.808-9.051 74.898-17.738 27.01-10.074 54.019-19.782 82.927-25.111 13.432-1.752 21.244 1.46 28.399 7.519 9.709 17.446 17.156 35.257 24.821 52.995.584 9.408 1.022 18.742 1.606 29.171v12.016c-8.322 22.045-15.039 45.331-26.208 68.033-8.396 10.804-14.967 11.242-31.465 8.614-22.703-4.088-44.603-10.584-66.138-17.884-20.659-6.862-41.683-13.14-60.517-23.286-7.666-1.387-15.331-1.168-23.07-1.168-10.001 0-20.076.73-30.004.146-24.382-2.628-45.771 3.796-67.452 12.993-27.74 12.775-57.086 22.556-87.745 28.834-18.104 3.139-24.383 2.774-32.998-9.781-10-53.415-9.416-106.757.438-160.026m-12.044-74.966c-29.856 28.938-47.886 63.86-52.704 104.696-.365.542-1.241-1.18-4.38-3.996-16.935-3.546-15.694-1.18-12.19-23.194 23.871-83.362 80.299-141.176 168.262-170.156 78.035-25.329 152.493-13.358 220.381 30.075 55.625 34.455 92.855 81.172 111.544 138.767 9.199 2.409 18.179 4.818 27.159 7.3 9.783 9.197 18.544 9.197 17.085 9.197h26.283c-7.664 10.639-7.81 13.029-8.832 14.543-26.647-57.886-73.441-103.29-138.995-136.503-51.465-23.505-106.873-35.039-165.784-33.433-71.248 2.044-133.663 23.943-187.829 62.704m-69.201 238.291c-.146-9.252-.511-18.431-.657-27.61 8.25-13.431 18.764-13.212 42.927-13.212 14.966 0 26.283 1.46 37.453 5.694 23.141 79.42 77.307 135.263 163.08 162.782 126.14 42.339 253.521-38.615 286.079-149.497 11.097-2.847 21.903-5.84 33.073-8.686.73-1.683-.949-5.41 1.971-4.683 4.672.142 10.146 2.547 15.256 4.295 2.774 1.675 1.679 5.613 1.533 8.749-5.183 50.729-25.33 94.669-59.346 131.747-35.55 38.612-78.91 62.478-130.153 70.139-25.333.876-50.739.949-75.269 1.387h-52.566c-120.667-.219-230.822-80.15-263.381-181.105M12935.306 212.952c7.221-9.438 13.148-10.047 27.676-8.068 30.285 5.328 58.362 16.289 86.439 27.402 14.528 4.567 29.208 8.982 42.442 15.756 6.993 1.522 14.062 1.446 21.207 1.37 10.037-.076 20.303-1.37 29.96-.304 28.914 5.708 51.13-9.439 75.325-18.497 27.24-10.504 54.479-20.627 83.698-26.184 13.082-1.827 20.303 1.522 26.839 7.84 9.2 18.192 16.041 36.764 23.109 55.261.609 9.175 1.066 18.274 1.675 28.515v10.628c-7.754 22.988-13.833 47.269-24.556 70.941-7.83 11.265-13.757 11.722-30.035 8.982-22.749-4.263-44.661-11.037-66.192-18.649-20.617-7.155-41.616-13.701-60.33-24.281-7.069-1.446-14.138-1.218-21.283-1.218-9.504 0-19.085.761-28.513.152-24.5-2.74-45.878 3.959-67.562 13.549-28 13.321-57.676 23.52-88.721 30.066-17.954 3.273-23.576 2.893-31.635-10.199-10.428-54.43-9.819-108.784.457-163.062m-12.559-76.46c-31.132 30.597-49.933 67.435-54.957 110.439-.38.987-1.294-.385-4.567-2.899-17.659-3.275-16.365-.385-12.711-22.918 23.505-86.925 80.958-147.209 171.293-177.428 79.984-26.412 156.238-13.929 225.641 31.36 56.616 35.928 94.05 84.642 112.151 144.698 8.205 2.512 16.182 5.024 24.16 7.612 8.814 9.591 16.563 9.591 13.655 9.591h23.247c-7.993 9.825-8.145 11.05-9.211 11.361-25.012-60.361-71.032-107.706-136.614-142.339-50.892-24.509-105.895-36.536-164.55-34.861-71.52 2.131-133.829 24.966-187.537 65.384m-72.159 237.449c-.152-8.38-.533-16.683-.685-24.986 6.939-14.006 16.237-13.777 39.77-13.777 13.941 0 24.077 1.522 34.061 5.937 22.467 82.815 77.283 141.044 165.058 169.74 129.867 44.148 261.029-40.266 293.315-155.887 9.907-2.968 19.51-6.089 29.494-9.058.761-2.008-.99-6.147 2.055-5.644 4.871-.105 10.58 2.149 15.908 3.719 2.893 1.493 1.751 5.346 1.599 8.361-5.405 52.644-26.413 98.209-61.883 136.618-37.069 40.009-82.282 64.641-135.716 72.376-23.642.913-47.361.99-70.165 1.446h-46.493c-123.051-.228-235.14-83.576-266.318-188.845M13522.522 211.514c6.691-9.787 12.039-10.418 26.306-8.366 30.603 5.524 58.917 16.889 87.232 28.411 14.267 4.736 28.691 9.313 41.616 16.337 6.453 1.579 12.986 1.5 19.597 1.421 9.61-.079 19.457-1.421 28.673-.316 29.183 5.919 51.42-9.786 75.71-19.178 27.446-10.891 54.892-21.387 84.391-27.149 12.767-1.894 19.457 1.579 25.437 8.129 8.742 18.862 15.038 38.119 21.57 57.297.631 8.967 1.105 17.855 1.736 27.926v9.381c-7.242 23.834-12.749 49.01-23.069 73.554-7.322 11.68-12.67 12.154-28.752 9.313-22.79-4.42-44.712-11.444-66.239-19.336-20.581-7.419-41.556-14.206-60.163-25.176-6.532-1.499-13.064-1.263-19.676-1.263-9.058 0-18.194.79-27.173.158-24.605-2.841-45.975 4.104-67.66 14.048-28.236 13.811-58.208 24.387-89.6 31.174-17.818 3.394-22.851 2.999-30.409-10.575-10.812-55.343-10.181-110.606.473-165.79m-13.022-77.804c-32.278 32.089-51.772 70.649-56.981 115.601-.394 1.388-1.341.329-4.735-1.913-18.309-3.031-16.968.33-13.18-22.669 23.176-90.128 81.55-152.633 174.019-183.965 81.735-27.385 159.602-14.442 230.367 32.516 57.507 37.25 95.125 87.76 112.697 150.029 7.313 2.604 14.388 5.208 21.464 7.892 7.944 9.944 14.783 9.944 10.573 9.944h20.517c-8.287 9.094-8.445 9.271-9.55 8.5-23.543-62.584-68.868-111.673-134.476-147.582-50.376-25.412-105.014-37.882-163.44-36.146-71.764 2.21-133.978 25.886-187.275 67.793m-74.817 236.692c-.158-7.595-.552-15.112-.71-22.628 5.76-14.521 13.967-14.284 36.932-14.284 13.021 0 22.096 1.578 31.013 6.155 21.86 85.866 77.261 146.241 166.836 175.994 133.217 45.774 267.777-41.749 299.818-161.63 8.838-3.078 17.36-6.314 26.277-9.392.789-2.3-1.026-6.811 2.131-6.507 5.051-.328 10.97 1.791 16.495 3.199 2.999 1.33 1.815 5.106 1.657 8.014-5.604 54.365-27.386 101.39-64.163 140.996-38.434 41.263-85.313 66.585-140.716 74.386-22.122.947-44.324 1.026-65.578 1.5h-41.034c-125.193-.237-239.022-86.656-268.958-195.803M14109.415 210.22c6.213-10.099 11.041-10.751 25.073-8.633 30.89 5.701 59.418 17.429 87.946 29.319 14.031 4.887 28.225 9.611 40.872 16.859 5.969 1.629 12.018 1.547 18.15 1.466 9.226-.082 18.696-1.466 27.515-.326 29.424 6.108 51.681-10.099 76.056-19.791 27.632-11.239 55.264-22.071 85.014-28.016 12.484-1.955 18.697 1.629 24.177 8.389 8.33 19.465 14.135 39.337 20.185 59.127.652 8.78 1.14 17.478 1.792 27.397v8.258c-6.783 24.596-11.774 50.576-21.733 75.905-6.864 12.054-11.693 12.542-27.597 9.61-22.827-4.56-44.758-11.809-66.283-19.953-20.546-7.656-41.5-14.66-60.011-25.98-6.05-1.548-12.1-1.304-18.231-1.304-8.656 0-17.393.815-25.968.163-24.7-2.932-46.061 4.235-67.748 14.497-28.447 14.253-58.686 25.166-90.39 32.17-17.696 3.502-22.199 3.095-29.307-10.913-11.158-56.163-10.506-112.244.488-168.244m-13.438-79.012c-33.31 33.43-53.427 73.538-58.802 120.243-.407 1.749-1.384.973-4.886-1.025-18.895-2.813-17.511.972-13.601-22.446 22.879-93.008 82.082-157.511 176.469-189.844 83.31-28.261 162.629-14.904 234.619 33.555 58.307 38.441 96.091 90.565 113.188 154.823 6.509 2.688 12.774 5.376 19.039 8.145 7.161 10.261 13.181 10.261 7.8 10.261h18.062c-8.552 8.438-8.714 7.672-9.855 5.928-22.221-64.584-66.921-115.242-132.552-152.298-49.913-26.225-104.223-39.093-162.443-37.301-71.983 2.28-134.112 26.713-187.038 69.959m-77.208 236.011c-.163-6.89-.57-13.698-.733-20.507 4.7-14.985 11.925-14.741 34.38-14.741 12.192 0 20.313 1.629 28.271 6.353 21.314 88.61 77.242 150.914 168.435 181.618 136.231 47.237 273.846-43.083 305.667-166.796 7.876-3.176 15.426-6.515 23.384-9.691.815-2.564-1.059-7.409 2.199-7.285 5.213-.528 11.321 1.469 17.022 2.733 3.095 1.183 1.873 4.89 1.71 7.701-5.782 55.913-28.261 104.251-66.213 144.933-39.663 42.393-88.04 68.334-145.213 76.195-20.756.977-41.593 1.059-61.453 1.547h-36.124c-127.121-.244-242.513-89.424-271.332-202.06M14696.019 209.055c5.783-10.38 10.143-11.05 23.962-8.873 31.149 5.859 59.869 17.914 88.589 30.136 13.82 5.023 27.807 9.878 40.203 17.329 5.532 1.674 11.148 1.59 16.847 1.507 8.881-.084 18.012-1.507 26.474-.335 29.641 6.278 51.916-10.381 76.367-20.342 27.799-11.553 55.599-22.687 85.575-28.798 12.229-2.009 18.012 1.675 23.042 8.623 7.959 20.007 13.324 40.433 18.939 60.775.67 8.611 1.172 17.138 1.842 26.921v7.247c-6.369 25.282-10.896 51.986-20.53 78.021-6.453 12.39-10.813 12.892-26.558 9.878-22.86-4.688-44.8-12.138-66.321-20.51-20.516-7.869-41.452-15.068-59.875-26.704-5.616-1.591-11.232-1.339-16.931-1.339-8.294 0-16.672.837-24.883.167-24.786-3.014-46.14 4.353-67.828 14.901-28.637 14.65-59.115 25.867-91.101 33.067-17.586 3.599-21.611 3.181-28.315-11.218-11.469-56.901-10.799-113.719.502-170.453m-13.813-80.098c-34.238 34.637-54.916 76.138-60.441 124.421-.418 2.073-1.423 1.55-5.022-.228-19.422-2.615-17.999 1.551-13.98-22.244 22.612-95.6 82.561-161.901 178.674-195.135 84.728-29.049 165.354-15.32 238.446 34.49 59.028 39.512 96.96 93.089 113.629 159.138 5.787 2.763 11.322 5.526 16.858 8.372 6.456 10.548 11.74 10.548 5.304 10.548h15.853c-8.79 7.845-8.958 6.231-10.13 3.612-21.032-66.384-65.169-118.454-130.821-156.543-49.495-26.956-103.51-40.183-161.544-38.341-72.181 2.344-134.233 27.458-186.826 71.91m-79.36 235.397c-.167-6.255-.586-12.426-.753-18.597 3.746-15.403 10.087-15.152 32.082-15.152 11.448 0 18.709 1.674 25.804 6.529 20.823 91.08 77.225 155.121 169.874 186.681 138.943 48.553 279.308-44.285 310.931-171.445 7.011-3.265 13.686-6.697 20.781-9.962.837-2.801-1.088-7.945 2.26-7.983 5.358-.708 11.636 1.179 17.496 2.313 3.181 1.05 1.926 4.695 1.758 7.419-5.943 57.306-29.048 106.826-68.059 148.476-40.768 43.409-90.494 69.908-149.26 77.823-19.526 1.004-39.135 1.088-57.74 1.59h-31.705c-128.855-.251-245.655-91.917-273.469-207.692M15282.363 208.007c5.396-10.634 9.335-11.32 22.963-9.09 31.381 6.002 60.274 18.351 89.168 30.872 13.629 5.145 27.429 10.119 39.6 17.752 5.139 1.715 10.364 1.629 15.674 1.543 8.569-.085 17.396-1.543 25.536-.343 29.837 6.432 52.127-10.634 76.647-20.839 27.951-11.834 55.901-23.24 86.081-29.5 11.999-2.058 17.395 1.715 22.02 8.833 7.625 20.496 12.593 41.42 17.818 62.259.686 8.459 1.2 16.832 1.886 26.491v6.339c-5.996 25.898-10.106 53.255-19.447 79.925-6.082 12.692-10.021 13.207-25.622 10.119-22.89-4.802-44.838-12.434-66.356-21.01-20.49-8.061-41.408-15.436-59.753-27.357-5.225-1.629-10.449-1.372-15.76-1.372-7.969 0-16.023.858-23.907.172-24.863-3.087-46.209 4.459-67.899 15.265-28.808 15.007-59.503 26.498-91.741 33.874-17.488 3.687-21.083 3.258-27.422-11.492-11.749-57.566-11.063-115.047.514-172.441m-14.15-81.078c-35.074 35.724-56.256 78.481-61.916 128.183-.429 2.365-1.458 2.071-5.146.491-19.895-2.437-18.437 2.072-14.321-22.062 22.373-97.935 82.993-165.854 180.66-199.9 86.005-29.757 167.807-15.693 241.891 35.332 59.677 40.477 97.743 95.362 114.028 163.024 5.135 2.83 10.014 5.66 14.892 8.576 5.822 10.805 10.443 10.805 3.058 10.805h13.863c-9.004 7.313-9.176 4.935-10.376 1.528-19.962-68.005-63.593-121.346-129.263-160.365-49.119-27.614-102.869-41.164-160.736-39.277-72.359 2.401-134.342 28.128-186.634 73.665m-81.297 234.846c-.172-5.683-.601-11.281-.772-16.879 2.887-15.779 8.432-15.522 30.014-15.522 10.776 0 17.265 1.716 23.582 6.689 20.382 93.304 77.209 158.908 171.17 191.238 141.384 49.739 284.226-45.365 315.67-175.63 6.232-3.344 12.12-6.86 18.437-10.205.858-3.014-1.115-8.429 2.316-8.613 5.488-.87 11.92.918 17.923 1.935 3.259.931 1.972 4.52 1.801 7.166-6.089 58.56-29.758 109.144-69.721 151.667-41.763 44.323-92.703 71.324-152.904 79.287-18.418 1.029-36.922 1.115-54.397 1.63h-27.727c-130.416-.258-248.484-94.161-275.392-212.763M15868.474 207.063c5.047-10.862 8.606-11.563 22.063-9.285 31.59 6.131 60.639 18.745 89.689 31.534 13.457 5.256 27.089 10.337 39.057 18.133 4.785 1.752 9.658 1.664 14.618 1.577 8.289-.088 16.841-1.577 24.692-.351 30.013 6.57 52.318-10.862 76.9-21.286 28.085-12.088 56.171-23.738 86.535-30.133 11.792-2.102 16.84 1.752 21.1 9.022 7.325 20.936 11.935 42.31 16.808 63.596.701 8.322 1.226 16.556 1.927 26.104v5.52c-5.661 26.454-9.395 54.397-18.472 81.64-5.749 12.964-9.308 13.49-24.78 10.336-22.917-4.905-44.871-12.701-66.387-21.461-20.465-8.234-41.368-15.767-59.643-27.943-4.873-1.664-9.746-1.402-14.706-1.402-7.676 0-15.439.876-23.027.176-24.933-3.154-46.274 4.555-67.965 15.592-28.962 15.329-59.851 27.067-92.316 34.6-17.399 3.767-20.608 3.329-26.619-11.737-12.001-58.165-11.3-116.243.526-174.232m-14.454-81.959c-35.827 36.703-57.463 80.589-63.245 131.57-.438 2.628-1.489 2.54-5.256 1.138-20.322-2.278-18.833 2.54-14.628-21.9 22.156-100.035 83.381-169.412 182.448-204.188 87.153-30.396 170.015-16.03 244.992 36.09 60.262 41.346 98.448 97.408 114.386 166.522 4.549 2.89 8.836 5.781 13.123 8.759 5.251 11.037 9.275 11.037 1.036 11.037h12.072c-9.198 6.833-9.373 3.768-10.599-.348-18.998-69.465-62.173-123.95-127.86-163.806-48.78-28.206-102.291-42.047-160.007-40.12-72.52 2.453-134.44 28.732-186.462 75.246m-83.042 234.349c-.175-5.169-.613-10.25-.788-15.331 2.113-16.118 6.942-15.855 28.152-15.855 10.172 0 15.965 1.752 21.582 6.832 19.983 95.306 77.195 162.317 172.337 195.341 143.582 50.806 288.653-46.339 319.937-179.398 5.529-3.416 10.709-7.008 16.326-10.424.876-3.206-1.139-8.865 2.365-9.18 5.606-1.016 12.176.684 18.308 1.595 3.329.823 2.015 4.362 1.839 6.938-6.219 59.688-30.396 111.23-71.216 154.538-42.659 45.148-94.692 72.601-156.185 80.607-17.421 1.051-34.93 1.139-51.387 1.664h-24.145c-131.823-.262-251.031-96.181-277.125-217.327M16454.373 206.213c4.734-11.067 7.951-11.781 21.254-9.46 31.778 6.247 60.968 19.1 90.157 32.131 13.303 5.355 26.784 10.531 38.57 18.475 4.466 1.785 9.022 1.696 13.667 1.606 8.037-.089 16.342-1.606 23.932-.357 30.172 6.694 52.489-11.067 77.127-21.688 28.208-12.317 56.415-24.187 86.944-30.703 11.607-2.142 16.341 1.785 20.272 9.193 7.055 21.332 11.344 43.109 15.9 64.798.714 8.198 1.249 16.308 1.963 25.756v4.783c-5.359 26.954-8.755 55.426-17.595 83.183-5.448 13.21-8.665 13.745-24.021 10.532-22.942-4.998-44.902-12.941-66.416-21.867-20.443-8.389-41.332-16.065-59.544-28.471-4.556-1.696-9.112-1.428-13.757-1.428-7.412 0-14.913.892-22.236.178-24.995-3.213-46.33 4.641-68.023 15.887-29.1 15.619-60.164 27.579-92.834 35.255-17.319 3.838-20.18 3.392-25.896-11.96-12.227-58.703-11.513-117.318.536-175.843m-14.727-82.752c-36.504 37.584-58.55 82.486-64.44 134.618-.447 2.864-1.518 2.962-5.355 1.721-20.707-2.134-19.19 2.961-14.906-21.753 21.963-101.927 83.731-172.615 184.057-208.048 88.188-30.971 172.002-16.333 247.784 36.772 60.787 42.127 99.082 99.249 114.708 169.669 4.022 2.945 7.777 5.891 11.532 8.925 4.736 11.246 8.223 11.246-.785 11.246h10.46c-9.371 6.402-9.55 2.718-10.799-2.038-18.131-70.777-60.895-126.292-126.597-166.902-48.476-28.739-101.772-42.841-159.352-40.878-72.664 2.5-134.528 29.275-186.307 76.668m-84.611 233.902c-.179-4.705-.625-9.322-.804-13.938 1.418-16.423 5.602-16.155 26.477-16.155 9.628 0 14.795 1.785 19.782 6.962 19.625 97.106 77.183 165.385 173.386 199.033 145.561 51.766 292.638-47.215 323.777-182.789 4.898-3.481 9.44-7.141 14.427-10.621.893-3.379-1.16-9.257 2.41-9.69 5.712-1.148 12.406.472 18.654 1.288 3.392.727 2.053 4.221 1.874 6.733-6.337 60.704-30.97 113.109-72.562 157.123-43.466 45.889-96.482 73.748-159.137 81.794-16.524 1.071-33.138 1.16-48.68 1.696h-20.921c-133.088-.268-253.323-97.999-278.683-221.436M17040.08 205.45c4.453-11.252 7.363-11.978 20.527-9.619 31.947 6.352 61.263 19.419 90.578 32.667 13.164 5.444 26.51 10.707 38.131 18.783 4.18 1.815 8.451 1.725 12.813 1.634 7.81-.091 15.893-1.634 23.249-.363 30.314 6.805 52.643-11.252 77.331-22.05 28.317-12.523 56.635-24.591 87.312-31.215 11.439-2.178 15.892 1.815 19.528 9.346 6.812 21.687 10.811 43.828 15.082 65.878.726 8.088 1.27 16.086 1.996 25.445v4.12c-5.088 27.404-8.179 56.35-16.806 84.571-5.178 13.429-8.088 13.974-23.339 10.707-22.964-5.082-44.93-13.157-66.442-22.232-20.423-8.529-41.3-16.333-59.454-28.946-4.272-1.724-8.543-1.452-12.905-1.452-7.175 0-14.44.907-21.524.182-25.051-3.267-46.382 4.718-68.075 16.152-29.225 15.879-60.447 28.039-93.301 35.842-17.247 3.902-19.794 3.448-25.245-12.159-12.432-59.188-11.706-118.285.544-177.291m-14.972-83.465c-37.113 38.375-59.526 84.191-65.515 137.357-.454 3.077-1.543 3.341-5.445 2.244-21.052-2.004-19.509 3.341-15.154-21.621 21.788-103.626 84.046-175.493 185.504-211.517 89.117-31.488 173.788-16.606 250.293 37.385 61.26 42.83 99.653 100.904 114.997 172.499 3.549 2.995 6.825 5.989 10.101 9.074 4.275 11.434 7.278 11.434-2.421 11.434h9.012c-9.528 6.013-9.71 1.773-10.98-3.556-17.351-71.958-59.746-128.399-125.461-169.687-48.203-29.218-101.306-43.555-158.764-41.559-72.793 2.541-134.607 29.763-186.167 77.947m-86.023 233.5c-.181-4.29-.635-8.488-.816-12.687.791-16.696 4.396-16.424 24.969-16.424 9.14 0 13.743 1.815 18.165 7.078 19.303 98.726 77.171 168.143 174.33 202.353 147.338 52.629 296.22-48.003 327.229-185.838 4.33-3.539 8.298-7.26 12.719-10.799.908-3.534-1.179-9.608 2.45-10.148 5.808-1.265 12.613.282 18.965 1.013 3.448.64 2.087 4.093 1.906 6.548-6.443 61.618-31.487 114.797-73.773 159.447-44.191 46.555-98.091 74.781-161.791 82.861-15.718 1.089-31.526 1.18-46.245 1.725h-18.023c-134.226-.273-255.384-99.634-280.085-225.129M17625.613 204.764c4.2-11.417 6.834-12.154 19.873-9.76 32.099 6.445 61.528 19.705 90.957 33.148 13.039 5.525 26.263 10.865 37.736 19.06 3.924 1.842 7.939 1.749 12.047 1.657 7.607-.092 15.489-1.657 22.636-.368 30.441 6.906 52.78-11.418 77.513-22.375 28.416-12.707 56.833-24.953 87.643-31.674 11.289-2.21 15.489 1.841 18.86 9.484 6.594 22.006 10.333 44.473 14.348 66.848.737 7.989 1.29 15.886 2.026 25.164v3.525c-4.844 27.807-7.663 57.18-16.098 85.816-4.936 13.628-7.571 14.18-22.727 10.865-22.984-5.156-44.955-13.351-66.465-22.559-20.405-8.655-41.271-16.574-59.374-29.372-4.016-1.75-8.031-1.474-12.139-1.474-6.962 0-14.016.921-20.886.185-25.101-3.315-46.427 4.788-68.122 16.389-29.337 16.114-60.699 28.452-93.719 36.371-17.183 3.959-19.449 3.499-24.661-12.338-12.615-59.623-11.878-119.153.552-178.592m-15.193-84.105c-37.66 39.086-60.403 85.723-66.48 139.818-.46 3.267-1.565 3.681-5.524 2.713-21.362-1.888-19.797 3.682-15.377-21.502 21.63-105.153 84.327-178.078 186.802-214.633 89.952-31.951 175.392-16.85 252.545 37.936 61.684 43.461 100.165 102.39 115.258 175.04 3.123 3.038 5.969 6.077 8.816 9.207 3.859 11.602 6.43 11.602-3.891 11.602h7.711c-9.668 5.665-9.852.926-11.141-4.919-16.65-73.018-58.714-130.29-124.442-172.185-47.957-29.649-100.886-44.197-158.235-42.172-72.91 2.579-134.678 30.202-186.042 79.095m-87.289 233.139c-.185-3.916-.645-7.739-.829-11.563.23-16.942 3.314-16.666 23.617-16.666 8.702 0 12.799 1.842 16.712 7.182 19.014 100.181 77.161 170.62 175.177 205.333 148.936 53.405 299.436-48.709 330.328-188.575 3.821-3.591 7.274-7.366 11.187-10.957.921-3.673-1.197-9.925 2.486-10.56 5.893-1.371 12.799.112 19.245.766 3.498.562 2.117 3.979 1.933 6.382-6.537 62.439-31.951 116.314-74.859 161.533-44.842 47.154-99.536 75.708-164.174 83.82-14.993 1.105-30.078 1.197-44.059 1.75h-15.422c-135.246-.277-257.234-101.102-281.342-228.445M18210.986 204.15c3.973-11.566 6.361-12.312 19.288-9.887 32.235 6.529 61.766 19.961 91.296 33.579 12.927 5.596 26.041 11.006 37.383 19.308 3.693 1.865 7.48 1.772 11.36 1.679 7.424-.094 15.128-1.679 22.086-.373 30.556 6.995 52.905-11.566 77.678-22.666 28.504-12.872 57.008-25.278 87.938-32.087 11.155-2.238 15.128 1.866 18.262 9.608 6.398 22.292 9.905 45.051 13.691 67.717.747 7.9 1.306 15.707 2.052 24.912v2.993c-4.626 28.169-7.2 57.924-15.463 86.932-4.72 13.805-7.107 14.364-22.18 11.007-23.001-5.224-44.976-13.525-66.485-22.853-20.389-8.768-41.245-16.789-59.302-29.754-3.787-1.773-7.574-1.493-11.453-1.493-6.772 0-13.636.933-20.314.187-25.147-3.358-46.469 4.85-68.164 16.603-29.437 16.323-60.926 28.822-94.094 36.843-17.125 4.011-19.14 3.545-24.139-12.499-12.778-60.012-12.032-119.93.56-179.756m-15.39-84.678c-38.15 39.722-61.188 87.094-67.345 142.02-.466 3.439-1.585 3.987-5.596 3.135-21.64-1.784-20.054 3.987-15.577-21.396 21.49-106.52 84.58-180.393 187.965-217.423 90.7-32.366 176.829-17.069 254.564 38.429 62.064 44.026 100.623 103.721 115.49 177.315 2.742 3.078 5.204 6.156 7.666 9.328 3.487 11.752 5.669 11.752-5.207 11.752h6.546c-9.794 5.353-9.98.166-11.286-6.14-16.023-73.967-57.791-131.984-123.529-174.424-47.737-30.034-100.511-44.771-157.761-42.719-73.015 2.611-134.742 30.594-185.93 80.123m-88.425 232.815c-.186-3.58-.653-7.068-.839-10.556-.273-17.162 2.345-16.882 22.406-16.882 8.308 0 11.953 1.865 15.41 7.275 18.755 101.483 77.152 172.838 175.937 208.003 150.365 54.099 302.316-49.343 333.103-191.027 3.365-3.638 6.357-7.462 9.814-11.1.933-3.798-1.212-10.208 2.519-10.928 5.969-1.467 12.965-.042 19.494.544 3.545.492 2.146 3.876 1.959 6.234-6.623 63.173-32.366 117.671-75.832 163.402-45.425 47.689-100.83 76.537-166.309 84.678-14.344 1.119-28.782 1.212-42.1 1.772h-13.092c-136.162-.28-258.891-102.416-282.47-231.415M18796.212 203.602c3.771-11.699 5.938-12.454 18.766-10.001 32.356 6.604 61.977 20.19 91.598 33.964 12.828 5.661 25.844 11.133 37.068 19.529 3.488 1.887 7.07 1.793 10.746 1.698 7.262-.094 14.806-1.698 21.596-.377 30.658 7.076 53.015-11.699 77.824-22.926 28.583-13.019 57.167-25.567 88.203-32.454 11.035-2.264 14.805 1.887 17.727 9.718 6.224 22.548 9.523 45.568 13.105 68.493.754 7.821 1.32 15.547 2.075 24.688v2.517c-4.431 28.492-6.786 58.587-14.897 87.928-4.525 13.963-6.692 14.529-21.69 11.133-23.017-5.283-44.996-13.68-66.503-23.114-20.375-8.869-41.222-16.982-59.239-30.096-3.582-1.792-7.164-1.509-10.84-1.509-6.601 0-13.297.943-19.803.188-25.187-3.396-46.506 4.906-68.202 16.793-29.526 16.511-61.128 29.153-94.429 37.266-17.073 4.057-18.862 3.585-23.671-12.642-12.925-60.36-12.17-120.625.566-180.796m-15.566-85.191c-38.587 40.291-61.89 88.319-68.117 143.989-.471 3.592-1.603 4.259-5.66 3.511-21.888-1.692-20.284 4.259-15.756-21.302 21.365-107.74 84.806-182.461 189.004-219.915 91.368-32.738 178.112-17.265 256.366 38.869 62.404 44.531 101.033 104.911 115.699 179.348 2.401 3.113 4.519 6.227 6.637 9.434 3.156 11.888 4.991 11.888-6.382 11.888h5.506c-9.906 5.074-10.095-.512-11.416-7.231-15.463-74.815-56.965-133.496-122.714-176.423-47.54-30.379-100.174-45.285-157.338-43.209-73.107 2.641-134.799 30.944-185.829 81.041m-89.438 232.527c-.189-3.282-.661-6.469-.849-9.657-.723-17.359 1.479-17.076 21.324-17.076 7.957 0 11.197 1.887 14.248 7.359 18.524 102.646 77.143 174.819 176.614 210.387 151.643 54.719 304.889-49.908 335.583-193.217 2.957-3.679 5.537-7.547 8.588-11.226.943-3.91-1.227-10.462 2.547-11.258 6.038-1.552 13.114-.178 19.718.346 3.585.43 2.17 3.785 1.981 6.101-6.698 63.829-32.737 118.884-76.701 165.071-45.946 48.168-101.986 77.278-168.215 85.445-13.765 1.132-27.625 1.226-40.352 1.792h-11.011c-136.978-.283-260.37-103.589-283.475-234.067M19381.304 203.114c3.59-11.817 5.561-12.579 18.3-10.102 32.465 6.671 62.166 20.393 91.868 34.307 12.739 5.717 25.668 11.244 36.787 19.726 3.305 1.906 6.705 1.81 10.2 1.715 7.117-.095 14.519-1.715 21.159-.381 30.75 7.147 53.114-11.817 77.955-23.157 28.653-13.151 57.307-25.825 88.437-32.781 10.929-2.288 14.519 1.905 17.252 9.815 6.069 22.775 9.183 46.027 12.583 69.184.762 7.75 1.334 15.404 2.096 24.488v2.094c-4.257 28.779-6.419 59.178-14.393 88.815-4.353 14.104-6.323 14.675-21.254 11.245-23.031-5.337-45.013-13.818-66.52-23.348-20.362-8.957-41.201-17.153-59.181-30.399-3.4-1.81-6.8-1.524-10.296-1.524-6.449 0-12.994.953-19.348.19-25.223-3.43-46.538 4.956-68.235 16.963-29.606 16.676-61.309 29.446-94.727 37.641-17.027 4.098-18.616 3.622-23.255-12.769-13.056-60.67-12.293-121.244.572-181.722m-15.724-85.647c-38.976 40.798-62.514 89.41-68.803 145.74-.477 3.728-1.62 4.501-5.718 3.846-22.108-1.609-20.488 4.501-15.914-21.218 21.252-108.827 85.006-184.3 189.928-222.133 91.962-33.067 179.254-17.439 257.969 39.262 62.706 44.979 101.398 105.968 115.885 181.156 2.098 3.145 3.91 6.29 5.722 9.53 2.861 12.007 4.388 12.007-7.427 12.007h4.579c-10.006 4.826-10.197-1.116-11.531-8.201-14.965-75.569-56.231-134.843-121.988-178.202-47.365-30.685-99.876-45.742-156.961-43.645-73.191 2.668-134.85 31.256-185.741 81.858m-90.34 232.27c-.191-3.015-.667-5.936-.858-8.856-1.122-17.535.71-17.249 20.362-17.249 7.644 0 10.524 1.906 13.214 7.433 18.318 103.681 77.136 176.582 177.217 212.509 152.779 55.271 307.179-50.412 337.789-195.165 2.595-3.716 4.807-7.624 7.497-11.34.953-4.009-1.239-10.687 2.573-11.551 6.099-1.627 13.246-.299 19.917.17 3.621.375 2.191 3.703 2.001 5.984-6.766 64.413-33.068 119.963-77.475 166.556-46.409 48.593-103.014 77.938-169.911 86.126-13.25 1.144-26.595 1.239-38.796 1.811h-9.159c-137.705-.286-261.687-104.634-284.371-236.428M19966.27 202.681c3.431-11.921 5.228-12.69 17.888-10.19 32.561 6.729 62.334 20.573 92.107 34.609 12.66 5.769 25.513 11.345 36.539 19.901 3.142 1.923 6.381 1.826 9.716 1.73 6.988-.096 14.265-1.73 20.773-.384 30.83 7.21 53.2-11.921 78.07-23.362 28.715-13.267 57.431-26.053 88.646-33.071 10.833-2.307 14.264 1.923 16.83 9.902 5.931 22.977 8.881 46.435 12.12 69.796.769 7.687 1.346 15.278 2.115 24.311v1.719c-4.104 29.033-6.093 59.701-13.946 89.6-4.2 14.229-5.997 14.805-20.869 11.344-23.043-5.383-45.029-13.94-66.534-23.553-20.351-9.037-41.183-17.305-59.131-30.668-3.239-1.827-6.478-1.538-9.813-1.538-6.315 0-12.726.961-18.946.192-25.254-3.461-46.567 4.999-68.264 17.112-29.677 16.824-61.468 29.707-94.991 37.975-16.986 4.134-18.398 3.653-22.887-12.883-13.171-60.943-12.402-121.79.577-182.542m-15.863-86.05c-39.32 41.246-63.066 90.375-69.411 147.291-.481 3.848-1.635 4.716-5.768 4.142-22.304-1.536-20.67 4.716-16.055-21.143 21.153-109.789 85.184-185.93 190.747-224.096 92.487-33.36 180.264-17.594 259.389 39.608 62.973 45.377 101.72 106.905 116.048 182.758 1.83 3.172 3.372 6.345 4.913 9.614 2.599 12.113 3.852 12.113-8.354 12.113h3.759c-10.094 4.607-10.286-1.65-11.632-9.06-14.524-76.237-55.581-136.035-121.346-179.778-47.21-30.956-99.612-46.146-156.628-44.031-73.264 2.692-134.895 31.533-185.662 82.582m-91.138 232.043c-.193-2.78-.673-5.464-.866-8.148-1.476-17.689.028-17.401 19.509-17.401 7.368 0 9.93 1.923 12.299 7.499 18.135 104.598 77.129 178.143 177.751 214.387 153.786 55.76 309.206-50.857 339.743-196.89 2.273-3.749 4.161-7.691 6.53-11.44.961-4.097-1.25-10.886 2.596-11.811 6.153-1.693 13.363-.407 20.093.015 3.653.325 2.211 3.631 2.018 5.879-6.825 64.929-33.359 120.918-78.159 167.87-46.819 48.971-103.925 78.523-171.414 86.731-12.793 1.154-25.682 1.25-37.417 1.827h-7.519c-138.349-.289-262.854-105.559-285.164-238.518M20551.12 202.301c3.291-12.013 4.935-12.788 17.526-10.269 32.645 6.781 62.481 20.732 92.317 34.876 12.591 5.813 25.376 11.432 36.32 20.054 3 1.938 6.097 1.841 9.291 1.744 6.875-.097 14.041-1.744 20.432-.387 30.901 7.266 53.277-12.013 78.172-23.542 28.77-13.369 57.54-26.254 88.829-33.326 10.75-2.326 14.041 1.937 16.46 9.978 5.81 23.154 8.616 46.793 11.713 70.334.775 7.632 1.356 15.167 2.131 24.156v1.389c-3.969 29.257-5.806 60.161-13.553 90.291-4.066 14.338-5.71 14.919-20.529 11.432-23.054-5.426-45.043-14.048-66.547-23.736-20.341-9.106-41.167-17.438-59.087-30.904-3.097-1.841-6.194-1.55-9.388-1.55-6.197 0-12.491.968-18.591.193-25.283-3.487-46.593 5.038-68.291 17.245-29.738 16.954-61.609 29.936-95.222 38.267-16.951 4.166-18.207 3.682-22.564-12.982-13.272-61.184-12.497-122.272.581-183.263m-15.985-86.405c-39.623 41.64-63.552 91.224-69.946 148.655-.485 3.954-1.647 4.905-5.813 4.403-22.476-1.471-20.829 4.905-16.179-21.077 21.067-110.636 85.341-187.364 191.468-225.825 92.95-33.617 181.154-17.729 260.639 39.914 63.209 45.727 102.004 107.73 116.192 184.167 1.594 3.197 2.897 6.394 4.2 9.688 2.369 12.207 3.382 12.207-9.169 12.207h3.038c-10.172 4.414-10.366-2.12-11.722-9.817-14.135-76.825-55.009-137.084-120.781-181.164-47.073-31.195-99.379-46.502-156.334-44.37-73.329 2.712-134.934 31.776-185.593 83.219m-91.841 231.843c-.194-2.573-.678-5.049-.872-7.525-1.788-17.826-.573-17.535 18.758-17.535 7.125 0 9.406 1.937 11.493 7.556 17.975 105.405 77.124 179.517 178.221 216.041 154.672 56.19 310.99-51.249 341.463-198.409 1.99-3.778 3.592-7.75 5.679-11.528.969-4.175-1.259-11.062 2.616-12.039 6.2-1.752 13.466-.502 20.248-.123 3.681.282 2.228 3.568 2.034 5.787-6.878 65.385-33.617 121.76-78.762 169.029-47.181 49.303-104.727 79.036-172.736 87.262-12.391 1.163-24.879 1.259-36.205 1.841h-6.075c-138.915-.291-263.88-106.374-285.862-240.357M21135.863 201.969c3.168-12.094 4.679-12.874 17.209-10.338 32.719 6.827 62.61 20.871 92.5 35.11 12.531 5.851 25.257 11.508 36.129 20.188 2.876 1.95 5.849 1.853 8.92 1.755 6.776-.097 13.846-1.755 20.135-.39 30.963 7.314 53.344-12.093 78.261-23.699 28.817-13.459 57.635-26.43 88.988-33.549 10.678-2.341 13.846 1.95 16.137 10.045 5.704 23.309 8.384 47.105 11.357 70.804.781 7.584 1.366 15.071 2.146 24.02v1.1c-3.851 29.454-5.556 60.565-13.211 90.895-3.948 14.434-5.458 15.019-20.232 11.509-23.064-5.462-45.055-14.142-66.558-23.895-20.333-9.167-41.153-17.554-59.048-31.111-2.973-1.853-5.946-1.56-9.017-1.56-6.094 0-12.285.975-18.282.195-25.306-3.511-46.615 5.071-68.313 17.36-29.793 17.067-61.731 30.136-95.425 38.523-16.92 4.194-18.04 3.706-22.281-13.069-13.361-61.395-12.581-122.693.585-183.893m-16.092-86.716c-39.888 41.985-63.977 91.967-70.414 149.848-.488 4.047-1.658 5.07-5.852 4.63-22.626-1.415-20.968 5.07-16.287-21.019 20.991-111.376 85.478-188.617 192.097-227.335 93.356-33.842 181.932-17.847 261.731 40.181 63.415 46.033 102.253 108.45 116.319 185.399 1.387 3.218 2.482 6.436 3.577 9.752 2.168 12.289 2.971 12.289-9.881 12.289h2.408c-10.241 4.244-10.436-2.532-11.801-10.478-13.796-77.338-54.509-138-120.286-182.375-46.955-31.403-99.177-46.813-156.079-44.667-73.385 2.731-134.968 31.989-185.532 83.775m-92.455 231.668c-.195-2.391-.683-4.686-.878-6.98-2.06-17.945-1.097-17.652 18.103-17.652 6.912 0 8.948 1.95 10.789 7.607 17.835 106.109 77.118 180.717 178.631 217.485 155.446 56.565 312.549-51.592 342.965-199.735 1.743-3.804 3.096-7.802 4.937-11.606.975-4.242-1.268-11.214 2.633-12.238 6.242-1.804 13.556-.584 20.383-.243 3.706.245 2.243 3.512 2.048 5.707-6.924 65.782-33.842 122.495-79.289 170.039-47.496 49.593-105.426 79.486-173.89 87.727-12.04 1.17-24.178 1.268-35.146 1.853h-4.814c-139.41-.292-264.777-107.084-286.472-241.964M21720.506 201.681c3.062-12.162 4.456-12.947 16.935-10.397 32.782 6.866 62.72 20.991 92.658 35.312 12.479 5.885 25.153 11.574 35.964 20.303 2.768 1.962 5.634 1.864 8.598 1.766 6.692-.098 13.677-1.766 19.878-.392 31.017 7.356 53.402-12.163 78.338-23.835 28.859-13.536 57.718-26.582 89.127-33.742 10.615-2.354 13.677 1.961 15.857 10.103 5.612 23.442 8.184 47.376 11.05 71.211.784 7.542 1.373 14.986 2.158 23.901v.852c-3.749 29.622-5.34 60.912-12.914 91.417-3.847 14.517-5.242 15.105-19.976 11.574-23.072-5.493-45.065-14.223-66.567-24.031-20.326-9.22-41.142-17.656-59.015-31.29-2.866-1.864-5.732-1.569-8.696-1.569-6.005 0-12.108.981-18.014.196-25.328-3.531-46.634 5.1-68.333 17.459-29.84 17.165-61.838 30.309-95.601 38.745-16.892 4.217-17.895 3.727-22.036-13.144-13.438-61.578-12.653-123.057.589-184.439m-16.185-86.983c-40.117 42.282-64.345 92.608-70.818 150.878-.491 4.127-1.668 5.213-5.886 4.828-22.756-1.367-21.088 5.212-16.38-20.97 20.925-112.015 85.596-189.7 192.641-228.64 93.705-34.037 182.604-17.95 262.675 40.411 63.592 46.297 102.467 109.073 116.428 186.463 1.209 3.237 2.124 6.474 3.039 9.809 1.994 12.359 2.614 12.359-10.497 12.359h1.862c-10.299 4.099-10.495-2.886-11.868-11.049-13.503-77.782-54.077-138.792-119.86-183.422-46.851-31.584-99-47.082-155.857-44.924-73.433 2.747-134.998 32.173-185.479 84.257m-92.986 231.516c-.196-2.235-.687-4.372-.883-6.509-2.296-18.048-1.551-17.753 17.536-17.753 6.728 0 8.552 1.961 10.18 7.65 17.714 106.719 77.115 181.755 178.987 218.734 156.114 56.891 313.896-51.888 344.263-200.882 1.53-3.825 2.667-7.847 4.295-11.672.981-4.3-1.275-11.347 2.648-12.411 6.278-1.848 13.634-.656 20.5-.346 3.728.212 2.256 3.464 2.06 5.637-6.964 66.126-34.036 123.13-79.745 170.914-47.768 49.843-106.031 79.873-174.888 88.128-11.737 1.177-23.572 1.275-34.23 1.864h-3.724c-139.838-.294-265.552-107.699-286.999-243.354M22305.054 201.436c2.972-12.222 4.268-13.01 16.702-10.448 32.837 6.9 62.815 21.093 92.793 35.484 12.434 5.914 25.065 11.63 35.824 20.403 2.676 1.971 5.45 1.872 8.323 1.774 6.619-.099 13.533-1.774 19.659-.394 31.062 7.392 53.451-12.223 78.403-23.952 28.894-13.602 57.788-26.711 89.245-33.906 10.561-2.366 13.533 1.971 15.617 10.152 5.535 23.557 8.014 47.607 10.788 71.558.789 7.507 1.38 14.915 2.169 23.802v.638c-3.662 29.767-5.155 61.209-12.661 91.863-3.76 14.587-5.056 15.179-19.757 11.63-23.079-5.519-45.073-14.291-66.575-24.148-20.319-9.265-41.131-17.742-58.986-31.442-2.775-1.873-5.549-1.577-8.422-1.577-5.929 0-11.956.985-17.786.197-25.346-3.548-46.651 5.125-68.35 17.544-29.88 17.249-61.928 30.457-95.75 38.934-16.87 4.238-17.771 3.745-21.827-13.208-13.504-61.733-12.715-123.368.591-184.904m-16.263-87.213c-40.313 42.537-64.659 93.156-71.164 151.759-.493 4.195-1.676 5.335-5.914 4.996-22.867-1.325-21.191 5.334-16.46-20.928 20.868-112.561 85.697-190.624 193.105-229.755 94.004-34.202 183.178-18.037 263.482 40.609 63.744 46.523 102.65 109.604 116.52 187.372 1.057 3.253 1.818 6.506 2.58 9.857 1.845 12.419 2.311 12.419-11.023 12.419h1.397c-10.35 3.974-10.547-3.19-11.927-11.536-13.251-78.163-53.707-139.47-119.494-184.317-46.764-31.738-98.85-47.311-155.668-45.143-73.475 2.76-135.023 32.329-185.434 84.667m-93.44 231.388c-.197-2.101-.69-4.104-.887-6.107-2.497-18.136-1.938-17.84 17.052-17.84 6.571 0 8.214 1.971 9.66 7.688 17.61 107.239 77.111 182.641 179.29 219.8 156.686 57.168 315.047-52.141 345.373-201.861 1.347-3.844 2.3-7.885 3.746-11.73.985-4.35-1.282-11.46 2.661-12.558 6.308-1.886 13.7-.716 20.6-.434 3.745.184 2.267 3.423 2.07 5.578-6.998 66.419-34.202 123.672-80.134 171.66-48.001 50.058-106.549 80.205-175.741 88.471-11.478 1.183-23.054 1.281-33.447 1.873h-2.794c-140.203-.296-266.213-108.225-287.449-244.54M22889.515 201.23c2.895-12.272 4.109-13.064 16.505-10.49 32.882 6.927 62.895 21.178 92.907 35.628 12.397 5.938 24.991 11.678 35.705 20.486 2.599 1.979 5.297 1.88 8.093 1.781 6.558-.099 13.412-1.781 19.474-.396 31.101 7.423 53.493-12.272 78.459-24.049 28.923-13.657 57.847-26.82 89.344-34.044 10.516-2.375 13.412 1.979 15.417 10.193 5.469 23.653 7.869 47.801 10.567 71.85.792 7.477 1.386 14.855 2.177 23.717v.46c-3.588 29.888-4.999 61.458-12.447 92.237-3.688 14.647-4.901 15.241-19.573 11.678-23.085-5.542-45.081-14.35-66.583-24.247-20.313-9.303-41.122-17.814-58.962-31.57-2.697-1.881-5.395-1.584-8.192-1.584-5.864 0-11.828.99-17.593.198-25.361-3.563-46.665 5.147-68.364 17.616-29.914 17.32-62.004 30.581-95.877 39.092-16.849 4.256-17.667 3.761-21.651-13.261-13.558-61.864-12.767-123.629.594-185.295m-16.33-87.405c-40.477 42.75-64.922 93.616-71.454 152.498-.494 4.252-1.682 5.437-5.938 5.137-22.96-1.29-21.278 5.436-16.527-20.892 20.821-113.02 85.782-191.402 193.496-230.691 94.255-34.342 183.66-18.111 264.158 40.774 63.872 46.712 102.804 110.051 116.599 188.136.929 3.266 1.561 6.531 2.193 9.896 1.721 12.47 2.056 12.47-11.464 12.47h1.006c-10.392 3.869-10.589-3.444-11.975-11.946-13.041-78.48-53.397-140.038-119.188-185.068-46.69-31.867-98.724-47.504-155.509-45.326-73.51 2.771-135.045 32.461-185.397 85.012m-93.82 231.279c-.198-1.989-.693-3.879-.891-5.769-2.665-18.21-2.263-17.913 16.646-17.913 6.439 0 7.93 1.979 9.223 7.719 17.524 107.676 77.108 183.386 179.545 220.696 157.166 57.401 316.013-52.353 346.304-202.684 1.194-3.859 1.992-7.917 3.285-11.777.99-4.392-1.287-11.555 2.672-12.681 6.334-1.918 13.756-.768 20.684-.509 3.761.16 2.276 3.388 2.078 5.528-7.026 66.666-34.341 124.128-80.46 172.287-48.196 50.237-106.983 80.483-176.457 88.759-11.26 1.188-22.619 1.287-32.79 1.88h-2.012c-140.51-.297-266.769-108.665-287.827-245.536M23473.893 201.061c2.833-12.313 3.978-13.107 16.344-10.525 32.92 6.95 62.96 21.249 93.001 35.746 12.365 5.958 24.93 11.717 35.607 20.555 2.535 1.986 5.17 1.886 7.904 1.787 6.507-.099 13.312-1.787 19.323-.397 31.133 7.447 53.527-12.313 78.503-24.129 28.949-13.703 57.897-26.91 89.427-34.158 10.479-2.383 13.312 1.986 15.251 10.227 5.415 23.732 7.752 47.96 10.387 72.089.794 7.453 1.39 14.806 2.184 23.648v.313c-3.528 29.988-4.872 61.663-12.273 92.545-3.627 14.695-4.773 15.291-19.422 11.716-23.09-5.56-45.087-14.397-66.588-24.327-20.309-9.334-41.115-17.873-58.942-31.676-2.635-1.886-5.269-1.588-8.003-1.588-5.812 0-11.724.993-17.437.198-25.373-3.574-46.675 5.164-68.375 17.675-29.941 17.377-62.067 30.683-95.98 39.222-16.833 4.27-17.581 3.773-21.507-13.306-13.604-61.971-12.809-123.843.596-185.615m-16.384-87.563c-40.612 42.926-65.138 93.994-71.692 153.105-.496 4.299-1.688 5.52-5.958 5.252-23.036-1.261-21.348 5.521-16.582-20.862 20.782-113.396 85.851-192.039 193.816-231.46 94.46-34.456 184.055-18.171 264.714 40.91 63.976 46.868 102.93 110.418 116.663 188.763.824 3.276 1.35 6.553 1.876 9.929 1.619 12.512 1.847 12.512-11.826 12.512h.685c-10.426 3.783-10.625-3.654-12.015-12.283-12.869-78.742-53.143-140.504-118.937-185.684-46.629-31.973-98.621-47.662-155.378-45.477-73.539 2.78-135.063 32.569-185.366 85.295m-94.133 231.19c-.199-1.897-.695-3.694-.894-5.492-2.804-18.27-2.53-17.972 16.313-17.972 6.331 0 7.697 1.986 8.865 7.745 17.452 108.034 77.105 183.996 179.753 221.43 157.56 57.592 316.807-52.527 347.068-203.358 1.069-3.873 1.74-7.944 2.908-11.817.993-4.426-1.291-11.633 2.681-12.783 6.355-1.944 13.802-.81 20.753-.57 3.773.141 2.283 3.361 2.085 5.488-7.05 66.868-34.456 124.501-80.728 172.801-48.357 50.385-107.339 80.712-177.045 88.996-11.082 1.191-22.262 1.29-32.251 1.886h-1.37c-140.763-.298-267.226-109.027-288.138-246.354M24058.193 200.927c2.784-12.345 3.875-13.142 16.216-10.553 32.95 6.969 63.012 21.305 93.075 35.84 12.341 5.974 24.882 11.748 35.53 20.609 2.485 1.991 5.07 1.892 7.754 1.792 6.467-.1 13.233-1.792 19.203-.398 31.157 7.467 53.554-12.345 78.539-24.193 28.968-13.739 57.935-26.98 89.491-34.248 10.45-2.389 13.233 1.991 15.121 10.255 5.372 23.794 7.658 48.086 10.242 72.279.797 7.433 1.394 14.766 2.191 23.593v.196c-3.481 30.067-4.771 61.826-12.134 92.788-3.581 14.735-4.672 15.332-19.303 11.748-23.093-5.575-45.092-14.436-66.592-24.391-20.306-9.359-41.11-17.921-58.927-31.759-2.584-1.892-5.169-1.593-7.853-1.593-5.77 0-11.64.995-17.311.199-25.383-3.584-46.685 5.177-68.385 17.721-29.963 17.423-62.116 30.764-96.061 39.325-16.822 4.281-17.514 3.784-21.393-13.34-13.64-62.057-12.843-124.013.597-185.87m-16.427-87.689c-40.719 43.065-65.31 94.294-71.881 153.587-.498 4.337-1.692 5.587-5.973 5.345-23.098-1.239-21.405 5.587-16.627-20.84 20.752-113.695 85.907-192.545 194.071-232.07 94.624-34.546 184.37-18.219 265.155 41.018 64.06 46.992 103.031 110.709 116.714 189.26.741 3.286 1.183 6.571 1.625 9.956 1.537 12.544 1.68 12.544-12.114 12.544h.43c-10.454 3.716-10.653-3.819-12.047-12.549-12.731-78.949-52.941-140.874-118.737-186.173-46.581-32.058-98.538-47.788-155.275-45.598-73.561 2.788-135.076 32.655-185.341 85.52m-94.381 231.12c-.199-1.824-.697-3.548-.896-5.272-2.914-18.319-2.742-18.02 16.047-18.02 6.245 0 7.512 1.991 8.581 7.766 17.395 108.319 77.103 184.481 179.919 222.014 157.872 57.744 317.437-52.666 347.676-203.895.968-3.883 1.538-7.965 2.606-11.847.996-4.454-1.294-11.696 2.689-12.864 6.371-1.965 13.838-.844 20.807-.618 3.783.125 2.29 3.337 2.091 5.454-7.069 67.029-34.547 124.799-80.941 173.211-48.485 50.502-107.622 80.893-177.512 89.183-10.939 1.194-21.978 1.294-31.823 1.891h-.86c-140.962-.298-267.588-109.314-288.384-247.003" fill="#000000"/><path d="M24642.42 200.825c2.746-12.37 3.797-13.168 16.119-10.574 32.973 6.983 63.052 21.348 93.131 35.912 12.323 5.986 24.845 11.771 35.472 20.65 2.447 1.995 4.994 1.895 7.64 1.795 6.437-.099 13.174-1.795 19.112-.399 31.177 7.482 53.575-12.369 78.567-24.24 28.982-13.767 57.964-27.034 89.54-34.316 10.427-2.395 13.173 1.995 15.022 10.274 5.339 23.842 7.587 48.183 10.133 72.423.799 7.418 1.397 14.737 2.195 23.551v.109c-3.444 30.126-4.694 61.949-12.029 92.973-3.544 14.764-4.595 15.362-19.212 11.771-23.096-5.587-45.095-14.465-66.596-24.44-20.303-9.377-41.105-17.956-58.914-31.823-2.547-1.895-5.094-1.596-7.74-1.596-5.739 0-11.578.998-17.217.2-25.391-3.591-46.691 5.187-68.391 17.756-29.98 17.458-62.154 30.825-96.124 39.404-16.812 4.29-17.463 3.791-21.306-13.367-13.667-62.121-12.869-124.142.598-186.063m-16.46-87.783c-40.8 43.17-65.44 94.52-72.023 153.951-.499 4.365-1.696 5.638-5.986 5.414-23.143-1.221-21.447 5.638-16.659-20.822 20.729-113.921 85.948-192.928 194.263-232.531 94.747-34.615 184.607-18.255 265.488 41.1 64.123 47.085 103.107 110.928 116.753 189.636.678 3.292 1.056 6.584 1.435 9.975 1.475 12.57 1.554 12.57-12.332 12.57h.237c-10.474 3.663-10.674-3.946-12.07-12.751-12.628-79.107-52.788-141.155-118.586-186.544-46.545-32.121-98.477-47.883-155.197-45.688-73.579 2.793-135.087 32.72-185.323 85.69m-94.568 231.066c-.2-1.768-.699-3.437-.898-5.105-2.998-18.355-2.903-18.056 15.847-18.056 6.18 0 7.372 1.995 8.365 7.781 17.353 108.534 77.102 184.848 180.045 222.456 158.109 57.858 317.913-52.771 348.134-204.301.894-3.89 1.388-7.98 2.38-11.871.998-4.474-1.296-11.742 2.694-12.924 6.384-1.981 13.866-.869 20.849-.655 3.791.114 2.294 3.321 2.095 5.43-7.083 67.15-34.616 125.023-81.102 173.519-48.581 50.591-107.836 81.031-177.865 89.325-10.832 1.197-21.764 1.297-31.499 1.896h-.475c-141.114-.3-267.862-109.533-288.57-247.495" fill="#000000"/><path d="M25226.578 200.755c2.72-12.387 3.742-13.186 16.052-10.589 32.988 6.992 63.079 21.377 93.17 35.962 12.31 5.993 24.819 11.787 35.431 20.678 2.421 1.997 4.941 1.898 7.561 1.798 6.417-.1 13.132-1.798 19.049-.4 31.19 7.492 53.589-12.387 78.586-24.274 28.992-13.785 57.984-27.071 89.573-34.363 10.412-2.398 13.132 1.997 14.953 10.289 5.318 23.874 7.539 48.248 10.059 72.522.799 7.408 1.398 14.716 2.198 23.523v.047c-3.42 30.168-4.642 62.034-11.957 93.101-3.519 14.784-4.541 15.383-19.149 11.787-23.098-5.594-45.098-14.484-66.598-24.474-20.301-9.39-41.102-17.981-58.906-31.866-2.521-1.898-5.041-1.598-7.661-1.598-5.717 0-11.534.999-17.151.2-25.396-3.596-46.696 5.194-68.396 17.781-29.991 17.481-62.18 30.867-96.167 39.458-16.805 4.295-17.428 3.796-21.247-13.386-13.685-62.165-12.886-124.231.6-186.196m-16.483-87.849c-40.856 43.243-65.53 94.678-72.123 154.204-.499 4.384-1.698 5.672-5.993 5.462-23.176-1.209-21.477 5.673-16.683-20.809 20.713-114.079 85.978-193.194 194.397-232.852 94.833-34.663 184.772-18.281 265.72 41.156 64.167 47.15 103.16 111.082 116.78 189.898.634 3.296.968 6.593 1.302 9.989 1.433 12.587 1.468 12.587-12.483 12.587h.104c-10.489 3.627-10.689-4.033-12.087-12.892-12.556-79.215-52.682-141.349-118.481-186.801-46.52-32.165-98.434-47.948-155.143-45.751-73.59 2.797-135.094 32.765-185.31 85.809m-94.699 231.028c-.199-1.729-.699-3.359-.899-4.989-3.055-18.381-3.013-18.081 15.708-18.081 6.135 0 7.275 1.998 8.216 7.792 17.323 108.684 77.101 185.102 180.132 222.762 158.273 57.938 318.244-52.843 348.453-204.582.841-3.895 1.282-7.991 2.223-11.887.998-4.489-1.299-11.775 2.697-12.967 6.393-1.992 13.885-.886 20.877-.68 3.796.106 2.298 3.309 2.098 5.413-7.092 67.234-34.663 125.179-81.213 173.734-48.648 50.652-107.985 81.126-178.11 89.423-10.758 1.199-21.616 1.299-31.275 1.898h-.207c-141.218-.3-268.052-109.683-288.7-247.836" fill="#000000"/><path d="M25810.67 200.713c2.705-12.396 3.71-13.196 16.013-10.597 32.997 6.998 63.095 21.395 93.192 35.991 12.303 5.998 24.805 11.797 35.408 20.694 2.405 2 4.91 1.9 7.515 1.8 6.404-.1 13.108-1.8 19.012-.4 31.198 7.498 53.597-12.397 78.597-24.294 28.998-13.796 57.996-27.093 89.593-34.391 10.403-2.399 13.108 2 14.913 10.298 5.304 23.893 7.509 48.287 10.015 72.581.799 7.402 1.399 14.704 2.199 23.505v.012c-3.405 30.192-4.61 62.084-11.914 93.175-3.505 14.797-4.51 15.396-19.112 11.797-23.1-5.598-45.099-14.496-66.599-24.493-20.301-9.398-41.101-17.996-58.902-31.892-2.505-1.899-5.01-1.599-7.615-1.599-5.704 0-11.508.999-17.113.199-25.399-3.599-46.699 5.199-68.399 17.796-29.997 17.495-62.195 30.892-96.191 39.489-16.802 4.299-17.407 3.799-21.212-13.396-13.696-62.192-12.896-124.283.6-186.275m-16.496-87.887c-40.889 43.286-65.583 94.77-72.181 154.352-.5 4.396-1.699 5.693-5.998 5.491-23.194-1.203-21.495 5.693-16.696-20.803 20.703-114.17 85.995-193.349 194.475-233.039 94.883-34.691 184.868-18.295 265.856 41.189 64.191 47.188 103.19 111.171 116.795 190.051.608 3.299.916 6.598 1.225 9.997 1.408 12.597 1.416 12.597-12.572 12.597h.026c-10.497 3.607-10.697-4.084-12.097-12.973-12.514-79.28-52.62-141.463-118.42-186.952-46.505-32.191-98.408-47.987-155.11-45.788-73.598 2.8-135.099 32.792-185.303 85.878m-94.775 231.007c-.2-1.707-.7-3.315-.9-4.922-3.089-18.395-3.078-18.095 15.627-18.095 6.108 0 7.218 1.999 8.128 7.798 17.306 108.771 77.1 185.251 180.184 222.941 158.368 57.985 318.437-52.886 348.639-204.746.81-3.899 1.22-7.998 2.13-11.897 1-4.497-1.3-11.794 2.699-12.992 6.399-1.998 13.897-.897 20.895-.695 3.799.101 2.299 3.302 2.099 5.403-7.098 67.284-34.691 125.271-81.278 173.859-48.688 50.689-108.072 81.182-178.254 89.482-10.714 1.199-21.528 1.299-31.143 1.899h-.051c-141.28-.3-268.163-109.771-288.775-248.035" fill="#000000"/><path d="M26394.7 200.7c2.7-12.4 3.7-13.2 16-10.6 33 7 63.1 21.4 93.2 36 12.3 6 24.8 11.8 35.4 20.7 2.4 2 4.9 1.9 7.5 1.8 6.4-.1 13.1-1.8 19-.4 31.2 7.5 53.6-12.4 78.6-24.3 29-13.8 58-27.1 89.6-34.4 10.4-2.4 13.1 2 14.9 10.3 5.3 23.9 7.5 48.3 10 72.6.8 7.4 1.4 14.7 2.2 23.5-3.4 30.2-4.6 62.1-11.9 93.2-3.5 14.8-4.5 15.4-19.1 11.8-23.1-5.6-45.1-14.5-66.6-24.5-20.3-9.4-41.1-18-58.9-31.9-2.5-1.9-5-1.6-7.6-1.6-5.7 0-11.5 1-17.1.2-25.4-3.6-46.7 5.2-68.4 17.8-30 17.5-62.2 30.9-96.2 39.5-16.8 4.3-17.4 3.8-21.2-13.4-13.7-62.2-12.9-124.3.6-186.3m-16.5-87.9c-40.9 43.3-65.6 94.8-72.2 154.4-.5 4.4-1.7 5.7-6 5.5-23.2-1.2-21.5 5.7-16.7-20.8 20.7-114.2 86-193.4 194.5-233.1 94.9-34.7 184.9-18.3 265.9 41.2 64.2 47.2 103.2 111.2 116.8 190.1.6 3.3.9 6.6 1.2 10 1.4 12.6 1.4 12.6-12.6 12.6-10.5 3.6-10.7-4.1-12.1-13-12.5-79.3-52.6-141.5-118.4-187-46.5-32.2-98.4-48-155.1-45.8-73.6 2.8-135.1 32.8-185.3 85.9m-94.8 231c-.2-1.7-.7-3.3-.9-4.9-3.1-18.4-3.1-18.1 15.6-18.1 6.1 0 7.2 2 8.1 7.8 17.3 108.8 77.1 185.3 180.2 223 158.4 58 318.5-52.9 348.7-204.8.8-3.9 1.2-8 2.1-11.9 1-4.5-1.3-11.8 2.7-13 6.4-2 13.9-.9 20.9-.7 3.8.1 2.3 3.3 2.1 5.4-7.1 67.3-34.7 125.3-81.3 173.9-48.7 50.7-108.1 81.2-178.3 89.5-10.7 1.2-21.5 1.3-31.1 1.9-141.3-.3-268.2-109.8-288.8-248.1" fill="#000000"/></svg>