<svg xmlns="http://www.w3.org/2000/svg" viewBox="0 0 27140 592" width="27140" height="592"><path d="M295.379 217.894c36.201-36.2 72.401-72.4 108.601-108.6 36.201-36.2 72.401-72.4 108.601-108.6 26.035 26.035 52.07 52.069 78.105 78.104l-72.401 72.401c-24.133 24.133-48.266 48.267-72.4 72.4L373.485 296c72.4 72.401 144.8 144.801 217.201 217.202-26.035 26.035-52.07 52.069-78.105 78.104l-54.3-54.3c-18.1-18.1-36.2-36.2-54.301-54.3l-54.3-54.3c-18.1-18.1-36.2-36.2-54.301-54.3-36.2 36.2-72.4 72.4-108.601 108.6l-108.6 108.6c-26.035-26.035-52.07-52.069-78.105-78.104 24.134-24.134 48.267-48.267 72.4-72.401 24.134-24.133 48.267-48.267 72.401-72.4 24.133-24.134 48.267-48.267 72.4-72.401C144.874 223.599 72.473 151.199.073 78.798 26.108 52.763 52.143 26.729 78.178.694c72.4 72.4 144.801 144.8 217.201 217.2M462.301 463.763" fill="#000000" fill-rule="evenodd"/><path d="M885.373 217.927c36.195-36.153 72.38-72.336 108.568-108.51 36.193-36.176 72.386-72.351 108.581-108.52 26.018 26.004 52.028 52.015 78.036 78.031-24.101 24.133-48.206 48.267-72.311 72.401-24.107 24.116-48.214 48.231-72.32 72.348L963.604 296c72.319 72.355 144.64 144.712 216.955 217.068-26.011 26.023-52.019 52.031-78.041 78.033-18.106-18.086-36.21-36.176-54.314-54.268-18.102-18.09-36.205-36.18-54.305-54.276-18.084-18.082-36.167-36.163-54.251-54.243-18.086-18.081-36.173-36.16-54.26-54.242-36.189 36.158-72.373 72.328-108.558 108.503-36.193 36.18-72.389 72.356-108.587 108.526-26.025-26.002-52.033-52.009-78.044-78.035 24.093-24.174 48.202-48.349 72.323-72.523 24.111-24.121 48.219-48.229 72.34-72.334 24.143-24.1 48.283-48.192 72.423-72.284-72.316-72.32-144.632-144.639-216.948-216.959C616.35 52.963 642.363 26.96 668.376.958c72.325 72.325 144.651 144.647 216.976 216.969.007 0 .014-.001.021 0M798.901 41.364c-.011.004-.011-.004-.013-.014-.013-.085-.057-.152-.127-.201-.05-.034-.106-.051-.167-.049-.079.003-.145.035-.199.093-.044.046-.071.101-.078.166 0 .004-.002.006-.006.005-.025-.001-.024.007-.018-.022.022-.123.092-.208.209-.251.102-.037.199-.019.286.045.069.05.111.119.125.204.001.004.001.007.002.011.001.013.001.013-.014.013m253.221 422.537c-.152-.001-.288-.118-.311-.267 0-.002 0-.004-.001-.005-.003-.02-.003-.02.017-.02.007 0 .008.002.009.009.019.117.083.199.194.239.17.063.342-.057.375-.22.001-.004.001-.008.002-.013.001-.005-.001-.012.003-.014.007-.002.015-.001.022 0 .004 0 .003.003.003.005-.008.073-.038.135-.088.187-.052.055-.116.088-.192.097-.011.001-.023.001-.033.002M1475.352 218.031c36.177-36.003 72.315-72.13 108.465-108.221 36.168-36.099 72.336-72.196 108.516-108.266 25.964 25.907 51.894 51.844 77.819 77.799-24.001 24.133-48.015 48.267-72.029 72.402-24.021 24.058-48.043 48.116-72.064 72.18L1553.985 296c72.059 72.21 144.127 144.428 216.169 216.643-25.934 25.984-51.856 51.904-77.839 77.805-18.123-18.043-36.24-36.102-54.356-54.165-18.11-18.061-36.222-36.119-54.321-54.2-18.03-18.027-36.06-36.044-54.09-54.063-18.044-18.018-36.089-36.032-54.133-54.054-36.152 36.021-72.285 72.097-108.42 108.191-36.172 36.116-72.355 72.213-108.545 108.289-25.993-25.898-51.913-51.818-77.848-77.813 23.963-24.305 47.991-48.609 72.077-72.913 24.037-24.081 48.066-48.11 72.146-72.123 24.173-23.993 48.334-47.953 72.494-71.912-72.046-72.061-144.092-144.122-216.14-216.182 25.945-25.902 51.888-51.803 77.83-77.7 72.085 72.083 144.171 144.156 216.257 216.23.029-.001.059-.008.086-.002m-85.203-175.872c-.047.016-.048-.019-.054-.059-.056-.357-.237-.637-.534-.842-.209-.145-.443-.217-.698-.207-.332.013-.609.148-.835.387-.184.195-.296.427-.325.696-.003.02-.008.026-.027.025-.105-.006-.097.025-.076-.094.094-.514.388-.871.877-1.05.427-.156.833-.083 1.198.186.289.212.464.5.526.856.002.015.004.03.005.045.006.057.006.057-.057.057M1641.55 464.34c-.636-.001-1.208-.494-1.301-1.118-.001-.007-.003-.014-.004-.022-.014-.083-.014-.081.07-.081.028 0 .033.009.037.035.078.49.347.835.812 1.005.713.261 1.435-.239 1.571-.923.003-.018.005-.036.009-.054.005-.02-.006-.053.012-.058.029-.009.063-.004.094-.003.017 0 .011.014.01.024-.032.303-.157.564-.366.783-.22.229-.487.366-.804.404-.048.005-.097.005-.14.008M2065.313 218.217c36.148-35.735 72.201-71.762 108.282-107.703 36.124-35.962 72.248-71.919 108.399-107.811 25.868 25.732 51.655 51.537 77.432 77.383-23.82 24.131-47.674 48.267-71.524 72.402-23.868 23.956-47.738 47.91-71.606 71.881l-71.63 71.63c71.594 71.952 143.211 143.921 214.763 215.882-25.795 25.916-51.563 51.68-77.476 77.399-18.154-17.967-36.296-35.969-54.432-53.983-18.123-18.007-36.252-36.006-54.349-54.062-17.934-17.927-35.869-35.832-53.804-53.739-17.968-17.908-35.937-35.804-53.904-53.72-36.086 35.776-72.128 71.685-108.174 107.634-36.134 36.001-72.292 71.958-108.469 107.865-25.936-25.712-51.7-51.475-77.498-77.416 23.73-24.539 47.615-49.076 71.636-73.613 23.905-24.008 47.792-47.894 71.8-71.743 24.228-23.802 48.424-47.525 72.621-71.247-71.564-71.598-143.128-143.197-214.694-214.792 25.821-25.722 51.641-51.441 77.455-77.151 71.656 71.651 143.312 143.279 214.97 214.908.068-.001.14-.019.202-.004m-82.93-174.637c-.112.038-.114-.044-.129-.139-.133-.843-.56-1.505-1.26-1.989-.495-.343-1.047-.511-1.65-.488-.784.03-1.438.349-1.972.914-.435.461-.698 1.009-.768 1.643-.006.047-.019.061-.064.059-.247-.013-.229.06-.178-.222.22-1.215.915-2.058 2.07-2.48 1.009-.369 1.967-.195 2.829.438.683.503 1.098 1.184 1.243 2.023.006.035.009.07.013.107.015.134.015.134-.134.134m248.144 421.546c-1.503-.003-2.854-1.168-3.073-2.64-.002-.018-.007-.035-.009-.052-.033-.196-.033-.192.166-.192.064 0 .076.021.086.083.184 1.157.82 1.971 1.917 2.373 1.686.617 3.389-.563 3.711-2.18.008-.041.012-.085.022-.126.011-.048-.014-.126.029-.139.068-.021.148-.009.222-.007.041.001.025.035.022.057-.075.716-.369 1.334-.865 1.851-.518.539-1.15.864-1.897.952-.114.013-.229.014-.331.02M2655.256 218.498c36.101-35.331 72.026-71.206 108.004-106.923 36.057-35.754 72.114-71.498 108.223-107.123 25.723 25.469 51.294 51.073 76.846 76.754-23.548 24.129-47.157 48.268-70.76 72.405-23.637 23.801-47.278 47.599-70.916 71.427l-70.959 70.96c70.892 71.561 141.827 143.155 212.641 214.734-25.586 25.811-51.123 51.339-76.93 76.784-18.2-17.851-36.377-35.768-54.545-53.707-18.144-17.927-36.298-35.838-54.392-53.854-17.79-17.778-35.58-35.511-53.371-53.251-17.854-17.74-35.709-35.46-53.56-53.216-35.986 35.408-71.889 71.063-107.801 106.793-36.077 35.828-72.198 71.575-108.354 107.225-25.851-25.431-51.38-50.957-76.972-76.816 23.38-24.891 47.049-49.78 70.971-74.668 23.707-23.9 47.38-47.569 71.278-71.17 24.31-23.514 48.562-46.881 72.814-70.243-70.837-70.9-141.672-141.801-212.512-212.695 25.635-25.45 51.267-50.894 76.889-76.322 71.007 70.999 142.017 141.956 213.028 212.914.127-.002.261-.036.378-.008m-79.502-172.773c-.209.072-.213-.082-.241-.259-.249-1.578-1.047-2.816-2.356-3.722-.926-.641-1.959-.955-3.087-.912-1.465.056-2.69.653-3.689 1.71-.814.862-1.305 1.887-1.437 3.073-.01.088-.034.114-.119.11-.462-.024-.428.113-.333-.414.412-2.273 1.712-3.85 3.872-4.64 1.889-.69 3.68-.364 5.292.82 1.278.94 2.054 2.214 2.325 3.784.012.066.018.131.024.199.028.251.028.251-.251.251m243.229 420.588c-2.813-.006-5.338-2.185-5.748-4.938-.004-.034-.014-.066-.018-.097-.062-.367-.062-.361.31-.361.122 0 .143.04.161.156.345 2.165 1.535 3.688 3.587 4.438 3.153 1.155 6.339-1.053 6.941-4.076.016-.078.023-.159.041-.237.02-.09-.025-.235.054-.259.128-.04.277-.018.416-.014.076.002.046.066.042.108-.141 1.339-.691 2.494-1.618 3.461-.97 1.009-2.152 1.616-3.549 1.782-.213.023-.428.025-.619.037M3245.176 218.889c36.036-34.767 71.784-70.433 107.617-105.836 35.964-35.465 71.928-70.914 107.978-106.166 25.522 25.102 50.791 50.427 76.031 75.88-23.168 24.126-46.438 48.268-69.698 72.407-23.315 23.585-46.637 47.166-69.953 70.797l-70.025 70.026c69.914 71.016 139.9 142.088 209.686 213.134-25.296 25.667-50.51 50.867-76.169 75.93-18.264-17.69-36.492-35.489-54.704-53.323-18.172-17.815-36.361-35.603-54.451-53.565-17.589-17.569-35.177-35.066-52.769-52.572-17.694-17.506-35.39-34.98-53.08-52.512-35.847 34.894-71.558 70.196-107.283 105.622-35.997 35.586-72.066 71.039-108.194 106.333-25.732-25.039-50.932-50.237-76.238-75.982 22.893-25.382 46.261-50.761 70.045-76.136 23.431-23.749 46.805-47.117 70.551-70.374 24.424-23.112 48.753-45.982 73.082-68.845-69.824-69.927-139.646-139.856-209.475-209.774 25.377-25.072 50.748-50.132 76.102-75.167 70.105 70.091 140.213 140.113 210.324 210.136.21-.004.43-.059.623-.013m-74.728-170.177c-.344.118-.351-.135-.397-.427-.41-2.601-1.725-4.641-3.883-6.134-1.526-1.056-3.228-1.574-5.088-1.502-2.414.092-4.431 1.076-6.078 2.818-1.341 1.42-2.151 3.109-2.368 5.064-.016.144-.056.187-.197.181-.761-.04-.705.187-.548-.683.679-3.746 2.821-6.343 6.38-7.646 3.113-1.138 6.065-.6 8.722 1.352 2.106 1.548 3.385 3.647 3.831 6.235.02.109.03.217.039.328.046.414.046.414-.413.414m236.385 419.254c-4.635-.01-8.797-3.602-9.473-8.138-.007-.056-.023-.108-.03-.161-.101-.603-.101-.593.512-.593.2 0 .236.065.266.255.567 3.569 2.529 6.078 5.91 7.315 5.196 1.902 10.447-1.735 11.438-6.718.026-.127.039-.262.069-.39.033-.148-.043-.387.088-.426.21-.066.456-.03.686-.023.125.003.075.108.069.177-.233 2.207-1.138 4.11-2.667 5.704-1.597 1.663-3.546 2.663-5.848 2.936-.351.039-.705.042-1.02.062M3835.07 219.408c35.951-34.018 71.462-69.405 107.103-104.392 35.841-35.081 71.681-70.138 107.652-104.895 25.254 24.615 50.124 49.57 74.949 74.719-22.664 24.122-45.483 48.269-68.286 72.41-22.889 23.298-45.787 46.591-68.676 69.959l-68.785 68.786c68.615 70.294 137.341 140.672 205.762 211.01-24.91 25.474-49.695 50.239-75.159 74.794-18.349-17.476-36.644-35.117-54.914-52.812-18.21-17.666-36.445-35.292-54.53-53.182-17.322-17.291-34.643-34.472-51.969-51.669-17.481-17.196-34.967-34.342-52.443-51.579-35.661 34.213-71.118 69.045-106.594 104.067-35.891 35.266-71.891 70.328-107.982 105.15-25.573-24.52-50.338-49.28-75.263-74.873 22.245-26.035 45.213-52.064 68.816-78.088 23.063-23.548 46.041-46.516 69.584-69.315 24.576-22.579 49.007-44.789 73.438-66.988-68.478-68.636-136.953-137.274-205.44-205.895 25.034-24.569 50.057-49.12 75.057-73.633 68.905 68.885 137.816 137.665 206.731 206.446.32-.005.654-.09.949-.02m-68.387-166.729c-.524.179-.534-.205-.604-.649-.624-3.96-2.627-7.066-5.912-9.338-2.322-1.607-4.913-2.396-7.744-2.286-3.675.139-6.746 1.637-9.252 4.289-2.043 2.162-3.276 4.733-3.605 7.709-.025.22-.085.285-.3.275-1.158-.06-1.074.284-.834-1.039 1.034-5.702 4.294-9.657 9.712-11.639 4.738-1.732 9.232-.914 13.276 2.057 3.206 2.357 5.153 5.553 5.832 9.492.03.165.045.33.06.5.07.629.07.629-.629.629m227.294 417.482c-7.056-.015-13.392-5.483-14.42-12.388-.01-.085-.035-.165-.045-.245-.155-.918-.155-.903.779-.903.304 0 .359.099.404.389.864 5.433 3.85 9.252 8.998 11.135 7.909 2.896 15.903-2.642 17.41-10.226.04-.195.06-.4.105-.594.05-.225-.065-.59.135-.649.32-.1.694-.045 1.044-.035.189.005.115.164.105.269-.355 3.361-1.733 6.257-4.06 8.683-2.431 2.532-5.397 4.055-8.902 4.469-.535.06-1.074.065-1.553.095M4424.933 220.076c35.84-33.054 71.047-68.081 106.441-102.531 35.682-34.588 71.364-69.14 107.233-103.259 24.91 23.988 49.265 48.465 73.555 73.223-22.015 24.117-44.253 48.269-66.469 72.415-22.338 22.929-44.691 45.851-67.029 68.88l-67.189 67.189c66.944 69.362 134.046 138.847 200.708 208.275-24.412 25.226-48.645 49.43-73.856 73.331-18.46-17.2-36.841-34.638-55.186-52.155-18.259-17.474-36.553-34.89-54.632-52.688-16.977-16.933-33.954-33.709-50.938-50.506-17.208-16.797-34.423-33.522-51.623-50.377-35.423 33.335-70.55 67.563-105.707 102.064-35.754 34.854-71.666 69.413-107.708 103.626-25.37-23.851-49.574-48.048-74.008-73.446 21.41-26.874 43.864-53.741 67.232-80.601 22.59-23.288 45.058-45.742 68.34-67.951 24.771-21.892 49.334-43.252 73.897-64.597-66.745-66.973-133.487-133.949-200.244-200.899 24.591-23.922 49.168-47.818 73.71-71.658 67.361 67.332 134.73 134.513 202.105 201.694.461-.007.943-.13 1.368-.029m-60.221-162.289c-.756.259-.771-.295-.871-.936-.9-5.709-3.787-10.186-8.524-13.462-3.347-2.318-7.084-3.455-11.166-3.297-5.298.202-9.725 2.361-13.339 6.184-2.945 3.117-4.723 6.825-5.198 11.115-.036.317-.122.411-.432.396-1.67-.086-1.548.41-1.202-1.497 1.49-8.221 6.191-13.923 14.002-16.781 6.832-2.498 13.311-1.317 19.142 2.966 4.622 3.398 7.429 8.005 8.408 13.685.044.238.065.475.087.72.101.907.101.907-.907.907m215.587 415.2c-10.172-.021-19.308-7.904-20.791-17.86-.014-.123-.05-.238-.064-.353-.224-1.325-.224-1.303 1.123-1.303.439 0 .518.144.583.562 1.245 7.832 5.55 13.339 12.972 16.053 11.403 4.176 22.929-3.808 25.103-14.743.058-.281.086-.576.151-.857.072-.324-.093-.849.195-.936.46-.144 1-.065 1.504-.05.274.007.166.237.151.389-.511 4.844-2.498 9.02-5.852 12.519-3.506 3.649-7.782 5.845-12.836 6.443-.77.086-1.548.093-2.239.136M5014.761 220.917c35.702-31.841 70.525-66.415 105.609-100.192 35.482-33.966 70.964-67.882 106.705-101.199 24.476 23.198 48.183 47.075 71.8 71.341-21.197 24.11-42.704 48.271-64.181 72.421-21.646 22.464-43.313 44.919-64.959 67.523l-65.179 65.179c64.84 68.191 129.899 136.552 194.349 204.834-23.787 24.914-47.324 48.412-72.219 71.491-18.599-16.854-37.088-34.036-55.527-51.328-18.32-17.233-36.689-34.385-54.759-52.066-16.544-16.484-33.088-32.749-49.643-49.044-16.863-16.295-33.736-32.49-50.59-48.864-35.123 32.23-69.837 65.697-104.591 99.544-35.582 34.335-71.383 68.26-107.364 101.708-25.114-23.009-48.611-46.497-72.428-71.651 20.359-27.93 42.165-55.851 65.238-83.761 21.996-22.963 43.822-44.77 66.775-66.237 25.018-21.028 49.746-41.318 74.475-61.588-64.566-64.88-129.126-129.765-193.708-194.614 24.036-23.107 48.05-46.179 72.016-69.173 65.419 65.378 130.847 130.547 196.286 195.716.638-.01 1.307-.179 1.895-.04m-49.948-156.703c-1.047.359-1.067-.409-1.207-1.296-1.247-7.91-5.246-14.114-11.809-18.652-4.638-3.212-9.815-4.788-15.471-4.568-7.341.279-13.475 3.271-18.482 8.567-4.079 4.319-6.543 9.456-7.201 15.401-.05.439-.17.568-.599.548-2.314-.119-2.144.569-1.666-2.074 2.065-11.391 8.578-19.291 19.4-23.25 9.466-3.461 18.443-1.826 26.522 4.109 6.404 4.708 10.294 11.091 11.65 18.961.06.329.09.658.12.998.139 1.256.139 1.256-1.257 1.256m200.859 412.33c-14.094-.03-26.751-10.952-28.806-24.747-.02-.169-.07-.329-.09-.488-.309-1.836-.309-1.806 1.556-1.806.609 0 .719.2.808.778 1.726 10.852 7.69 18.483 17.974 22.243 15.799 5.785 31.768-5.276 34.78-20.427.08-.389.12-.798.21-1.187.1-.449-.13-1.177.269-1.297.638-.199 1.387-.09 2.085-.07.379.01.229.329.209.539-.708 6.713-3.461 12.498-8.109 17.345-4.857 5.057-10.782 8.099-17.784 8.927-1.067.12-2.145.13-3.102.19M5604.549 221.954c35.53-30.347 69.882-64.364 104.582-97.309 35.236-33.199 70.472-66.332 106.056-98.661 23.941 22.226 46.85 45.363 69.638 69.022-20.19 24.102-40.797 48.271-61.362 72.427-20.794 21.892-41.615 43.771-62.408 65.851l-62.703 62.703c62.247 66.748 124.789 133.723 186.514 200.592-23.017 24.53-45.698 47.158-70.201 69.223-18.77-16.426-37.393-33.294-55.948-50.309-18.395-16.934-36.857-33.762-54.917-51.299-16.01-15.93-32.021-31.566-48.045-47.242-16.439-15.675-32.892-31.217-49.317-47-34.754 30.869-68.959 63.399-103.217 96.438-35.369 33.696-71.034 66.842-106.94 99.345-24.797-21.972-47.425-44.586-70.482-69.437 19.066-29.233 40.074-58.452 62.783-87.657 21.263-22.562 42.297-43.57 64.846-64.123 25.321-19.963 50.253-38.936 75.186-57.881-61.879-62.301-123.751-124.609-185.651-186.868 23.349-22.103 46.67-44.159 69.928-66.11 63.024 62.97 126.062 125.659 189.113 188.348.857-.013 1.755-.241 2.545-.053m-37.287-149.819c-1.406.483-1.433-.549-1.621-1.741-1.674-10.622-7.045-18.953-15.859-25.048-6.228-4.313-13.18-6.429-20.775-6.135-9.858.375-18.096 4.394-24.82 11.506-5.479 5.8-8.787 12.699-9.671 20.682-.067.589-.228.763-.804.736-3.108-.16-2.88.764-2.237-2.786 2.773-15.296 11.52-25.905 26.053-31.223 12.711-4.648 24.767-2.451 35.616 5.519 8.6 6.322 13.823 14.895 15.645 25.463.081.442.121.884.161 1.34.187 1.687.187 1.687-1.688 1.687m182.707 408.791c-18.926-.04-35.924-14.707-38.683-33.232-.027-.227-.094-.442-.121-.656-.415-2.465-.415-2.425 2.09-2.425.817 0 .964.268 1.085 1.045 2.317 14.574 10.327 24.821 24.137 29.87 21.217 7.769 42.662-7.085 46.707-27.432.107-.522.161-1.071.281-1.594.134-.603-.174-1.58.362-1.741.857-.268 1.862-.121 2.799-.094.509.013.308.442.282.723-.951 9.015-4.648 16.784-10.89 23.294-6.523 6.791-14.48 10.876-23.883 11.988-1.433.161-2.88.174-4.166.254M6194.293 223.203c35.325-28.545 69.108-61.89 103.346-93.834 34.939-32.276 69.878-64.465 105.273-95.602 23.296 21.054 45.243 43.299 67.033 66.227-18.978 24.092-38.499 48.273-57.967 72.435-19.766 21.203-39.567 42.388-59.332 63.835l-59.718 59.718c59.122 65.009 118.63 130.315 177.069 195.481-22.087 24.067-43.737 45.646-67.768 66.49-18.976-15.91-37.76-32.399-56.455-49.08-18.486-16.576-37.059-33.012-55.107-50.376-15.367-15.263-30.735-30.14-46.12-45.069-15.928-14.93-31.873-29.684-47.784-44.754-34.308 29.229-67.899 60.629-101.559 92.695-35.114 32.925-70.614 65.131-106.429 96.497-24.417-20.722-45.996-42.283-68.136-66.771 17.506-30.801 37.552-61.585 59.823-92.352 20.379-22.078 40.46-42.124 62.521-61.575 25.686-18.68 50.865-36.064 76.044-53.412-58.641-59.193-117.273-118.395-175.942-177.533 22.523-20.894 45.009-41.724 67.411-62.419 60.139 60.068 120.295 119.769 180.469 179.469 1.121-.017 2.295-.315 3.328-.07m-22.027-141.521c-1.84.63-1.875-.718-2.12-2.277-2.19-13.891-9.214-24.787-20.74-32.757-8.145-5.64-17.236-8.408-27.169-8.023-12.892.491-23.665 5.746-32.458 15.047-7.165 7.585-11.491 16.606-12.647 27.046-.088.771-.298.999-1.051.964-4.064-.21-3.766.998-2.926-3.644 3.626-20.004 15.065-33.877 34.071-40.832 16.623-6.078 32.388-3.205 46.577 7.217 11.246 8.268 18.077 19.479 20.459 33.3.106.578.158 1.156.211 1.752.245 2.207.245 2.207-2.207 2.207m160.831 404.526c-24.751-.052-46.98-19.233-50.589-43.459-.035-.298-.122-.578-.157-.858-.543-3.223-.543-3.171 2.732-3.171 1.069 0 1.261.351 1.419 1.367 3.03 19.058 13.506 32.458 31.565 39.062 27.747 10.16 55.791-9.266 61.082-35.874.14-.683.21-1.402.367-2.085.176-.788-.227-2.067.473-2.277 1.121-.35 2.435-.158 3.661-.123.666.018.403.578.368.946-1.243 11.789-6.078 21.949-14.241 30.462-8.531 8.881-18.936 14.224-31.232 15.678-1.875.21-3.767.227-5.448.332M6783.994 224.667c35.083-26.434 68.199-58.992 101.896-89.761 34.592-31.195 69.183-62.277 104.355-92.019 22.541 19.681 43.361 40.88 63.98 62.952-17.556 24.081-35.805 48.274-53.986 72.445-18.562 20.394-37.168 40.766-55.729 61.473l-56.221 56.221c55.461 62.97 111.414 126.319 166.003 189.49-20.999 23.524-41.439 43.875-64.919 63.287-19.217-15.306-38.189-31.35-57.049-47.64-18.591-16.156-37.295-32.133-55.328-49.295-14.614-14.479-29.228-28.468-43.864-42.523-15.329-14.055-30.681-27.887-45.987-42.12-33.787 27.305-66.657 57.382-99.617 88.308-34.815 32.021-70.121 63.126-105.83 93.158-23.971-19.255-44.322-39.584-65.388-63.644 15.679-32.64 34.598-65.259 56.355-97.854 19.344-21.512 38.307-40.431 59.796-58.59 26.115-17.176 51.582-32.698 77.049-48.176-54.846-55.55-109.681-111.112-164.564-166.593 21.555-19.476 43.062-38.871 64.463-58.094 56.757 56.668 113.537 112.866 170.339 169.064 1.43-.022 2.927-.402 4.246-.089m-4.146-131.798c-2.347.804-2.391-.916-2.704-2.905-2.794-17.722-11.755-31.622-26.46-41.79-10.391-7.196-21.99-10.727-34.661-10.235-16.448.625-30.191 7.33-41.41 19.196-9.14 9.677-14.66 21.186-16.135 34.505-.111.983-.379 1.273-1.34 1.229-5.185-.268-4.805 1.274-3.732-4.648 4.625-25.521 19.218-43.221 43.465-52.093 21.208-7.754 41.321-4.089 59.422 9.208 14.348 10.548 23.063 24.85 26.102 42.482.134.738.201 1.475.268 2.235.313 2.816.313 2.816-2.815 2.816m135.195 399.529c-31.577-.067-59.936-24.537-64.54-55.444-.044-.38-.156-.737-.201-1.095-.692-4.112-.692-4.045 3.487-4.045 1.363 0 1.609.447 1.81 1.743 3.866 24.314 17.23 41.41 40.27 49.835 35.398 12.962 71.177-11.822 77.926-45.767.178-.872.268-1.788.469-2.66.223-1.005-.291-2.637.603-2.905 1.431-.447 3.107-.201 4.671-.156.849.022.514.737.469 1.206-1.586 15.04-7.754 28.002-18.168 38.863-10.884 11.33-24.158 18.146-39.846 20.001-2.391.268-4.805.29-6.95.424M7373.655 226.321c34.81-24.049 67.173-55.717 100.259-85.16 34.199-29.972 68.397-59.805 103.318-87.969 21.688 18.128 41.234 38.148 60.53 59.251-15.949 24.069-32.76 48.276-49.488 72.456-17.201 19.481-34.457 38.934-51.658 58.804l-52.269 52.269c51.324 60.667 103.259 121.806 153.499 182.723-19.769 22.911-38.843 41.873-61.698 59.668-19.491-14.624-38.675-30.166-57.721-46.014-18.711-15.681-37.562-31.14-55.579-48.072-13.763-13.595-27.525-26.579-41.315-39.646-14.653-13.068-29.333-25.857-43.957-39.147-33.197 25.134-65.255 53.715-97.423 83.353-34.476 31.001-69.564 60.861-105.153 89.387-23.467-17.6-42.429-36.535-62.282-60.113 13.614-34.718 31.259-69.408 52.436-104.071 18.174-20.871 35.875-38.516 56.718-55.216 26.599-15.477 52.391-28.896 78.184-42.26-50.559-51.435-101.104-102.884-151.709-154.233 20.461-17.874 40.862-35.648 61.132-53.207 52.937 52.826 105.901 105.067 158.893 157.308 1.78-.028 3.643-.5 5.283-.111m16.058-120.813c-2.92 1.001-2.976-1.14-3.365-3.614-3.475-22.05-14.625-39.345-32.921-51.996-12.93-8.954-27.361-13.347-43.126-12.735-20.465.778-37.565 9.12-51.524 23.885-11.372 12.039-18.24 26.359-20.075 42.931-.139 1.223-.473 1.585-1.669 1.529-6.45-.333-5.978 1.585-4.643-5.783 5.756-31.754 23.913-53.776 54.081-64.814 26.388-9.649 51.412-5.089 73.935 11.455 17.851 13.124 28.695 30.92 32.476 52.858.167.918.251 1.835.334 2.781.389 3.503.389 3.503-3.503 3.503m106.231 393.884c-39.289-.084-74.574-30.53-80.302-68.985-.056-.473-.195-.918-.251-1.363-.862-5.116-.862-5.032 4.338-5.032 1.696 0 2.002.556 2.252 2.168 4.811 30.253 21.438 51.524 50.106 62.006 44.043 16.127 88.56-14.709 96.957-56.945.222-1.084.333-2.224.584-3.309.278-1.251-.362-3.281.75-3.615 1.78-.556 3.865-.25 5.812-.194 1.056.028.639.917.584 1.501-1.974 18.713-9.649 34.84-22.606 48.354-13.541 14.097-30.058 22.578-49.577 24.886-2.975.333-5.978.361-8.647.528M7963.29 228.108c34.515-21.473 66.065-52.18 98.49-80.191 33.774-28.651 67.548-57.134 102.198-83.594 20.766 16.452 38.936 35.196 56.804 55.254-14.214 24.054-29.473 48.278-44.631 72.467-15.731 18.495-31.529 36.955-47.259 55.921l-48.001 48.001c46.855 58.179 94.451 116.931 139.992 175.413-18.44 22.248-36.038 39.711-58.22 55.759-19.785-13.887-39.199-28.887-58.445-44.257-18.842-15.168-37.852-30.067-55.851-46.751-12.842-12.641-25.685-24.54-38.562-36.54-13.921-12.001-27.876-23.664-41.763-35.934-32.561 22.788-63.74 49.754-95.053 78-34.111 29.899-68.963 58.415-104.422 85.314-22.923-15.812-40.386-33.242-58.927-56.299 11.383-36.962 27.653-73.891 48.203-110.785 16.91-20.18 33.247-36.45 53.393-51.574 27.121-13.641 53.266-24.789 79.41-35.869-45.929-46.99-91.84-93.997-137.823-140.882 19.279-16.144 38.486-32.167 57.533-47.928 48.81 48.675 97.653 96.642 146.531 144.609 2.157-.033 4.415-.606 6.403-.134m37.88-108.947c-3.539 1.213-3.606-1.382-4.078-4.381-4.213-26.725-17.727-47.687-39.902-63.02-15.67-10.852-33.161-16.177-52.269-15.435-24.804.943-45.53 11.054-62.448 28.949-13.783 14.592-22.107 31.948-24.332 52.033-.168 1.483-.573 1.921-2.022 1.854-7.818-.404-7.245 1.921-5.628-7.01 6.976-38.486 28.983-65.177 65.548-78.556 31.982-11.694 62.313-6.167 89.61 13.885 21.636 15.906 34.779 37.475 39.363 64.065.202 1.112.303 2.224.404 3.37.472 4.246.472 4.246-4.246 4.246m74.945 387.785c-47.619-.101-90.386-37.003-97.328-83.611-.067-.573-.236-1.113-.303-1.652-1.045-6.201-1.045-6.1 5.257-6.1 2.056 0 2.427.674 2.73 2.629 5.83 36.666 25.983 62.447 60.729 75.153 53.381 19.546 107.336-17.828 117.514-69.019.269-1.315.404-2.696.708-4.011.337-1.516-.439-3.976.909-4.381 2.157-.674 4.685-.303 7.044-.236 1.281.034.775 1.112.708 1.82-2.393 22.681-11.695 42.227-27.399 58.606-16.412 17.086-36.43 27.364-60.088 30.162-3.606.404-7.246.438-10.481.64M8552.914 229.945c34.212-18.822 64.924-48.541 96.671-75.078 33.337-27.293 66.674-54.387 101.045-79.095 19.818 14.728 36.574 32.16 52.972 51.142-12.43 24.041-26.092 48.28-39.634 72.48-14.219 17.48-28.517 34.919-42.736 52.956l-43.61 43.61c42.258 55.62 85.391 111.916 126.099 167.893-17.074 21.567-33.154 37.488-54.642 51.739-20.088-13.13-39.739-27.571-59.191-42.451-18.975-14.64-38.149-28.962-56.129-45.392-11.897-11.659-23.794-22.442-35.731-33.344-13.169-10.903-26.378-21.408-39.507-32.629-31.906 20.374-62.181 45.678-92.615 72.494-33.735 28.764-68.345 55.898-103.67 81.123-22.363-13.972-38.283-29.853-55.477-52.375 9.089-39.271 23.944-78.501 43.849-117.692 15.611-19.468 30.545-34.323 49.973-47.826 27.659-11.754 54.165-20.564 80.671-29.296-41.164-42.417-82.31-84.855-123.539-127.148 18.063-14.365 36.041-28.586 53.831-42.499 44.565 44.406 89.17 87.977 133.815 131.547 2.544-.039 5.209-.715 7.555-.159m60.327-96.74c-4.175 1.431-4.255-1.631-4.811-5.17-4.971-31.533-20.917-56.267-47.082-74.36-18.49-12.804-39.128-19.087-61.675-18.212-29.267 1.113-53.722 13.043-73.684 34.158-16.264 17.218-26.086 37.697-28.71 61.396-.199 1.75-.676 2.267-2.386 2.188-9.226-.478-8.55 2.266-6.641-8.272 8.231-45.411 34.198-76.905 77.343-92.691 37.736-13.799 73.525-7.277 105.734 16.383 25.529 18.769 41.037 44.218 46.445 75.593.239 1.312.358 2.624.478 3.976.556 5.011.556 5.011-5.011 5.011m42.764 381.511c-56.188-.119-106.65-43.661-114.841-98.656-.08-.676-.278-1.312-.358-1.949-1.233-7.316-1.233-7.197 6.203-7.197 2.426 0 2.863.795 3.221 3.102 6.88 43.264 30.659 73.684 71.656 88.675 62.988 23.064 126.651-21.035 138.66-81.438.318-1.551.477-3.181.835-4.732.398-1.79-.517-4.692 1.074-5.17 2.545-.795 5.527-.357 8.311-.278 1.511.04.914 1.312.835 2.147-2.824 26.762-13.799 49.826-32.329 69.151-19.365 20.161-42.986 32.289-70.901 35.59-4.254.477-8.549.517-12.366.755M9142.544 231.752c33.914-16.218 63.804-44.965 94.883-70.054 32.908-25.958 65.816-51.687 99.913-74.672 18.886 13.033 34.251 29.175 49.204 47.1-10.675 24.027-22.767 48.283-34.723 72.492-12.732 16.482-25.556 32.919-38.289 50.041l-39.295 39.295c37.741 53.105 76.487 106.986 112.444 160.502-15.731 20.898-30.318 35.302-51.124 47.787-20.387-12.385-40.27-26.278-59.925-40.674-19.106-14.122-38.44-27.878-56.403-44.058-10.967-10.693-21.934-20.379-32.947-30.203-12.43-9.824-24.906-19.19-37.29-29.38-31.262 18.002-60.649 41.673-90.219 67.082-33.366 27.649-67.737 53.424-102.931 77.004-21.812-12.164-36.217-26.523-52.085-48.518 6.834-41.54 20.298-83.033 39.57-124.481 14.333-18.769 27.888-32.233 46.611-44.143 28.187-9.897 55.049-16.411 81.911-22.834-36.483-37.923-72.943-75.87-109.501-113.651 16.868-12.615 33.639-25.065 50.193-37.161 40.393 40.21 80.831 79.459 121.316 118.709 2.926-.046 5.99-.823 8.687-.183m82.391-84.744c-4.801 1.646-4.892-1.875-5.532-5.944-5.716-36.26-24.052-64.702-54.139-85.506-21.262-14.724-44.994-21.949-70.92-20.943-33.654 1.281-61.775 14.998-84.729 39.278-18.701 19.799-29.995 43.348-33.013 70.6-.229 2.012-.777 2.606-2.744 2.515-10.608-.549-9.831 2.606-7.636-9.511 9.465-52.218 39.324-88.432 88.936-106.585 43.393-15.867 84.546-8.368 121.583 18.838 29.356 21.583 47.188 50.847 53.407 86.924.274 1.509.411 3.018.549 4.573.64 5.761.64 5.761-5.762 5.761m11.132 375.346c-64.609-.137-122.635-50.206-132.054-113.444-.092-.778-.32-1.509-.412-2.241-1.417-8.413-1.417-8.276 7.134-8.276 2.789 0 3.292.914 3.703 3.566 7.911 49.749 35.254 84.729 82.397 101.968 72.429 26.52 145.635-24.189 159.444-93.646.366-1.783.548-3.658.96-5.441.457-2.058-.594-5.395 1.235-5.944 2.926-.915 6.355-.412 9.556-.32 1.738.045 1.052 1.509.96 2.469-3.246 30.773-15.866 57.294-37.174 79.516-22.268 23.183-49.429 37.129-81.528 40.924-4.893.549-9.831.594-14.221.869M9732.194 233.464c33.631-13.749 62.742-41.574 93.188-65.29 32.501-24.692 65.002-49.127 98.839-70.48 18.002 11.427 32.048 26.346 45.632 43.27-9.011 24.013-19.616 48.284-30.066 72.503-11.324 15.536-22.75 31.022-34.074 47.277l-35.204 35.205c33.457 50.719 68.045 102.312 99.498 153.495-14.457 20.262-27.63 33.23-47.79 44.039-20.669-11.678-40.773-25.051-60.619-38.99-19.231-13.63-38.718-26.849-56.664-42.792-10.085-9.777-20.171-18.424-30.308-27.225-11.729-8.801-23.51-17.088-35.188-26.3-30.652 15.753-59.197 37.876-87.947 61.951-33.015 26.593-67.16 51.079-102.23 73.1-21.291-10.45-34.258-23.366-48.87-44.862 4.697-43.691 16.842-87.33 35.513-130.918 13.121-18.105 25.37-30.251 43.424-40.65 28.689-8.138 55.887-12.475 83.086-16.709-32.044-33.663-64.063-67.351-96.191-100.854 15.735-10.957 31.362-21.728 46.744-32.101 36.437 36.231 72.926 71.384 109.466 106.537 3.288-.052 6.73-.925 9.761-.206m103.308-73.37c-5.395 1.849-5.497-2.107-6.217-6.679-6.422-40.741-27.023-72.697-60.829-96.073-23.889-16.543-50.553-24.66-79.683-23.53-37.813 1.439-69.409 16.851-95.2 44.132-21.013 22.246-33.702 48.704-37.093 79.324-.257 2.261-.874 2.929-3.083 2.826-11.919-.617-11.046 2.928-8.579-10.686 10.634-58.671 44.183-99.361 99.925-119.757 48.756-17.828 94.994-9.402 136.609 21.167 32.983 24.249 53.02 57.129 60.007 97.665.308 1.695.462 3.391.616 5.138.719 6.473.719 6.473-6.473 6.473m-18.856 369.5c-72.594-.154-137.79-56.41-148.373-127.463-.103-.873-.36-1.695-.462-2.517-1.593-9.454-1.593-9.299 8.014-9.299 3.134 0 3.699 1.027 4.162 4.007 8.888 55.897 39.61 95.199 92.579 114.568 81.379 29.798 163.632-27.178 179.147-105.218.411-2.003.617-4.11 1.079-6.113.514-2.312-.668-6.063 1.387-6.679 3.288-1.028 7.142-.463 10.738-.36 1.952.051 1.182 1.695 1.079 2.774-3.648 34.576-17.828 64.374-41.769 89.343-25.02 26.047-55.537 41.717-91.603 45.981-5.497.617-11.046.668-15.978.976M10321.87 235.048c33.37-11.466 61.759-38.44 91.62-60.886 32.125-23.521 64.25-46.76 97.846-66.602 17.186 9.94 30.013 23.73 42.33 39.726-7.473 24.002-16.702 48.286-25.761 72.514-10.02 14.662-20.154 29.268-30.175 44.722l-31.421 31.421c29.496 48.515 60.238 97.992 87.527 147.016-13.28 19.676-25.145 31.314-44.707 40.576-20.93-11.025-41.238-23.918-61.262-37.433-19.346-13.176-38.974-25.899-56.904-41.622-9.27-8.931-18.541-16.616-27.868-24.471-11.081-7.856-22.219-15.145-33.244-23.453-30.088 13.673-57.854 34.364-85.847 57.207-32.691 25.615-66.627 48.91-101.582 69.489-20.808-8.865-32.446-20.447-45.896-41.482 2.719-45.679 13.646-91.302 31.761-136.868 12.002-17.492 23.041-28.419 40.477-37.421 29.152-6.512 56.662-8.835 84.173-11.045-27.94-29.723-55.852-59.475-83.884-89.021 14.688-9.424 29.255-18.643 43.554-27.423 32.78 32.553 65.616 63.918 98.509 95.282 3.622-.057 7.414-1.019 10.754-.226m122.65-62.854c-5.943 2.038-6.057-2.32-6.849-7.358-7.075-44.884-29.772-80.09-67.016-105.843-26.319-18.226-55.695-27.169-87.788-25.924-41.658 1.585-76.467 18.565-104.881 48.621-23.15 24.508-37.13 53.657-40.866 87.391-.283 2.491-.962 3.227-3.396 3.113-13.131-.679-12.169 3.227-9.452-11.773 11.716-64.638 48.676-109.466 110.088-131.936 53.715-19.641 104.656-10.358 150.502 23.319 36.338 26.716 58.412 62.94 66.11 107.599.34 1.867.51 3.735.679 5.66.793 7.131.793 7.131-7.131 7.131m-46.585 364.096c-79.977-.17-151.804-62.148-163.464-140.427-.113-.962-.396-1.868-.509-2.774-1.755-10.414-1.755-10.244 8.83-10.244 3.452 0 4.075 1.132 4.584 4.414 9.792 61.582 43.64 104.882 101.995 126.221 89.656 32.828 180.274-29.942 197.368-115.919.453-2.208.679-4.528 1.188-6.736.566-2.547-.735-6.679 1.529-7.358 3.622-1.132 7.867-.509 11.829-.396 2.151.057 1.302 1.868 1.189 3.056-4.019 38.093-19.641 70.921-46.017 98.429-27.564 28.697-61.185 45.96-100.919 50.658-6.056.679-12.169.736-17.603 1.076M10911.575 236.49c33.132-9.386 60.865-35.585 90.192-56.874 31.783-22.456 63.565-44.605 96.942-63.072 16.442 8.588 28.159 21.347 39.323 36.5-6.073 23.99-14.049 48.287-21.84 72.523-8.834 13.866-17.791 27.671-26.626 42.396l-27.976 27.976c25.89 46.506 53.129 94.056 76.626 141.115-12.208 19.141-22.881 29.569-41.9 37.42-21.168-10.43-41.661-22.885-61.847-36.015-19.45-12.762-39.207-25.033-57.123-40.556-8.528-8.159-17.056-14.969-25.645-21.963-10.491-6.994-21.044-13.374-31.474-20.859-29.574 11.779-56.631 31.166-83.934 52.885-32.396 24.726-66.142 46.936-100.992 66.201-20.368-7.421-30.797-17.788-43.188-38.402.919-47.491 10.735-94.92 28.344-142.289 10.982-16.934 20.921-26.75 37.793-34.48 29.574-5.03 57.369-5.519 85.163-5.886-24.202-26.135-48.374-52.301-72.676-78.245 13.734-8.027 27.338-15.832 40.65-23.162 29.448 29.203 58.958 57.118 88.53 85.032 3.927-.061 8.038-1.104 11.658-.245m140.264-53.275c-6.442 2.208-6.565-2.516-7.424-7.977-7.67-48.658-32.275-86.824-72.65-114.742-28.532-19.758-60.378-29.453-95.168-28.103-45.161 1.718-82.897 20.126-113.699 52.708-25.096 26.568-40.252 58.168-44.302 94.739-.307 2.7-1.043 3.497-3.682 3.375-14.235-.737-13.192 3.497-10.247-12.763 12.702-70.073 52.77-118.669 119.345-143.029 58.23-21.292 113.453-11.229 163.154 25.28 39.393 28.962 63.323 68.232 71.668 116.644.368 2.025.553 4.05.737 6.136.859 7.732.859 7.732-7.732 7.732m-71.838 359.172c-86.701-.184-164.566-67.373-177.206-152.233-.123-1.043-.429-2.025-.552-3.006-1.902-11.29-1.902-11.106 9.572-11.106 3.743 0 4.418 1.227 4.97 4.786 10.615 66.759 47.308 113.699 110.57 136.831 97.193 35.589 195.43-32.459 213.96-125.664.491-2.393.737-4.909 1.289-7.302.614-2.761-.798-7.24 1.657-7.976 3.927-1.228 8.529-.553 12.824-.43 2.331.061 1.411 2.025 1.288 3.313-4.356 41.295-21.291 76.884-49.885 106.705-29.882 31.109-66.329 49.823-109.404 54.916-6.565.737-13.192.798-19.083 1.166M11501.308 237.792c32.918-7.508 60.057-33.006 88.904-53.251 31.472-21.493 62.945-42.657 96.125-59.882 15.769 7.365 26.483 19.195 36.606 33.586-4.808 23.98-11.652 48.288-18.298 72.531-7.763 13.147-15.657 26.228-23.42 40.294l-24.864 24.864c22.631 44.693 46.708 90.502 66.779 135.786-11.239 18.658-20.837 27.993-39.364 34.571-21.383-9.893-42.043-21.953-62.376-34.734-19.544-12.388-39.417-24.251-57.32-39.593-7.858-7.464-15.715-13.483-23.638-19.699-9.959-6.216-19.983-11.776-29.876-18.517-29.109 10.069-55.526 28.279-82.206 48.984-32.129 23.922-65.703 45.152-100.459 63.231-19.971-6.118-29.306-15.388-40.742-35.622-.707-49.127 8.106-98.188 25.258-147.184 10.061-16.429 19.005-25.243 35.369-31.824 29.955-3.692 58.006-2.525 86.057-1.227-20.826-22.895-41.62-45.823-62.553-68.512 12.872-6.766 25.605-13.294 38.026-19.314 26.44 26.178 52.946 50.976 79.518 75.775 4.202-.066 8.601-1.182 12.474-.263m156.174-44.625c-6.894 2.364-7.026-2.692-7.945-8.535-8.207-52.066-34.535-92.905-77.738-122.779-30.53-21.142-64.607-31.515-101.834-30.071-48.324 1.838-88.703 21.536-121.663 56.4-26.854 28.429-43.071 62.243-47.405 101.374-.328 2.889-1.116 3.743-3.939 3.611-15.232-.787-14.116 3.743-10.965-13.656 13.591-74.981 56.465-126.981 127.704-153.047 62.308-22.783 121.4-12.016 174.582 27.051 42.152 30.99 67.758 73.01 76.688 124.814.394 2.167.591 4.333.788 6.566.919 8.272.919 8.272-8.273 8.272m-94.646 354.727c-92.774-.197-176.093-72.091-189.618-162.895-.131-1.117-.46-2.167-.591-3.218-2.035-12.081-2.035-11.884 10.243-11.884 4.005 0 4.727 1.314 5.318 5.122 11.359 71.435 50.622 121.663 118.314 146.415 104.001 38.081 209.118-34.732 228.947-134.466.525-2.56.788-5.252 1.379-7.813.656-2.954-.854-7.747 1.772-8.535 4.202-1.313 9.127-.591 13.723-.46 2.495.066 1.51 2.167 1.379 3.546-4.662 44.187-22.783 82.268-53.38 114.177-31.975 33.289-70.975 53.314-117.067 58.764-7.025.788-14.116.853-20.419 1.247M12091.069 238.964c32.724-5.818 59.329-30.686 87.743-49.992 31.194-20.627 62.389-40.906 95.391-57.014 15.165 6.266 24.976 17.26 34.162 30.965-3.67 23.971-9.496 48.29-15.112 72.539-6.799 12.5-13.737 24.93-20.536 38.403l-22.065 22.065c19.701 43.062 40.932 87.305 57.922 130.992-10.368 18.224-18.998 26.576-37.083 32.007-21.576-9.409-42.387-21.113-62.851-33.582-19.63-12.051-39.607-23.547-57.498-38.727-7.255-6.837-14.509-12.145-21.833-17.661-9.479-5.516-19.028-10.337-28.438-16.41-28.691 8.53-54.532 25.681-80.651 45.473-31.89 23.199-65.309 43.548-99.98 60.56-19.614-4.945-27.966-13.228-38.542-33.12-2.17-50.599 5.741-101.128 22.482-151.587 9.232-15.976 17.282-23.888 33.189-29.435 30.298-2.489 58.579.168 86.861 2.963-17.79-19.979-35.544-39.994-53.447-59.756 12.098-5.631 24.047-11.011 35.666-15.852 23.734 23.456 47.537 45.451 71.41 67.447 4.45-.069 9.108-1.251 13.21-.278m170.485-36.843c-7.3 2.503-7.439-2.85-8.413-9.038-8.69-55.132-36.569-98.376-82.315-130.009-32.329-22.386-68.411-33.371-107.831-31.842-51.17 1.947-93.926 22.804-128.827 59.721-28.435 30.104-45.608 65.908-50.196 107.344-.348 3.059-1.182 3.963-4.172 3.824-16.129-.834-14.947 3.963-11.61-14.461 14.391-79.396 59.79-134.458 135.223-162.059 65.978-24.125 128.549-12.723 184.863 28.644 44.634 32.815 71.748 77.31 81.204 132.164.417 2.294.625 4.588.834 6.952.973 8.76.973 8.76-8.76 8.76m-115.164 350.727c-98.237-.208-186.462-76.337-200.784-172.487-.139-1.182-.486-2.295-.625-3.407-2.156-12.792-2.156-12.584 10.845-12.584 4.241 0 5.006 1.391 5.632 5.423 12.027 75.641 53.602 128.827 125.281 155.037 110.125 40.324 221.432-36.778 242.428-142.384.557-2.711.835-5.562 1.46-8.273.696-3.129-.903-8.204 1.878-9.038 4.449-1.391 9.663-.626 14.53-.487 2.642.07 1.599 2.294 1.46 3.754-4.936 46.79-24.125 87.113-56.523 120.902-33.858 35.248-75.155 56.453-123.96 62.223-7.439.835-14.948.904-21.622 1.321M12680.853 240.017c32.551-4.301 58.677-28.603 86.702-47.064 30.944-19.849 61.888-39.333 94.73-54.437 14.622 5.278 23.623 15.521 31.968 28.61-2.648 23.963-7.559 48.291-12.251 72.546-5.933 11.918-12.012 23.764-17.945 36.704l-19.55 19.551c17.069 41.596 35.743 84.432 49.965 126.685-9.585 17.833-17.346 25.302-35.033 29.704-21.75-8.976-42.697-20.36-63.279-32.547-19.706-11.749-39.777-22.915-57.658-37.949-6.713-6.274-13.425-10.943-20.211-15.831-9.048-4.887-18.17-9.045-27.145-14.516-28.317 7.147-53.64 23.346-79.256 42.319-31.674 22.549-64.954 42.106-99.548 58.159-19.294-3.891-26.762-11.287-36.566-30.872-3.484-51.921 3.617-103.769 19.988-155.544 8.488-15.568 15.735-22.669 31.23-27.288 30.606-1.407 59.094 2.588 87.583 6.728-15.061-17.36-30.085-34.757-45.265-51.89 11.401-4.612 22.647-8.96 33.546-12.742 21.302 21.011 42.677 40.488 64.126 59.966 4.672-.073 9.563-1.314 13.869-.292m183.342-29.852c-7.664 2.627-7.81-2.993-8.832-9.49-9.125-57.886-38.396-103.29-86.428-136.504-33.944-23.505-71.829-35.038-113.218-33.432-53.726 2.044-98.619 23.943-135.263 62.704-29.856 31.607-47.886 69.201-52.704 112.707-.365 3.212-1.241 4.161-4.38 4.015-16.935-.876-15.694 4.16-12.19-15.184 15.11-83.362 62.777-141.175 141.979-170.155 69.273-25.33 134.97-13.359 194.098 30.075 46.864 34.454 75.332 81.172 85.26 138.766.438 2.409.657 4.818.876 7.3 1.022 9.198 1.022 9.198-9.198 9.198m-133.596 347.134c-103.144-.219-195.777-80.151-210.814-181.105-.146-1.241-.511-2.409-.657-3.577-2.263-13.431-2.263-13.212 11.387-13.212 4.453 0 5.256 1.46 5.913 5.693 12.629 79.421 56.281 135.263 131.54 162.783 115.627 42.338 232.495-38.615 254.54-149.497.584-2.847.876-5.84 1.533-8.687.73-3.285-.949-8.613 1.971-9.489 4.672-1.46 10.146-.657 15.256-.511 2.774.073 1.679 2.409 1.533 3.941-5.183 49.127-25.33 91.465-59.346 126.942-35.55 37.009-78.91 59.273-130.154 65.332-7.81.876-15.694.949-22.702 1.387M13270.66 240.962c32.394-2.937 58.09-26.73 85.765-44.434 30.72-19.149 61.439-37.919 94.138-52.121 14.134 4.391 22.407 13.958 29.995 26.494-1.729 23.956-5.819 48.292-9.679 72.552-5.155 11.397-10.463 22.717-15.617 35.179l-17.292 17.292c14.704 40.279 31.082 81.852 42.817 122.816-8.882 17.483-15.861 24.157-33.192 27.635-21.906-8.585-42.975-19.682-63.663-31.617-19.775-11.478-39.93-22.347-57.801-37.25-6.226-5.769-12.452-9.864-18.754-14.186-8.662-4.323-17.399-7.885-25.985-12.817-27.979 5.906-52.838 21.25-78.001 39.486-31.481 21.966-64.636 40.812-99.162 56.004-19.005-2.945-25.68-9.544-34.79-28.854-4.664-53.108 1.708-106.141 17.748-159.097 7.819-15.202 14.344-21.575 29.47-25.36 30.882-.436 59.557 4.761 88.232 10.11-12.61-15.008-25.182-30.054-37.916-44.824 10.775-3.697 21.389-7.117 31.641-9.948 19.118 18.814 38.313 36.029 57.584 53.245 4.871-.077 9.971-1.371 14.462-.305m194.891-23.572c-7.992 2.74-8.144-3.121-9.21-9.895-9.514-60.361-40.037-107.705-90.122-142.338-35.394-24.51-74.899-36.536-118.057-34.862-56.022 2.131-102.834 24.966-141.044 65.384-31.132 32.959-49.933 72.159-54.957 117.525-.38 3.349-1.294 4.338-4.567 4.186-17.659-.913-16.365 4.339-12.711-15.832 15.756-86.926 65.46-147.21 148.047-177.428 72.235-26.413 140.74-13.93 202.394 31.36 48.867 35.927 78.553 84.642 88.905 144.698.456 2.512.685 5.023.913 7.611 1.066 9.591 1.066 9.591-9.591 9.591m-150.153 343.907c-107.553-.229-204.145-83.576-219.825-188.846-.153-1.294-.533-2.512-.686-3.73-2.359-14.005-2.359-13.777 11.875-13.777 4.643 0 5.48 1.523 6.165 5.937 13.168 82.815 58.686 141.045 137.163 169.741 120.568 44.147 242.431-40.266 265.419-155.887.609-2.969.913-6.09 1.598-9.058.761-3.426-.989-8.982 2.055-9.896 4.872-1.522 10.58-.685 15.909-.532 2.892.076 1.75 2.512 1.598 4.11-5.404 51.227-26.412 95.374-61.883 132.367-37.069 38.591-82.282 61.807-135.716 68.124-8.144.914-16.365.99-23.672 1.447M13860.486 241.812c32.254-1.712 57.563-25.048 84.924-42.07 30.518-18.522 61.035-36.649 93.605-50.041 13.696 3.594 21.315 12.555 28.223 24.593-.904 23.949-4.255 48.293-7.369 72.558-4.456 10.927-9.069 21.776-13.525 33.808l-15.261 15.261c12.577 39.096 26.892 79.533 36.392 119.338-8.25 17.169-14.527 23.13-31.538 25.777-22.046-8.235-43.224-19.074-64.007-30.782-19.836-11.234-40.067-21.836-57.931-36.622-5.788-5.314-11.576-8.893-17.444-12.708-8.313-3.816-16.706-6.842-24.941-11.288-27.677 4.789-52.118 19.365-76.874 36.939-31.307 21.442-64.35 39.648-98.814 54.066-18.747-2.094-24.708-7.977-33.195-27.039-5.725-54.176-.007-108.273 15.735-162.291 7.218-14.873 13.094-20.592 27.888-23.627 31.131.437 59.974 6.715 88.816 13.15-10.408-12.893-20.776-25.827-31.312-38.474 10.214-2.873 20.259-5.461 29.93-7.437 17.155 16.84 34.39 32.022 51.703 47.205 5.051-.079 10.339-1.421 14.995-.316m205.272-17.928c-8.287 2.841-8.445-3.236-9.55-10.259-9.865-62.585-41.512-111.674-93.442-147.583-36.698-25.412-77.658-37.882-122.406-36.146-58.086 2.21-106.623 25.887-146.241 67.794-32.279 34.172-51.772 74.817-56.981 121.854-.395 3.472-1.342 4.498-4.735 4.34-18.31-.947-16.968 4.499-13.18-16.415 16.337-90.128 67.872-152.633 153.501-183.965 74.896-27.386 145.925-14.443 209.851 32.515 50.667 37.251 81.447 87.76 92.18 150.029.473 2.604.71 5.209.947 7.892 1.105 9.944 1.105 9.944-9.944 9.944m-165.036 341.006c-111.515-.237-211.666-86.655-227.923-195.803-.158-1.342-.553-2.604-.711-3.867-2.446-14.522-2.446-14.285 12.312-14.285 4.814 0 5.682 1.579 6.393 6.156 13.653 85.866 60.848 146.241 142.215 175.994 125.011 45.774 251.364-41.749 275.198-161.63.631-3.078.947-6.314 1.657-9.392.789-3.551-1.026-9.313 2.131-10.26 5.051-1.578 10.97-.71 16.494-.552 2.999.079 1.816 2.604 1.658 4.262-5.604 53.113-27.386 98.888-64.163 137.243-38.435 40.013-85.314 64.084-140.716 70.634-8.445.948-16.968 1.026-24.545 1.5M14450.33 242.576c32.128-.609 57.088-23.534 84.167-39.943 30.336-17.957 60.672-35.506 93.126-48.169 13.301 2.876 20.331 11.291 26.628 22.882-.161 23.943-2.848 48.294-5.29 72.563-3.827 10.505-7.817 20.929-11.644 32.574l-13.435 13.436c10.666 38.031 23.124 77.446 30.614 116.21-7.682 16.885-13.328 22.205-30.049 24.104-22.173-7.919-43.449-18.527-64.318-30.03-19.892-11.014-40.191-21.377-58.047-36.056-5.394-4.907-10.789-8.021-16.266-11.38-8.001-3.359-16.083-5.903-24.003-9.913-27.404 3.785-51.469 17.67-75.86 34.649-31.151 20.97-64.093 38.601-98.501 52.323-18.514-1.329-23.834-6.568-31.76-25.407-6.679-55.136-1.549-110.191 13.924-165.164 6.677-14.577 11.97-19.707 26.466-22.068 31.355 1.223 60.348 8.472 89.34 15.884-8.426-10.992-16.812-22.024-25.37-32.762 9.707-2.133 19.242-3.971 28.389-5.178 15.39 15.064 30.862 28.417 46.414 41.771 5.213-.081 10.669-1.466 15.475-.326m214.608-12.851c-8.552 2.932-8.714-3.339-9.855-10.587-10.18-64.585-42.839-115.242-96.428-152.299-37.872-26.225-80.141-39.093-126.319-37.301-59.942 2.28-110.03 26.713-150.914 69.96-33.31 35.265-53.427 77.208-58.802 125.748-.407 3.583-1.385 4.642-4.887 4.479-18.894-.977-17.51 4.643-13.601-16.94 16.859-93.008 70.041-157.511 158.407-189.844 77.29-28.261 150.589-14.904 216.558 33.555 52.286 38.441 84.049 90.564 95.125 154.823.489 2.688.733 5.375.978 8.144 1.14 10.262 1.14 10.262-10.262 10.262m-178.421 338.397c-115.079-.244-218.43-89.425-235.208-202.061-.163-1.384-.57-2.687-.733-3.99-2.524-14.986-2.524-14.742 12.706-14.742 4.968 0 5.863 1.629 6.596 6.353 14.09 88.61 62.793 150.914 146.761 181.618 129.006 47.237 259.397-43.083 283.992-166.795.652-3.177.978-6.516 1.711-9.692.814-3.665-1.059-9.61 2.199-10.588 5.212-1.629 11.32-.733 17.021-.57 3.095.082 1.874 2.688 1.711 4.398-5.783 54.811-28.261 102.048-66.214 141.63-39.662 41.291-88.04 66.132-145.213 72.891-8.714.978-17.51 1.059-25.329 1.548M15040.189 243.264c32.014.383 56.662-22.172 83.486-38.03 30.173-17.448 60.345-34.478 92.695-46.485 12.946 2.232 19.447 10.155 25.194 21.344.506 23.938-1.583 48.294-3.421 72.567-3.261 10.126-6.689 20.167-9.95 31.465l-11.791 11.791c8.945 37.073 19.732 75.57 25.413 113.396-7.17 16.63-12.248 21.373-28.71 22.599-22.286-7.636-43.651-18.034-64.597-29.353-19.942-10.817-40.302-20.965-58.151-35.549-5.041-4.538-10.081-7.235-15.206-10.183-7.719-2.948-15.523-5.059-23.159-8.676-27.159 2.882-50.885 16.145-74.947 32.588-31.01 20.546-63.861 37.659-98.22 50.755-18.304-.641-23.046-5.3-30.468-23.939-7.538-56-2.938-111.916 12.294-167.749 6.191-14.311 10.959-18.911 25.186-20.665 31.556 1.929 60.684 10.053 89.812 18.344-6.643-9.28-13.244-18.602-20.024-27.621 9.253-1.467 18.328-2.631 27.005-3.146 13.8 13.466 27.685 25.174 41.653 36.882 5.358-.084 10.967-1.507 15.906-.335m223.011-8.282c-8.79 3.014-8.957-3.432-10.129-10.883-10.465-66.384-44.034-118.454-99.117-156.543-38.926-26.956-82.374-40.182-129.839-38.341-61.613 2.344-113.096 27.458-155.12 71.91-34.239 36.248-54.916 79.36-60.441 129.253-.419 3.683-1.423 4.772-5.023 4.604-19.422-1.004-17.998 4.772-13.98-17.412 17.328-95.601 71.993-161.901 162.822-195.136 79.444-29.048 154.786-15.319 222.593 34.49 53.744 39.513 86.392 93.089 97.777 159.139.502 2.763.754 5.525 1.005 8.371 1.172 10.548 1.172 10.548-10.548 10.548m-190.467 336.049c-118.287-.252-224.519-91.918-241.764-207.693-.167-1.423-.586-2.762-.753-4.102-2.595-15.403-2.595-15.152 13.059-15.152 5.106 0 6.027 1.674 6.781 6.53 14.482 91.08 64.543 155.12 150.851 186.68 132.602 48.554 266.626-44.284 291.908-171.444.669-3.265 1.004-6.697 1.758-9.962.837-3.767-1.089-9.878 2.26-10.883 5.358-1.674 11.636-.753 17.496-.586 3.181.084 1.925 2.763 1.758 4.52-5.944 56.339-29.049 104.893-68.059 145.578-40.768 42.442-90.494 67.975-149.26 74.923-8.958 1.005-17.999 1.088-26.035 1.591M15630.062 243.884c31.912 1.275 56.278-20.946 82.873-36.307 30.026-16.991 60.051-33.553 92.307-44.969 12.626 1.65 18.65 9.132 23.902 19.958 1.108 23.933-.443 48.295-1.737 72.571-2.751 9.783-5.674 19.481-8.425 30.465l-10.312 10.312c7.396 36.211 16.679 73.88 20.731 110.862-6.71 16.4-11.275 20.623-27.504 21.244-22.388-7.381-43.832-17.591-64.848-28.745-19.987-10.639-40.402-20.592-58.245-35.09-4.722-4.208-9.444-6.528-14.252-9.106-7.466-2.578-15.018-4.299-22.398-7.563-26.938 2.069-50.361 14.772-74.126 30.733-30.883 20.163-63.653 36.811-97.966 49.342-18.116-.021-22.338-4.158-29.305-22.616-8.312-56.778-4.188-113.47 10.826-170.077 5.753-14.071 10.048-18.195 24.034-19.402 31.737 2.565 60.987 11.477 90.237 20.56-5.038-7.739-10.033-15.522-15.211-22.993 8.843-.868 17.504-1.424 25.757-1.316 12.37 12.027 24.827 22.253 37.368 32.48 5.489-.086 11.234-1.544 16.294-.343m230.576-4.169c-9.004 3.087-9.176-3.516-10.376-11.148-10.72-68.006-45.108-121.346-101.536-160.366-39.877-27.613-84.385-41.163-133.009-39.276-63.117 2.401-115.858 28.128-158.908 73.665-35.074 37.133-56.256 81.297-61.916 132.408-.429 3.774-1.458 4.889-5.146 4.717-19.895-1.029-18.437 4.888-14.321-17.837 17.752-97.935 73.751-165.854 166.797-199.9 81.383-29.757 158.565-15.693 228.028 35.332 55.055 40.477 88.501 95.362 100.164 163.024.514 2.83.771 5.66 1.029 8.576 1.2 10.805 1.2 10.805-10.806 10.805m-201.312 333.934c-121.175-.257-230-94.161-247.666-212.763-.172-1.457-.601-2.829-.772-4.202-2.659-15.779-2.659-15.522 13.378-15.522 5.231 0 6.174 1.716 6.946 6.689 14.836 93.304 66.119 158.908 154.534 191.238 135.839 49.739 273.136-45.365 299.034-175.63.686-3.344 1.029-6.86 1.801-10.205.858-3.859-1.115-10.119 2.316-11.148 5.488-1.715 11.92-.772 17.923-.601 3.259.086 1.972 2.83 1.801 4.631-6.089 57.715-29.758 107.454-69.721 149.131-41.763 43.479-92.703 69.635-152.904 76.753-9.176 1.029-18.438 1.115-26.67 1.629M16219.948 244.441c31.82 2.08 55.932-19.842 82.321-34.756 29.893-16.578 59.786-32.718 91.957-43.603 12.339 1.127 17.933 8.21 22.739 18.71 1.65 23.929.583 48.296-.22 72.575-2.293 9.476-4.76 18.864-7.053 29.565l-8.98 8.98c6.002 35.435 13.931 72.358 16.516 108.581-6.295 16.193-10.4 19.948-26.418 20.023-22.48-7.15-43.997-17.191-65.075-28.196-20.027-10.479-40.492-20.257-58.329-34.678-4.435-3.909-8.87-5.892-13.393-8.137-7.238-2.245-14.563-3.614-21.714-6.559-26.739 1.336-49.888 13.535-73.386 29.062-30.769 19.819-63.465 36.047-97.738 48.07-17.946.538-21.7-3.129-28.258-21.425-9.008-57.478-5.313-114.869 9.505-172.173 5.359-13.855 9.228-17.549 22.996-18.265 31.9 3.138 61.26 12.759 90.62 22.555-3.593-6.352-7.142-12.748-10.877-18.827 8.474-.327 16.762-.337 24.634.332 11.082 10.732 22.252 19.624 33.51 28.517 5.606-.088 11.475-1.577 16.643-.351m237.387-.465c-9.198 3.154-9.373-3.591-10.599-11.388-10.95-69.464-46.076-123.949-103.715-163.806-40.732-28.206-86.195-42.046-135.862-40.119-64.472 2.453-118.344 28.732-162.317 75.246-35.827 37.929-57.464 83.042-63.245 135.249-.438 3.855-1.489 4.993-5.256 4.818-20.322-1.051-18.833 4.993-14.629-18.22 18.133-100.036 75.334-169.412 170.376-204.188 83.13-30.396 161.967-16.03 232.92 36.09 56.237 41.345 90.4 97.407 102.313 166.521.526 2.891.789 5.782 1.051 8.76 1.227 11.037 1.227 11.037-11.037 11.037m-211.077 332.031c-123.774-.263-234.935-96.181-252.98-217.328-.175-1.489-.613-2.89-.788-4.292-2.715-16.118-2.715-15.855 13.665-15.855 5.344 0 6.307 1.752 7.095 6.833 15.155 95.305 67.538 162.316 157.85 195.34 138.753 50.807 278.996-46.338 305.45-179.398.701-3.416 1.051-7.008 1.839-10.424.876-3.942-1.138-10.336 2.366-11.387 5.606-1.752 12.175-.789 18.307-.614 3.329.088 2.015 2.891 1.84 4.731-6.22 58.952-30.396 109.758-71.216 152.33-42.66 44.412-94.693 71.129-156.185 78.4-9.373 1.051-18.834 1.138-27.243 1.664M16809.845 244.943c31.738 2.803 55.621-18.849 81.825-33.36 29.774-16.208 59.547-31.969 91.642-42.375 12.08.656 17.288 7.381 21.693 17.587 2.136 23.926 1.506 48.297 1.144 72.579-1.88 9.198-3.938 18.308-5.818 28.756l-7.781 7.781c4.747 34.735 11.457 70.988 12.722 106.527-5.921 16.007-9.612 19.341-25.441 18.926-22.563-6.944-44.144-16.832-65.278-27.703-20.064-10.335-40.574-19.956-58.406-34.307-4.176-3.642-8.353-5.319-12.619-7.264-7.033-1.946-14.155-2.998-21.098-5.658-26.561.678-49.462 12.423-72.721 27.559-30.666 19.51-63.296 35.36-97.532 46.927-17.793 1.039-21.126-2.205-27.316-20.355-9.634-58.108-6.326-116.128 8.317-174.058 5.003-13.661 8.489-16.969 22.061-17.242 32.047 3.654 61.506 13.912 90.965 24.349-2.292-5.103-4.54-10.251-6.977-15.076 8.142.158 16.094.64 23.623 1.814 9.923 9.566 19.936 17.258 30.037 24.95 5.713-.089 11.692-1.607 16.958-.357m243.517 2.868c-9.372 3.213-9.55-3.66-10.8-11.603-11.156-70.778-46.947-126.293-105.675-166.903-41.502-28.739-87.824-42.841-138.431-40.877-65.69 2.499-120.58 29.275-165.385 76.668-36.504 38.646-58.549 84.611-64.44 137.806-.446 3.927-1.517 5.087-5.355 4.909-20.707-1.071-19.19 5.087-14.905-18.565 18.475-101.926 76.757-172.614 173.596-208.048 84.701-30.97 165.028-16.333 237.322 36.772 57.301 42.128 92.109 99.249 104.247 169.67.536 2.945.804 5.89 1.071 8.925 1.25 11.246 1.25 11.246-11.245 11.246m-219.865 330.318c-126.114-.268-239.375-98-257.761-221.436-.179-1.517-.625-2.945-.803-4.373-2.767-16.423-2.767-16.155 13.923-16.155 5.444 0 6.426 1.785 7.23 6.962 15.44 97.106 68.813 165.385 160.833 199.033 141.376 51.766 284.269-47.215 311.223-182.79.714-3.48 1.071-7.14 1.875-10.621.892-4.016-1.161-10.531 2.409-11.602 5.713-1.785 12.407-.804 18.654-.625 3.392.089 2.053 2.945 1.875 4.819-6.337 60.067-30.971 111.834-72.563 155.211-43.466 45.251-96.482 72.473-159.137 79.881-9.55 1.071-19.189 1.16-27.758 1.696M17399.753 245.394c31.663 3.454 55.341-17.955 81.378-32.105 29.666-15.874 59.333-31.294 91.359-41.27 11.848.233 16.708 6.636 20.752 16.578 2.575 23.921 2.337 48.297 2.371 72.581-1.509 8.95-3.199 17.808-4.707 28.028l-6.704 6.703c3.618 34.108 9.233 69.757 9.312 104.681-5.586 15.841-8.904 18.795-24.563 17.939-22.637-6.757-44.276-16.509-65.461-27.259-20.096-10.205-40.646-19.685-58.474-33.974-3.945-3.4-7.889-4.803-11.924-6.479-6.848-1.676-13.787-2.444-20.544-4.846-26.4.085-49.08 11.422-72.123 26.207-30.574 19.231-63.144 34.742-97.348 45.898-17.655 1.491-20.61-1.373-26.468-19.391-10.197-58.676-7.237-117.261 7.247-175.755 4.685-13.486 7.827-16.446 21.222-16.322 32.18 4.118 61.727 14.95 91.275 25.964-1.123-3.981-2.201-8.008-3.471-11.705 7.844.595 15.495 1.519 22.714 3.147 8.882 8.518 17.854 15.13 26.916 21.743 5.808-.091 11.887-1.633 17.241-.363m249.027 5.864c-9.528 3.267-9.709-3.72-10.98-11.796-11.342-71.958-47.73-128.399-107.437-169.686-42.195-29.219-89.29-43.556-140.74-41.56-66.786 2.541-122.591 29.763-168.144 77.947-37.113 39.291-59.526 86.023-65.515 140.104-.453 3.993-1.542 5.173-5.444 4.991-21.052-1.089-19.51 5.172-15.154-18.874 18.783-103.627 78.038-175.494 176.492-211.518 86.113-31.487 167.78-16.606 241.281 37.386 58.256 42.829 93.645 100.904 105.985 172.499.545 2.994.817 5.989 1.089 9.074 1.271 11.433 1.271 11.433-11.433 11.433m-227.765 328.778c-128.217-.272-243.368-99.634-262.06-225.129-.182-1.543-.635-2.994-.817-4.446-2.813-16.697-2.813-16.424 14.156-16.424 5.535 0 6.533 1.814 7.35 7.077 15.698 98.727 69.961 168.144 163.515 202.353 143.735 52.63 289.011-48.002 316.415-185.838.726-3.539 1.089-7.259 1.906-10.798.907-4.083-1.18-10.707 2.45-11.796 5.807-1.815 12.613-.817 18.965-.635 3.448.09 2.087 2.994 1.905 4.9-6.442 61.068-31.487 113.698-73.772 157.799-44.191 46.005-98.092 73.681-161.792 81.213-9.709 1.089-19.509 1.18-28.221 1.724M17989.67 245.799c31.596 4.038 55.09-17.153 80.977-30.979 29.57-15.574 59.141-30.688 91.105-40.278 11.639-.147 16.188 5.967 19.908 15.672 2.968 23.918 3.082 48.297 3.472 72.584-1.176 8.726-2.535 17.359-3.711 27.374l-5.735 5.736c2.605 33.543 7.236 68.652 6.25 103.024-5.285 15.69-8.269 18.305-23.775 17.053-22.704-6.591-44.395-16.219-65.625-26.861-20.126-10.089-40.712-19.442-58.536-33.675-3.736-3.183-7.472-4.341-11.3-5.775-6.682-1.434-13.457-1.947-20.047-4.118-26.255-.446-48.736 10.524-71.585 24.994-30.491 18.981-63.008 34.188-97.182 44.974-17.532 1.897-20.147-.626-25.708-18.526-10.703-59.184-8.054-118.276 6.288-177.276 4.398-13.33 7.231-15.978 20.468-15.496 32.298 4.533 61.925 15.88 91.552 27.412-.073-2.974-.1-5.993-.322-8.679 7.575.987 14.955 2.309 21.898 4.343 7.946 7.578 15.984 13.222 24.113 18.865 5.893-.092 12.063-1.657 17.495-.368m253.974 8.554c-9.668 3.315-9.852-3.775-11.142-11.97-11.509-73.018-48.432-130.29-109.019-172.185-42.816-29.649-90.605-44.198-142.813-42.172-67.769 2.578-124.397 30.202-170.62 79.095-37.659 39.869-60.402 87.289-66.48 142.168-.46 4.051-1.565 5.248-5.524 5.064-21.362-1.105-19.797 5.248-15.377-19.152 19.06-105.153 79.187-178.078 179.091-214.633 87.381-31.951 170.251-16.85 244.834 37.936 59.114 43.461 95.024 102.39 107.547 175.039.552 3.039.828 6.077 1.105 9.208 1.289 11.602 1.289 11.602-11.602 11.602m-234.857 327.395c-130.105-.276-246.952-101.101-265.92-228.444-.184-1.565-.644-3.039-.828-4.512-2.855-16.942-2.855-16.666 14.364-16.666 5.617 0 6.629 1.842 7.458 7.182 15.93 100.181 70.992 170.62 165.924 205.333 145.851 53.405 293.267-48.709 321.074-188.575.737-3.591 1.105-7.366 1.934-10.957.921-4.143-1.197-10.865 2.486-11.97 5.893-1.842 12.799-.829 19.244-.645 3.499.093 2.118 3.039 1.934 4.973-6.538 61.968-31.951 115.373-74.859 160.123-44.842 46.683-99.536 74.767-164.174 82.409-9.853 1.105-19.797 1.197-28.637 1.749M18579.596 246.162c31.536 4.561 54.864-16.435 80.618-29.97 29.484-15.306 58.968-30.146 90.878-39.39 11.451-.488 15.72 5.367 19.15 14.86 3.321 23.916 3.75 48.298 4.459 72.587-.877 8.525-1.941 16.957-2.818 26.789l-4.869 4.869c1.698 33.038 5.448 67.662 3.508 101.539-5.015 15.556-7.699 17.866-23.068 16.26-22.764-6.441-44.502-15.96-65.773-26.505-20.152-9.985-40.77-19.224-58.591-33.406-3.549-2.99-7.098-3.927-10.74-5.144-6.534-1.218-13.162-1.502-19.602-3.466-26.127-.923-48.429 9.72-71.104 23.907-30.417 18.758-62.886 33.691-97.034 44.147-17.421 2.26-19.732.043-25.027-17.751-11.156-59.64-8.786-119.187 5.429-178.64 4.141-13.189 6.697-15.559 19.793-14.757 32.404 4.907 62.102 16.715 91.801 28.71.867-2.071 1.781-4.189 2.497-5.968 7.336 1.339 14.473 3.016 21.168 5.415 7.107 6.735 14.308 11.511 21.603 16.287 5.969-.093 12.219-1.679 17.722-.373m258.405 10.963c-9.794 3.358-9.981-3.824-11.286-12.126-11.66-73.966-49.063-131.983-110.438-174.423-43.372-30.035-91.782-44.772-144.669-42.72-68.65 2.612-126.014 30.594-172.838 80.123-38.149 40.388-61.188 88.424-67.344 144.016-.466 4.104-1.585 5.317-5.596 5.13-21.64-1.119-20.054 5.317-15.577-19.401 19.308-106.52 80.216-180.393 181.419-217.423 88.518-32.367 172.465-17.069 248.017 38.429 59.883 44.026 96.26 103.721 108.945 177.315.56 3.078.84 6.156 1.119 9.327 1.306 11.753 1.306 11.753-11.752 11.753m-241.209 326.157c-131.797-.28-250.163-102.415-269.377-231.414-.187-1.586-.653-3.078-.84-4.571-2.891-17.162-2.891-16.882 14.551-16.882 5.69 0 6.716 1.865 7.555 7.275 16.137 101.483 71.915 172.838 168.081 208.003 147.747 54.099 297.08-49.343 325.249-191.027.746-3.638 1.119-7.462 1.958-11.1.933-4.197-1.212-11.006 2.519-12.125 5.969-1.866 12.965-.84 19.494-.653 3.545.093 2.146 3.078 1.959 5.037-6.622 62.774-32.366 116.873-75.832 162.204-45.425 47.291-100.83 75.739-166.309 83.481-9.98 1.119-20.054 1.213-29.008 1.772M19169.53 246.486c31.483 5.028 54.663-15.794 80.297-29.068 29.407-15.067 58.814-29.663 90.674-38.597 11.285-.792 15.305 4.832 18.475 14.135 3.635 23.913 4.346 48.298 5.34 72.589-.611 8.346-1.41 16.598-2.02 26.266l-4.095 4.095c.887 32.587 3.85 66.777 1.058 100.213-4.774 15.436-7.19 17.475-22.437 15.551-22.817-6.307-44.597-15.728-65.904-26.186-20.176-9.892-40.823-19.029-58.64-33.167-3.383-2.816-6.765-3.557-10.242-4.581-6.401-1.023-12.897-1.104-19.204-2.882-26.011-1.349-48.153 9.001-70.674 22.936-30.35 18.557-62.777 33.247-96.901 43.408-17.322 2.584-19.361.64-24.419-17.06-11.56-60.047-9.44-119.999 4.661-179.857 3.913-13.064 6.221-15.184 19.191-14.096 32.498 5.239 62.261 17.46 92.023 29.869 1.707-1.265 3.461-2.577 5.015-3.547 7.122 1.652 14.042 3.647 20.515 6.373 6.36 5.982 12.813 9.982 19.361 13.983 6.038-.094 12.359-1.698 17.926-.377m262.362 13.115c-9.906 3.397-10.095-3.868-11.415-12.265-11.793-74.814-49.625-133.496-111.703-176.422-43.87-30.379-92.835-45.286-146.328-43.21-69.437 2.642-127.458 30.945-174.819 81.041-38.586 40.851-61.889 89.438-68.116 145.667-.472 4.151-1.604 5.378-5.661 5.189-21.887-1.132-20.284 5.378-15.755-19.623 19.529-107.741 81.136-182.461 183.499-219.916 89.532-32.737 174.441-17.265 250.86 38.87 60.569 44.53 97.363 104.91 110.193 179.347.566 3.114.849 6.227 1.133 9.435 1.32 11.887 1.32 11.887-11.888 11.887m-246.883 325.051c-133.308-.283-253.03-103.589-272.465-234.067-.188-1.604-.66-3.113-.849-4.623-2.925-17.359-2.925-17.076 14.718-17.076 5.755 0 6.793 1.887 7.642 7.359 16.321 102.646 72.739 174.819 170.007 210.387 149.441 54.719 300.485-49.908 328.977-193.216.755-3.68 1.132-7.548 1.981-11.227.944-4.246-1.226-11.133 2.548-12.265 6.038-1.887 13.113-.849 19.717-.66 3.585.094 2.17 3.113 1.982 5.094-6.699 63.494-32.738 118.213-76.702 164.064-45.945 47.832-101.986 76.607-168.215 84.438-10.095 1.132-20.284 1.226-29.341 1.792M19759.471 246.774c31.435 5.444 54.484-15.223 80.011-28.266 29.339-14.854 58.678-29.231 90.494-37.891 11.136-1.062 14.934 4.356 17.874 13.49 3.915 23.911 4.876 48.299 6.123 72.591-.373 8.187-.937 16.279-1.31 25.8l-3.406 3.407c.166 32.185 2.429 65.991-1.121 99.034-4.561 15.328-6.738 17.125-21.876 14.919-22.865-6.188-44.682-15.521-66.022-25.902-20.196-9.809-40.869-18.856-58.683-32.954-3.234-2.662-6.468-3.228-9.797-4.079-6.284-.852-12.663-.75-18.851-2.364-25.908-1.728-47.909 8.361-70.291 22.072-30.292 18.38-62.68 32.852-96.783 42.751-17.235 2.873-19.032 1.171-23.878-16.444-11.92-60.409-10.022-120.723 3.978-180.942 3.709-12.952 5.797-14.849 18.654-13.507 32.583 5.535 62.402 18.122 92.221 30.9 2.455-.548 4.957-1.143 7.256-1.393 6.931 1.932 13.659 4.209 19.935 7.225 5.693 5.312 11.482 8.623 17.366 11.934 6.099-.095 12.483-1.715 18.106-.381m265.884 15.03c-10.006 3.431-10.197-3.907-11.531-12.388-11.912-75.569-50.125-134.843-112.829-178.202-44.313-30.685-93.771-45.742-147.803-43.645-70.137 2.668-128.744 31.257-176.582 81.858-38.976 41.263-62.514 90.34-68.803 147.136-.477 4.193-1.62 5.432-5.718 5.241-22.108-1.143-20.488 5.432-15.914-19.821 19.726-108.827 81.954-184.301 185.349-222.133 90.435-33.068 176.201-17.439 253.39 39.262 61.179 44.979 98.344 105.968 111.304 181.156.572 3.144.858 6.289 1.144 9.529 1.334 12.007 1.334 12.007-12.007 12.007m-251.932 324.067c-134.652-.286-255.582-104.634-275.212-236.427-.191-1.62-.668-3.145-.858-4.669-2.954-17.535-2.954-17.249 14.866-17.249 5.813 0 6.861 1.906 7.719 7.433 16.486 103.681 73.472 176.582 171.722 212.508 150.947 55.272 303.515-50.411 332.294-195.164.762-3.717 1.144-7.624 2.001-11.34.953-4.288-1.239-11.245 2.573-12.389 6.099-1.905 13.246-.857 19.917-.667 3.621.096 2.192 3.145 2.001 5.146-6.766 64.134-33.067 119.405-77.475 165.719-46.409 48.314-103.014 77.379-169.911 85.289-10.197 1.143-20.489 1.239-29.637 1.81M20349.418 247.029c31.394 5.813 54.327-14.717 79.759-27.556 29.278-14.665 58.556-28.849 90.334-37.265 11.004-1.302 14.605 3.933 17.341 12.918 4.163 23.909 5.346 48.299 6.818 72.593-.163 8.046-.519 15.996-.682 25.388l-2.796 2.797c-.472 31.83 1.17 65.294-3.051 97.989-4.371 15.234-6.338 16.817-21.379 14.361-22.907-6.083-44.757-15.338-66.125-25.651-20.215-9.736-40.911-18.703-58.723-32.765-3.102-2.526-6.205-2.936-9.403-3.635-6.179-.7-12.454-.437-18.537-1.905-25.817-2.063-47.693 7.795-69.953 21.307-30.239 18.222-62.594 32.502-96.679 42.169-17.156 3.128-18.739 1.642-23.398-15.9-12.238-60.729-10.537-121.363 3.374-181.9 3.527-12.854 5.421-14.555 18.178-12.987 32.657 5.797 62.527 18.709 92.397 31.813 3.116.088 6.28.127 9.24.515 6.762 2.179 13.319 4.707 19.42 7.979 5.104 4.72 10.303 7.42 15.599 10.12 6.153-.096 12.594-1.73 18.266-.385m269.003 16.726c-10.094 3.461-10.287-3.941-11.632-12.498-12.018-76.237-50.569-136.034-113.827-179.777-44.704-30.956-94.6-46.146-149.11-44.031-70.757 2.692-129.882 31.533-178.143 82.582-39.32 41.628-63.066 91.139-69.411 148.437-.481 4.23-1.635 5.48-5.769 5.287-22.303-1.153-20.669 5.48-16.055-19.996 19.901-109.789 82.679-185.93 186.988-224.097 91.235-33.36 177.759-17.593 255.63 39.609 61.72 45.377 99.214 106.905 112.289 182.757.577 3.173.865 6.345 1.153 9.614 1.346 12.113 1.346 12.113-12.113 12.113m-256.403 323.196c-135.842-.289-257.841-105.559-277.645-238.518-.192-1.634-.673-3.172-.865-4.71-2.981-17.69-2.981-17.401 14.997-17.401 5.865 0 6.922 1.923 7.787 7.498 16.632 104.598 74.122 178.144 173.24 214.387 152.282 55.76 306.199-50.856 335.232-196.889.769-3.75 1.154-7.691 2.019-11.441.962-4.326-1.25-11.344 2.596-12.498 6.153-1.922 13.363-.865 20.093-.673 3.653.096 2.211 3.173 2.019 5.192-6.826 64.7-33.36 120.46-78.16 167.183-46.819 48.742-103.925 78.064-171.414 86.043-10.286 1.154-20.669 1.25-29.899 1.827M20939.373 247.254c31.356 6.136 54.186-14.272 79.536-26.931 29.225-14.499 58.449-28.513 90.193-36.715 10.888-1.513 14.316 3.562 16.872 12.416 4.382 23.907 5.76 48.299 7.429 72.593.022 7.923-.15 15.748-.128 25.027l-2.26 2.259c-1.034 31.517.063 64.681-4.75 97.07-4.203 15.151-5.985 16.544-20.941 13.869-22.944-5.99-44.823-15.177-66.217-25.43-20.231-9.671-40.947-18.568-58.756-32.599-2.987-2.405-5.974-2.68-9.058-3.244-6.087-.565-12.27-.161-18.261-1.501-25.737-2.358-47.502 7.297-69.654 20.633-30.194 18.084-62.519 32.196-96.587 41.657-17.088 3.353-18.482 2.056-22.976-15.419-12.519-61.012-10.991-121.928 2.841-182.746 3.369-12.766 5.091-14.294 17.76-12.528 32.723 6.028 62.637 19.225 92.551 32.616 3.698.647 7.445 1.246 10.986 2.195 6.614 2.397 13.021 5.145 18.968 8.643 4.585 4.197 9.266 6.36 14.044 8.523 6.201-.097 12.692-1.744 18.408-.388m271.747 18.219c-10.172 3.487-10.366-3.972-11.722-12.595-12.11-76.825-50.959-137.084-114.705-181.164-45.049-31.195-95.329-46.502-150.26-44.37-71.303 2.712-130.884 31.776-179.517 83.219-39.623 41.948-63.553 91.841-69.947 149.581-.484 4.263-1.647 5.522-5.812 5.329-22.476-1.163-20.829 5.522-16.179-20.151 20.054-110.636 83.316-187.365 188.43-225.826 91.938-33.617 179.129-17.728 257.601 39.915 62.197 45.727 99.98 107.729 113.155 184.167.581 3.197.872 6.394 1.163 9.688 1.356 12.207 1.356 12.207-12.207 12.207m-260.338 322.428c-136.89-.291-259.83-106.373-279.787-240.357-.194-1.647-.678-3.197-.872-4.747-3.003-17.826-3.003-17.535 15.113-17.535 5.91 0 6.976 1.937 7.848 7.556 16.76 105.405 74.694 179.517 174.576 216.041 153.456 56.19 308.56-51.249 337.817-198.409.775-3.778 1.163-7.75 2.035-11.528.969-4.36-1.26-11.432 2.616-12.595 6.2-1.937 13.466-.872 20.247-.678 3.682.097 2.229 3.197 2.035 5.232-6.879 65.199-33.617 121.389-78.763 168.472-47.18 49.118-104.726 78.666-172.735 86.707-10.366 1.163-20.829 1.26-30.13 1.841M21529.332 247.45c31.324 6.42 54.065-13.883 79.342-26.384 29.178-14.354 58.357-28.221 90.07-36.236 10.787-1.696 14.064 3.239 16.463 11.977 4.573 23.906 6.121 48.3 7.963 72.595.183 7.814.171 15.531.354 24.71l-1.79 1.79c-1.525 31.244-.905 64.146-6.234 96.267-4.057 15.078-5.676 16.307-20.559 13.44-22.977-5.909-44.88-15.036-66.296-25.237-20.246-9.615-40.979-18.45-58.786-32.454-2.886-2.3-5.772-2.456-8.755-2.903-6.007-.448-12.111.08-18.02-1.148-25.667-2.616-47.336 6.862-69.395 20.046-30.153 17.962-62.452 31.926-96.506 41.209-17.029 3.549-18.258 2.418-22.608-15.001-12.764-61.258-11.387-122.419 2.376-183.483 3.23-12.69 4.802-14.067 17.395-12.128 32.781 6.23 62.733 19.677 92.686 33.319 4.207 1.135 8.463 2.221 12.512 3.661 6.483 2.587 12.759 5.527 18.572 9.223 4.131 3.741 8.36 5.434 12.686 7.128 6.242-.098 12.776-1.756 18.53-.391m274.145 19.522c-10.24 3.511-10.435-3.998-11.801-12.678-12.19-77.339-51.299-138-115.471-182.375-45.35-31.404-95.967-46.813-151.264-44.667-71.78 2.73-131.759 31.988-180.717 83.775-39.889 42.229-63.978 92.455-70.415 150.581-.487 4.292-1.658 5.559-5.851 5.364-22.626-1.17-20.969 5.559-16.287-20.285 20.188-111.376 83.873-188.617 189.689-227.335 92.553-33.842 180.327-17.847 259.324 40.181 62.612 46.033 100.648 108.45 113.911 185.398.585 3.219.878 6.437 1.171 9.753 1.365 12.288 1.365 12.288-12.289 12.288m-263.775 321.759c-137.805-.293-261.566-107.085-281.657-241.964-.195-1.658-.682-3.218-.878-4.779-3.023-17.945-3.023-17.652 15.215-17.652 5.949 0 7.022 1.95 7.899 7.607 16.872 106.109 75.193 180.717 175.744 217.485 154.482 56.565 310.622-51.592 340.075-199.735.78-3.804 1.171-7.802 2.048-11.606.976-4.389-1.268-11.508 2.634-12.678 6.241-1.951 13.556-.878 20.383-.683 3.706.097 2.243 3.218 2.048 5.266-6.925 65.636-33.842 122.201-79.29 169.599-47.495 49.446-105.426 79.192-173.89 87.287-10.435 1.17-20.968 1.268-30.331 1.853M22119.298 247.62c31.295 6.664 53.959-13.548 79.174-25.913 29.137-14.228 58.275-27.966 89.963-35.819 10.699-1.856 13.846 2.958 16.109 11.597 4.737 23.905 6.433 48.299 8.424 72.596.323 7.72.45 15.342.773 24.436l-1.385 1.385c-1.95 31.007-1.742 63.682-7.517 95.572-3.932 15.015-5.411 16.102-20.229 13.069-23.005-5.839-44.93-14.915-66.365-25.07-20.258-9.567-41.006-18.349-58.812-32.329-2.798-2.21-5.597-2.262-8.493-2.608-5.938-.346-11.973.288-17.812-.843-25.607-2.838-47.192 6.486-69.169 19.537-30.119 17.858-62.395 31.694-96.437 40.822-16.977 3.72-18.064 2.731-22.289-14.638-12.976-61.471-11.73-122.845 1.973-184.12 3.111-12.625 4.553-13.871 17.08-11.783 32.83 6.405 62.816 20.067 92.802 33.926 4.647 1.558 9.343 3.066 13.831 4.93 6.371 2.751 12.533 5.858 18.23 9.725 3.739 3.346 7.577 4.634 11.512 5.921 6.278-.099 12.85-1.766 18.637-.393m276.218 20.649c-10.299 3.532-10.496-4.021-11.869-12.751-12.261-77.783-51.594-138.793-116.135-183.422-45.61-31.584-96.517-47.082-152.132-44.924-72.192 2.746-132.516 32.172-181.755 84.257-40.118 42.471-64.345 92.986-70.819 151.446-.49 4.315-1.667 5.591-5.885 5.394-22.756-1.177-21.089 5.591-16.381-20.402 20.304-112.015 84.355-189.7 190.779-228.64 93.085-34.036 181.363-17.95 260.813 40.412 62.972 46.297 101.226 109.072 114.566 186.463.588 3.237.882 6.474 1.177 9.808 1.373 12.359 1.373 12.359-12.359 12.359m-266.747 321.18c-138.597-.295-263.069-107.7-283.275-243.354-.196-1.667-.687-3.237-.883-4.806-3.041-18.048-3.041-17.754 15.302-17.754 5.983 0 7.062 1.962 7.945 7.651 16.969 106.718 75.625 181.755 176.752 218.734 155.37 56.89 312.407-51.888 342.029-200.882.785-3.826 1.177-7.847 2.06-11.673.981-4.414-1.275-11.574 2.648-12.751 6.278-1.962 13.634-.883 20.5-.687 3.728.099 2.256 3.237 2.06 5.297-6.964 66.013-34.036 122.903-79.744 170.573-47.769 49.73-106.032 79.647-174.889 87.788-10.496 1.177-21.089 1.275-30.505 1.864M22709.268 247.765c31.272 6.873 53.87-13.261 79.03-25.509 29.104-14.122 58.207-27.75 89.873-35.465 10.624-1.992 13.659 2.718 15.807 11.273 4.878 23.903 6.7 48.299 8.818 72.597.442 7.64.687 15.182 1.129 24.202l-1.039 1.038c-2.312 30.806-2.456 63.287-8.612 94.98-3.824 14.961-5.183 15.926-19.947 12.751-23.028-5.779-44.972-14.811-66.423-24.927-20.269-9.525-41.03-18.262-58.834-32.222-2.724-2.132-5.448-2.096-8.271-2.356-5.877-.26-11.854.466-17.633-.582-25.555-3.029-47.069 6.164-68.977 19.103-30.089 17.768-62.347 31.495-96.378 40.491-16.933 3.865-17.898 2.999-22.017-14.328-13.157-61.654-12.022-123.209 1.631-184.666 3.007-12.568 4.339-13.703 16.809-11.487 32.873 6.554 62.887 20.401 92.901 34.445 5.023 1.918 10.095 3.787 14.958 6.013 6.275 2.891 12.341 6.14 17.939 10.153 3.404 3.01 6.907 3.95 10.509 4.89 6.308-.098 12.912-1.774 18.727-.394m277.988 21.612c-10.349 3.548-10.546-4.041-11.926-12.813-12.321-78.163-51.845-139.47-116.701-184.317-45.833-31.738-96.988-47.311-152.875-45.143-72.543 2.76-133.161 32.329-182.641 84.667-40.313 42.679-64.658 93.44-71.164 152.185-.492 4.337-1.675 5.618-5.914 5.421-22.867-1.183-21.191 5.618-16.46-20.502 20.403-112.561 84.766-190.624 191.709-229.755 93.538-34.202 182.247-18.037 262.085 40.609 63.279 46.523 101.719 109.604 115.124 187.372.591 3.253.887 6.506 1.183 9.857 1.38 12.419 1.38 12.419-12.42 12.419m-269.285 320.684c-139.272-.295-264.351-108.224-284.656-244.54-.197-1.675-.69-3.252-.887-4.829-3.055-18.136-3.055-17.841 15.376-17.841 6.013 0 7.097 1.972 7.984 7.688 17.052 107.239 75.994 182.642 177.614 219.801 156.128 57.167 313.93-52.141 343.697-201.862.788-3.844 1.183-7.885 2.07-11.729.985-4.435-1.282-11.631 2.661-12.813 6.308-1.972 13.701-.887 20.6-.69 3.746.098 2.267 3.252 2.07 5.322-6.998 66.334-34.202 123.502-80.133 171.405-48.002 49.972-106.549 80.035-175.742 88.216-10.546 1.182-21.191 1.281-30.654 1.872M23299.243 247.887c31.252 7.048 53.794-13.02 78.91-25.171 29.074-14.032 58.149-27.568 89.796-35.167 10.562-2.106 13.503 2.517 15.554 11.001 4.995 23.902 6.923 48.299 9.148 72.598.542 7.573.887 15.046 1.429 24.005l-.748.748c-2.617 30.636-3.056 62.955-9.533 94.481-3.732 14.916-4.991 15.779-19.709 12.485-23.049-5.729-45.008-14.724-66.473-24.807-20.277-9.49-41.05-18.189-58.853-32.132-2.661-2.067-5.322-1.957-8.082-2.144-5.828-.187-11.755.615-17.485-.364-25.511-3.188-46.965 5.895-68.815 18.739-30.064 17.693-62.305 31.328-96.328 40.214-16.896 3.986-17.758 3.222-21.788-14.069-13.309-61.807-12.268-123.514 1.342-185.123 2.921-12.521 4.16-13.562 16.583-11.239 32.908 6.679 62.946 20.681 92.985 34.88 5.338 2.221 10.726 4.393 15.903 6.923 6.195 3.009 12.179 6.377 17.694 10.512 3.123 2.727 6.345 3.377 9.666 4.026 6.334-.099 12.965-1.782 18.804-.396m279.475 22.42c-10.391 3.563-10.589-4.058-11.975-12.866-12.371-78.48-52.056-140.038-117.176-185.067-46.02-31.868-97.384-47.504-153.498-45.327-72.839 2.771-133.704 32.461-183.385 85.012-40.477 42.853-64.922 93.821-71.454 152.805-.495 4.354-1.682 5.641-5.938 5.443-22.96-1.188-21.278 5.641-16.527-20.585 20.486-113.02 85.111-191.402 192.49-230.691 93.919-34.342 182.989-18.111 263.152 40.774 63.537 46.712 102.134 110.051 115.593 188.136.594 3.265.891 6.531 1.188 9.896 1.385 12.47 1.385 12.47-12.47 12.47m-271.416 320.269c-139.84-.297-265.429-108.665-285.816-245.536-.198-1.683-.693-3.266-.891-4.85-3.068-18.21-3.068-17.913 15.439-17.913 6.037 0 7.126 1.98 8.016 7.72 17.122 107.675 76.304 183.385 178.338 220.695 156.764 57.401 315.209-52.353 345.097-202.683.792-3.86 1.188-7.918 2.078-11.777.99-4.454-1.286-11.679 2.673-12.866 6.333-1.979 13.756-.891 20.684-.693 3.76.099 2.276 3.266 2.078 5.344-7.027 66.605-34.342 124.006-80.46 172.103-48.197 50.177-106.983 80.361-176.458 88.576-10.589 1.187-21.277 1.286-30.778 1.88M23889.223 247.987c31.235 7.192 53.732-12.823 78.811-24.894 29.05-13.957 58.101-27.418 89.733-34.922 10.511-2.2 13.375 2.353 15.345 10.777 5.093 23.902 7.108 48.3 9.42 72.599.625 7.518 1.051 14.936 1.675 23.844l-.509.51c-2.867 30.497-3.549 62.682-10.288 94.072-3.658 14.879-4.835 15.658-19.515 12.267-23.065-5.688-45.037-14.653-66.514-24.71-20.284-9.461-41.065-18.128-58.867-32.057-2.61-2.014-5.22-1.844-7.929-1.971-5.787-.128-11.674.738-17.362-.184-25.476-3.32-46.88 5.673-68.682 18.439-30.044 17.632-62.272 31.192-96.288 39.986-16.865 4.087-17.644 3.407-21.6-13.855-13.434-61.932-12.47-123.765 1.105-185.498 2.851-12.483 4.014-13.447 16.397-11.035 32.938 6.781 62.996 20.909 93.054 35.237 5.597 2.469 11.244 4.889 16.68 7.669 6.128 3.106 12.046 6.572 17.492 10.807 2.892 2.495 5.884 2.906 8.975 3.316 6.355-.099 13.008-1.787 18.867-.397m280.695 23.083c-10.426 3.575-10.625-4.071-12.015-12.908-12.412-78.742-52.23-140.504-117.567-185.684-46.173-31.974-97.708-47.662-154.009-45.478-73.082 2.78-134.149 32.569-183.995 85.296-40.613 42.995-65.139 94.132-71.692 153.313-.497 4.369-1.688 5.66-5.958 5.461-23.037-1.191-21.349 5.66-16.583-20.653 20.555-113.397 85.395-192.039 193.132-231.46 94.232-34.456 183.598-18.171 264.028 40.91 63.749 46.868 102.474 110.418 115.978 188.762.596 3.277.894 6.554 1.192 9.93 1.39 12.511 1.39 12.511-12.511 12.511m-273.166 319.928c-140.305-.298-266.312-109.027-286.767-246.354-.199-1.688-.695-3.277-.894-4.865-3.078-18.271-3.078-17.973 15.49-17.973 6.057 0 7.15 1.986 8.043 7.745 17.178 108.035 76.558 183.996 178.932 221.431 157.285 57.592 316.259-52.528 346.246-203.359.795-3.872 1.192-7.944 2.085-11.816.993-4.468-1.29-11.717 2.681-12.909 6.355-1.986 13.803-.893 20.753-.695 3.774.1 2.284 3.277 2.086 5.362-7.051 66.827-34.456 124.418-80.728 172.676-48.358 50.344-107.34 80.629-177.046 88.871-10.624 1.191-21.348 1.29-30.881 1.886M24479.206 248.066c31.222 7.307 53.683-12.665 78.733-24.672 29.032-13.899 58.064-27.301 89.684-34.728 10.469-2.275 13.272 2.221 15.179 10.599 5.17 23.901 7.254 48.3 9.636 72.599.69 7.474 1.181 14.849 1.87 23.716l-.32.32c-3.065 30.387-3.939 62.466-10.887 93.748-3.6 14.85-4.71 15.562-19.361 12.093-23.078-5.655-45.06-14.595-66.545-24.631-20.291-9.439-41.079-18.081-58.88-31.999-2.569-1.972-5.138-1.753-7.807-1.833-5.754-.08-11.609.835-17.264-.041-25.448-3.424-46.813 5.497-68.578 18.201-30.027 17.583-62.245 31.084-96.254 39.806-16.841 4.166-17.554 3.553-21.452-13.686-13.533-62.032-12.63-123.964.917-185.797 2.795-12.452 3.897-13.355 16.25-10.873 32.961 6.862 63.034 21.092 93.108 35.521 5.803 2.667 11.655 5.284 17.296 8.262 6.076 3.182 11.941 6.726 17.333 11.041 2.709 2.312 5.518 2.532 8.426 2.752 6.372-.099 13.042-1.792 18.916-.398m281.665 23.611c-10.454 3.584-10.653-4.082-12.047-12.943-12.445-78.95-52.368-140.875-117.877-186.174-46.294-32.057-97.965-47.787-154.414-45.597-73.275 2.787-134.503 32.655-184.481 85.52-40.72 43.109-65.311 94.381-71.881 153.718-.498 4.38-1.693 5.675-5.974 5.476-23.097-1.195-21.405 5.674-16.626-20.709 20.608-113.695 85.62-192.545 193.64-232.069 94.481-34.547 184.083-18.22 264.725 41.018 63.917 46.991 102.744 110.708 116.284 189.259.597 3.286.896 6.571 1.195 9.956 1.394 12.545 1.394 12.545-12.544 12.545m-274.555 319.657c-140.676-.299-267.015-109.315-287.524-247.004-.199-1.692-.697-3.285-.896-4.878-3.086-18.319-3.086-18.02 15.531-18.02 6.073 0 7.168 1.991 8.064 7.765 17.224 108.32 76.76 184.481 179.404 222.015 157.7 57.744 317.092-52.666 347.159-203.895.796-3.883 1.195-7.965 2.091-11.848.995-4.48-1.295-11.747 2.688-12.942 6.371-1.991 13.838-.896 20.807-.697 3.784.1 2.29 3.285 2.091 5.376-7.069 67.003-34.547 124.746-80.941 173.132-48.484 50.476-107.622 80.841-177.512 89.104-10.652 1.195-21.405 1.294-30.962 1.892M25069.194 248.126c31.212 7.393 53.646-12.546 78.673-24.506 29.018-13.854 58.035-27.21 89.647-34.581 10.438-2.33 13.195 2.122 15.054 10.466 5.228 23.9 7.364 48.3 9.799 72.599.739 7.441 1.279 14.782 2.018 23.62l-.177.176c-3.215 30.303-4.235 62.302-11.341 93.503-3.555 14.827-4.616 15.489-19.244 11.962-23.088-5.631-45.078-14.553-66.57-24.573-20.294-9.421-41.088-18.044-58.889-31.955-2.538-1.939-5.076-1.684-7.713-1.728-5.731-.045-11.561.909-17.191.067-25.427-3.503-46.763 5.364-68.498 18.021-30.016 17.546-62.225 31.002-96.231 39.669-16.822 4.226-17.484 3.664-21.339-13.558-13.607-62.107-12.75-124.114.776-186.022 2.752-12.429 3.808-13.286 16.137-10.751 32.979 6.924 63.064 21.23 93.15 35.736 5.958 2.816 11.966 5.582 17.762 8.709 6.037 3.241 11.861 6.844 17.212 11.219 2.571 2.172 5.241 2.249 8.011 2.326 6.385-.1 13.069-1.796 18.954-.399m282.397 24.009c-10.475 3.591-10.674-4.09-12.071-12.968-12.469-79.107-52.471-141.155-118.111-186.544-46.386-32.121-98.16-47.883-154.721-45.688-73.421 2.793-134.771 32.72-184.848 85.69-40.8 43.194-65.44 94.569-72.024 154.023-.499 4.39-1.696 5.686-5.985 5.487-23.144-1.197-21.448 5.686-16.659-20.749 20.649-113.922 85.79-192.928 194.025-232.532 94.668-34.615 184.449-18.255 265.251 41.1 64.043 47.085 102.948 110.929 116.515 189.636.599 3.292.898 6.584 1.197 9.976 1.397 12.569 1.397 12.569-12.569 12.569m-275.605 319.452c-140.955-.299-267.546-109.532-288.095-247.494-.2-1.696-.699-3.292-.898-4.888-3.093-18.355-3.093-18.056 15.562-18.056 6.085 0 7.182 1.995 8.08 7.781 17.258 108.534 76.912 184.848 179.76 222.456 158.014 57.858 317.723-52.771 347.849-204.301.798-3.89 1.197-7.98 2.095-11.871.998-4.489-1.297-11.771 2.694-12.968 6.384-1.995 13.866-.898 20.849-.698 3.79.1 2.294 3.292 2.094 5.387-7.082 67.135-34.615 124.994-81.101 173.475-48.581 50.577-107.836 81.002-177.865 89.282-10.674 1.197-21.448 1.297-31.024 1.895M25659.186 248.168c31.205 7.453 53.62-12.464 78.632-24.39 29.007-13.824 58.015-27.148 89.62-34.479 10.416-2.37 13.141 2.053 14.967 10.372 5.269 23.9 7.441 48.3 9.912 72.6.774 7.418 1.347 14.736 2.121 23.552l-.077.077c-3.319 30.245-4.441 62.188-11.656 93.332-3.524 14.812-4.551 15.439-19.163 11.871-23.095-5.613-45.091-14.523-66.587-24.532-20.298-9.409-41.095-18.019-58.895-31.924-2.517-1.917-5.033-1.637-7.65-1.656-5.713-.019-11.526.96-17.139.142-25.412-3.558-46.728 5.272-68.443 17.897-30.007 17.52-62.211 30.944-96.213 39.573-16.81 4.268-17.437 3.741-21.261-13.469-13.66-62.159-12.835-124.219.676-186.178 2.723-12.413 3.748-13.238 16.06-10.666 32.991 6.967 63.085 21.326 93.178 35.884 6.067 2.92 12.183 5.79 18.087 9.022 6.009 3.281 11.805 6.924 17.127 11.342 2.475 2.075 5.049 2.052 7.724 2.029 6.393-.1 13.086-1.798 18.98-.399m282.905 24.285c-10.489 3.596-10.688-4.095-12.087-12.986-12.486-79.215-52.544-141.349-118.274-186.801-46.45-32.165-98.295-47.949-154.934-45.751-73.522 2.797-134.957 32.765-185.103 85.809-40.857 43.254-65.53 94.699-72.123 154.235-.5 4.395-1.698 5.694-5.994 5.494-23.175-1.198-21.477 5.694-16.682-20.778 20.678-114.078 85.908-193.194 194.293-232.851 94.799-34.663 184.703-18.281 265.617 41.156 64.131 47.15 103.09 111.081 116.675 189.897.6 3.297.899 6.593 1.199 9.99 1.398 12.586 1.398 12.586-12.587 12.586m-276.334 319.311c-141.15-.3-267.915-109.684-288.493-247.836-.2-1.698-.699-3.297-.899-4.895-3.097-18.38-3.097-18.081 15.584-18.081 6.093 0 7.192 1.998 8.091 7.792 17.282 108.684 77.018 185.103 180.008 222.762 158.231 57.939 318.161-52.843 348.329-204.581.799-3.896 1.198-7.992 2.097-11.888.999-4.495-1.298-11.787 2.697-12.986 6.394-1.998 13.886-.899 20.878-.699 3.796.1 2.298 3.296 2.098 5.394-7.092 67.228-34.663 125.167-81.213 173.715-48.649 50.646-107.985 81.113-178.111 89.405-10.688 1.198-21.477 1.298-31.066 1.898M26249.181 248.192c31.201 7.489 53.605-12.416 78.607-24.322 29.002-13.806 58.004-27.112 89.605-34.419 10.405-2.393 13.111 2.013 14.917 10.317 5.292 23.9 7.485 48.3 9.978 72.6.794 7.405 1.387 14.709 2.181 23.513l-.019.019c-3.38 30.211-4.561 62.122-11.84 93.232-3.506 14.803-4.513 15.41-19.116 11.818-23.098-5.603-45.097-14.506-66.596-24.508-20.3-9.402-41.099-18.005-58.899-31.906-2.504-1.904-5.008-1.609-7.612-1.614-5.704-.004-11.507.991-17.11.186-25.403-3.589-46.707 5.218-68.411 17.824-30.001 17.505-62.202 30.911-96.203 39.518-16.802 4.292-17.409 3.785-21.215-13.417-13.69-62.19-12.884-124.28.619-186.27 2.706-12.403 3.712-13.209 16.015-10.616 32.998 6.992 63.096 21.381 93.194 35.971 6.13 2.981 12.309 5.911 18.276 9.204 5.993 3.304 11.773 6.972 17.079 11.414 2.418 2.018 4.936 1.937 7.555 1.856 6.398-.1 13.096-1.8 18.995-.4m283.203 24.447c-10.497 3.599-10.697-4.099-12.097-12.996-12.497-79.279-52.586-141.463-118.369-186.951-46.488-32.192-98.374-47.988-155.06-45.788-73.58 2.799-135.064 32.791-185.251 85.877-40.889 43.289-65.583 94.775-72.181 154.36-.5 4.399-1.7 5.698-5.999 5.498-23.193-1.199-21.494 5.699-16.695-20.794 20.694-114.17 85.977-193.35 194.449-233.039 94.875-34.691 184.852-18.295 265.83 41.189 64.184 47.188 103.173 111.171 116.77 190.05.6 3.299.9 6.599 1.199 9.998 1.4 12.596 1.4 12.596-12.596 12.596m-276.761 319.227c-141.263-.299-268.13-109.771-288.725-248.035-.2-1.699-.7-3.299-.9-4.898-3.099-18.396-3.099-18.096 15.596-18.096 6.099 0 7.198 2 8.098 7.798 17.296 108.772 77.08 185.252 180.153 222.942 158.359 57.985 318.417-52.886 348.609-204.746.8-3.899 1.2-7.998 2.099-11.897 1-4.499-1.299-11.797 2.7-12.997 6.398-1.999 13.896-.9 20.894-.7 3.799.1 2.3 3.299 2.1 5.399-7.099 67.282-34.691 125.267-81.279 173.854-48.687 50.687-108.072 81.179-178.254 89.477-10.697 1.2-21.494 1.3-31.091 1.899M26839.179 248.2c31.2 7.5 53.6-12.4 78.6-24.3 29-13.8 58-27.1 89.6-34.4 10.4-2.4 13.1 2 14.9 10.3 5.3 23.9 7.5 48.3 10 72.6.8 7.4 1.4 14.7 2.2 23.5-3.4 30.2-4.6 62.1-11.9 93.2-3.5 14.8-4.5 15.4-19.1 11.8-23.1-5.6-45.1-14.5-66.6-24.5-20.3-9.4-41.1-18-58.9-31.9-2.5-1.9-5-1.6-7.6-1.6-5.7 0-11.5 1-17.1.2-25.4-3.6-46.7 5.2-68.4 17.8-30 17.5-62.2 30.9-96.2 39.5-16.8 4.3-17.4 3.8-21.2-13.4-13.7-62.2-12.9-124.3.6-186.3 2.7-12.4 3.7-13.2 16-10.6 33 7 63.1 21.4 93.2 36 6.15 3 12.35 5.95 18.338 9.263 5.987 3.312 11.762 6.987 17.062 11.437 2.4 2 4.9 1.9 7.5 1.8 6.4-.1 13.1-1.8 19-.4m283.3 24.5c-10.5 3.6-10.7-4.1-12.1-13-12.5-79.3-52.6-141.5-118.4-187-46.5-32.2-98.4-48-155.1-45.8-73.6 2.8-135.1 32.8-185.3 85.9-40.9 43.3-65.6 94.8-72.2 154.4-.5 4.4-1.7 5.7-6 5.5-23.2-1.2-21.5 5.7-16.7-20.8 20.7-114.2 86-193.4 194.5-233.1 94.9-34.7 184.9-18.3 265.9 41.2 64.2 47.2 103.2 111.2 116.8 190.1.6 3.3.9 6.6 1.2 10 1.4 12.6 1.4 12.6-12.6 12.6m-276.9 319.2c-141.3-.3-268.2-109.8-288.8-248.1-.2-1.7-.7-3.3-.9-4.9-3.1-18.4-3.1-18.1 15.6-18.1 6.1 0 7.2 2 8.1 7.8 17.3 108.8 77.1 185.3 180.2 223 158.4 58 318.5-52.9 348.7-204.8.8-3.9 1.2-8 2.1-11.9 1-4.5-1.3-11.8 2.7-13 6.4-2 13.9-.9 20.9-.7 3.8.1 2.3 3.3 2.1 5.4-7.1 67.3-34.7 125.3-81.3 173.9-48.7 50.7-108.1 81.2-178.3 89.5-10.7 1.2-21.5 1.3-31.1 1.9" fill="#000000" fill-rule="evenodd"/></svg>